<svg xmlns="http://www.w3.org/2000/svg" viewBox="0 0 84 84"><defs><style>.cls-1{fill:#fff;}</style></defs><title>arrow-down</title><g id="Layer_2" data-name="Layer 2"><g id="Layer_1-2" data-name="Layer 1"><path class="cls-1" d="M40.59,55.41a2,2,0,0,0,2.83,0l18-18a2,2,0,0,0-2.83-2.83L42,51.17,25.41,34.59a2,2,0,1,0-2.83,2.83Z"/><path class="cls-1" d="M0,42C0,64.77,19.23,84,42,84S84,64.77,84,42,64.77,0,42,0,0,19.23,0,42ZM42,4C62.6,4,80,21.4,80,42S62.6,80,42,80,4,62.6,4,42,21.4,4,42,4Z"/></g></g></svg>