<svg xmlns="http://www.w3.org/2000/svg" viewBox="0 0 88.02 78"><defs><style>.cls-1{fill:#5c666f;}.cls-2{fill:#00c4b3;}</style></defs><title>brand</title><g id="Layer_2" data-name="Layer 2"><g id="Layer_1-2" data-name="Layer 1"><path class="cls-1" d="M87.6,30.28,68.6,5.75a2,2,0,0,0-.78-.59A61.88,61.88,0,0,0,44,0,61.88,61.88,0,0,0,20.2,5.16a2,2,0,0,0-.78.59L.42,30.28a2,2,0,0,0,.16,2.63l11,11.47a2,2,0,0,0,2.83.05l.11-.11L20,38.19V76a2,2,0,0,0,2,2H66a2,2,0,0,0,2-2V38.19l5.5,6.13a2,2,0,0,0,2.82.17l.11-.11,11-11.47A2,2,0,0,0,87.6,30.28ZM44,4a50.72,50.72,0,0,1,9.34,1A10.86,10.86,0,0,1,44,10a10.86,10.86,0,0,1-9.34-5A50.72,50.72,0,0,1,44,4ZM75.07,40l-7.56-8.37A2,2,0,0,0,64,33V74H24V33a2,2,0,0,0-3.5-1.34L12.95,40,4.67,31.38,22.29,8.66a60.47,60.47,0,0,1,8.34-2.78A14.66,14.66,0,0,0,44,14,14.66,14.66,0,0,0,57.39,5.88a60.47,60.47,0,0,1,8.34,2.78L83.35,31.38Z"/><path class="cls-2" d="M55,22l-.27,0-.22,0L33.67,27H31a2,2,0,0,0-2,2v8a2,2,0,0,0,2,2h2.78l.22.06V44a2,2,0,0,0,2,2h9a2,2,0,0,0,2-2V42.16l7.53,1.78A2,2,0,0,0,57,42V24A2,2,0,0,0,55,22ZM43,42H38V40l5,1.19Zm10-2.56L34.48,35A2,2,0,0,0,34,35H33V31h1a2,2,0,0,0,.47-.06L53,26.53Z"/></g></g></svg>