<svg xmlns="http://www.w3.org/2000/svg" viewBox="0 0 90 90"><defs><style>.cls-1{fill:#5c666f;}.cls-2{fill:#00c4b3;}</style></defs><title>code</title><g id="Layer_2" data-name="Layer 2"><g id="Layer_1-2" data-name="Layer 1"><path class="cls-1" d="M78.3,0H11.7A11.65,11.65,0,0,0,0,11.7v50A11.71,11.71,0,0,0,11.7,73.4H31.8l-2,10H20A3.3,3.3,0,1,0,20,90H70a3.3,3.3,0,0,0,0-6.6H60.2l-2-10H78.3A11.71,11.71,0,0,0,90,61.7v-50A11.65,11.65,0,0,0,78.3,0ZM36.6,83.3l2-10H51.5l2,10ZM83.3,61.7h0a5,5,0,0,1-5,5H11.7a5,5,0,0,1-5-5v-50a5,5,0,0,1,5-5H78.4a5,5,0,0,1,5,5l-.1,50Z"/><path class="cls-2" d="M25.8,47.9a3.32,3.32,0,0,1-2.7-1.4l-6.2-8.8a3.31,3.31,0,0,1,0-3.8l6.2-8.8a3.3,3.3,0,1,1,5.4,3.8l-4.8,6.9,4.8,6.9a3.33,3.33,0,0,1-.8,4.6A3.53,3.53,0,0,1,25.8,47.9Z"/><path class="cls-2" d="M67.2,47.9a3.29,3.29,0,0,1-1.9-.6,3.24,3.24,0,0,1-.8-4.6l4.8-6.9-4.8-6.9a3.3,3.3,0,0,1,5.4-3.8l6.2,8.8a3.31,3.31,0,0,1,0,3.8l-6.2,8.8A3.46,3.46,0,0,1,67.2,47.9Z"/><path class="cls-2" d="M38.5,52.2a3.31,3.31,0,0,1-2.8-5L52.1,20.9a3.28,3.28,0,1,1,5.6,3.4L41.3,50.7A3.22,3.22,0,0,1,38.5,52.2Z"/></g></g></svg>