<svg xmlns="http://www.w3.org/2000/svg" viewBox="0 0 165.53 78.98"><defs><style>.cls-1{fill:#5c666f;}.cls-2{fill:#00c4b3;}</style></defs><title>delivery</title><g id="Layer_2" data-name="Layer 2"><g id="Layer_1-2" data-name="Layer 1"><path class="cls-1" d="M138.33,15.22a2.5,2.5,0,0,1,1.65.62l19.19,16.79a2.5,2.5,0,0,1,.85,1.88V60.44a2.5,2.5,0,0,1-2.5,2.5h-3.64a13,13,0,0,0-25.58,0h-5.5V15.22h15.52m0-.5h-16V63.44h6.41l.08-.4a12.53,12.53,0,0,1,24.6,0l.08.4h4.05a3,3,0,0,0,3-3V34.52a3,3,0,0,0-1-2.26L140.31,15.47a3,3,0,0,0-2-.74Z"/><path class="cls-1" d="M115.31,5.5a2.5,2.5,0,0,1,2.5,2.5V62.94H94.92a13,13,0,0,0-25.58,0H62.87a2.5,2.5,0,0,1-2.5-2.5V8a2.5,2.5,0,0,1,2.5-2.5h52.44m0-.5H62.87a3,3,0,0,0-3,3V60.44a3,3,0,0,0,3,3h6.88l.08-.4a12.53,12.53,0,0,1,24.6,0l.08.4h23.81V8a3,3,0,0,0-3-3Z"/><path class="cls-1" d="M141.1,78.73a13.3,13.3,0,0,1-13-10.54h-33a13.28,13.28,0,0,1-26,0H62.87a7.76,7.76,0,0,1-7.75-7.75V8A7.76,7.76,0,0,1,62.87.25h52.44A7.76,7.76,0,0,1,123.06,8v2h15.27a7.75,7.75,0,0,1,5.1,1.92l19.19,16.79a7.75,7.75,0,0,1,2.65,5.83V60.44a7.76,7.76,0,0,1-7.75,7.75h-3.43A13.31,13.31,0,0,1,141.1,78.73Zm0-21.07A7.8,7.8,0,1,0,148.49,63,7.77,7.77,0,0,0,141.1,57.66Zm-59,0A7.8,7.8,0,1,0,89.52,63,7.77,7.77,0,0,0,82.13,57.66Zm75.4,5a2.25,2.25,0,0,0,2.25-2.25V34.52a2.25,2.25,0,0,0-.77-1.69L139.82,16a2.25,2.25,0,0,0-1.48-.56H123.06V62.69h5a13.28,13.28,0,0,1,26,0Zm-40,0V8a2.25,2.25,0,0,0-2.25-2.25H62.87A2.25,2.25,0,0,0,60.62,8V60.44a2.25,2.25,0,0,0,2.25,2.25h6.26a13.28,13.28,0,0,1,26,0Z"/><path class="cls-1" d="M115.31.5a7.51,7.51,0,0,1,7.5,7.5v2.22h15.52a7.5,7.5,0,0,1,4.94,1.86l19.19,16.8A7.5,7.5,0,0,1,165,34.52V60.44a7.51,7.51,0,0,1-7.5,7.5h-3.64a13,13,0,0,1-25.58,0H94.92a13,13,0,0,1-25.58,0H62.87a7.51,7.51,0,0,1-7.5-7.5V8A7.51,7.51,0,0,1,62.87.5h52.44M62.87,62.94h6.47a13,13,0,0,1,25.58,0h22.89V8a2.5,2.5,0,0,0-2.5-2.5H62.87A2.5,2.5,0,0,0,60.37,8V60.44a2.5,2.5,0,0,0,2.5,2.5m59.94,0h5.5a13,13,0,0,1,25.58,0h3.64a2.5,2.5,0,0,0,2.5-2.5V34.52a2.5,2.5,0,0,0-.85-1.88L140,15.84a2.5,2.5,0,0,0-1.65-.62H122.81V62.94M141.1,73.48a8.05,8.05,0,1,0-7.63-5.54,8,8,0,0,0,7.63,5.54m-59,0a8.05,8.05,0,1,0-7.63-5.54,8,8,0,0,0,7.63,5.54M115.31,0H62.87a8,8,0,0,0-8,8V60.44a8,8,0,0,0,8,8h6.06a13.53,13.53,0,0,0,26.39,0H127.9a13.53,13.53,0,0,0,26.39,0h3.23a8,8,0,0,0,8-8V34.52a8,8,0,0,0-2.73-6L143.6,11.7a8,8,0,0,0-5.27-2h-15V8a8,8,0,0,0-8-8ZM62.87,62.44a2,2,0,0,1-2-2V8a2,2,0,0,1,2-2h52.44a2,2,0,0,1,2,2V62.44h-22a13.53,13.53,0,0,0-26.39,0Zm60.44-46.72h15a2,2,0,0,1,1.32.5L158.84,33a2,2,0,0,1,.68,1.5V60.44a2,2,0,0,1-2,2h-3.23a13.53,13.53,0,0,0-26.39,0h-4.59V15.72ZM141.1,73a7.55,7.55,0,1,1,7.16-5.19A7.52,7.52,0,0,1,141.1,73Zm-59,0a7.55,7.55,0,1,1,7.16-5.19A7.52,7.52,0,0,1,82.13,73Z"/><path class="cls-2" d="M45,21.38H35.38a3,3,0,0,1,0-6H45a3,3,0,0,1,0,6Z"/><path class="cls-2" d="M45,36.12H18.71a3,3,0,0,1,0-6H45a3,3,0,0,1,0,6Z"/><path class="cls-2" d="M45,53.06H3a3,3,0,0,1,0-6H45a3,3,0,0,1,0,6Z"/></g></g></svg>