<svg xmlns="http://www.w3.org/2000/svg" viewBox="-5432.358 1930 100.508 90.936"><defs><style>.a{fill:#5b6670;}</style></defs><g transform="translate(-5438.358 1920)"><path class="a" d="M59.453,33.93H40.309a2.4,2.4,0,0,1-2.393-2.393V12.393A2.4,2.4,0,0,1,40.309,10H59.453a2.4,2.4,0,0,1,2.393,2.393V31.537A2.4,2.4,0,0,1,59.453,33.93ZM42.7,29.144H57.06V14.786H42.7Z" transform="translate(6.272)"/><path class="a" d="M13.916,18H42.632v4.786H13.916Z" transform="translate(1.556 1.572)"/><path class="a" d="M57.916,18H86.632v4.786H57.916Z" transform="translate(10.203 1.572)"/><path class="a" d="M85.179,28.358a7.179,7.179,0,1,1,7.179-7.179A7.185,7.185,0,0,1,85.179,28.358Zm0-9.572a2.393,2.393,0,1,0,2.393,2.393A2.4,2.4,0,0,0,85.179,18.786Z" transform="translate(14.149 0.786)"/><path class="a" d="M13.179,28.358a7.179,7.179,0,1,1,7.179-7.179A7.185,7.185,0,0,1,13.179,28.358Zm0-9.572a2.393,2.393,0,1,0,2.393,2.393A2.4,2.4,0,0,0,13.179,18.786Z" transform="translate(0 0.786)"/><path class="a" d="M93.381,64.378a2.4,2.4,0,0,1-2.393-2.393A39.789,39.789,0,0,0,58.045,22.7a2.393,2.393,0,0,1,.823-4.714A44.563,44.563,0,0,1,95.774,61.98a2.392,2.392,0,0,1-2.393,2.4Z" transform="translate(9.839 1.562)"/><path class="a" d="M8.969,64.377a2.4,2.4,0,0,1-2.393-2.393,44.556,44.556,0,0,1,36.91-43.994,2.388,2.388,0,1,1,.823,4.7A39.793,39.793,0,0,0,11.362,61.984a2.394,2.394,0,0,1-2.393,2.393Z" transform="translate(0.113 1.562)"/><path class="a" d="M67.4,93.312a2.616,2.616,0,0,1-.589-.077,2.378,2.378,0,0,1-1.723-2.905L70.8,67.711,51.85,38.746,32.893,67.711,38.612,90.33a2.39,2.39,0,0,1-4.633,1.177L28,67.874a2.359,2.359,0,0,1,.316-1.9l21.537-32.9a2.483,2.483,0,0,1,4,0l21.537,32.9a2.314,2.314,0,0,1,.316,1.9L69.721,91.508a2.4,2.4,0,0,1-2.321,1.8Z" transform="translate(4.308 4.336)"/><path class="a" d="M48.309,79.075a2.4,2.4,0,0,1-2.393-2.393V38.393a2.393,2.393,0,1,1,4.786,0V76.682A2.4,2.4,0,0,1,48.309,79.075Z" transform="translate(7.844 5.11)"/><path class="a" d="M49.1,82.11a7.179,7.179,0,1,1,7.179-7.179A7.191,7.191,0,0,1,49.1,82.11Zm0-9.572a2.393,2.393,0,1,0,2.393,2.393A2.4,2.4,0,0,0,49.1,72.538Z" transform="translate(7.058 11.349)"/><path class="a" d="M73.384,86.786H30.309a2.393,2.393,0,1,1,0-4.786H73.384a2.393,2.393,0,1,1,0,4.786Z" transform="translate(4.307 14.149)"/></g></svg>