<?xml version="1.0" encoding="utf-8"?>
<!-- Generator: Adobe Illustrator 20.0.0, SVG Export Plug-In . SVG Version: 6.00 Build 0)  -->
<svg version="1.1" id="Layer_1" xmlns="http://www.w3.org/2000/svg" xmlns:xlink="http://www.w3.org/1999/xlink" x="0px" y="0px"
	 viewBox="0 0 18 24" style="enable-background:new 0 0 18 24;" xml:space="preserve">
<style type="text/css">
	.st0{fill:#FFFFFF;}
</style>
<g>
	<path class="st0" d="M16,8h-1v2h1v5H2v-5h1V8H2c-1.1,0-2,0.9-2,2v9c0,1.1,0.9,2,2,2h6v1H6c-0.6,0-1,0.4-1,1v0c0,0.6,0.4,1,1,1h6
		c0.6,0,1-0.4,1-1v0c0-0.6-0.4-1-1-1h-2v-1h6c1.1,0,2-0.9,2-2v-9C18,8.9,17.1,8,16,8z M2,19v-2h14v2H2z"/>
	<path class="st0" d="M13,7L13,7c-0.4-0.4-1-0.4-1.4,0L10,8.6V1c0-0.6-0.4-1-1-1h0C8.4,0,8,0.4,8,1v7.6L6.4,7C6,6.6,5.4,6.6,5,7l0,0
		C4.6,7.4,4.6,8,5,8.4l3.3,3.3c0.4,0.4,1,0.4,1.4,0L13,8.4C13.4,8,13.4,7.4,13,7z"/>
</g>
</svg>
