<?xml version="1.0" encoding="utf-8"?>
<!-- Generator: Adobe Illustrator 20.0.0, SVG Export Plug-In . SVG Version: 6.00 Build 0)  -->
<svg version="1.1" id="Layer_1" xmlns="http://www.w3.org/2000/svg" xmlns:xlink="http://www.w3.org/1999/xlink" x="0px" y="0px"
	 viewBox="0 0 13 14" style="enable-background:new 0 0 13 14;" xml:space="preserve">
<style type="text/css">
	.st0{fill:#FFFFFF;}
</style>
<path class="st0" d="M10,10.5c0-0.1,0-0.3-0.1-0.4C9.8,10,9.6,10,9.5,10s-0.3,0.1-0.4,0.1C9,10.2,9,10.4,9,10.5s0,0.3,0.1,0.4
	C9.2,10.9,9.4,11,9.5,11s0.3,0,0.4-0.1C10,10.8,10,10.6,10,10.5z M12,10.5c0-0.1,0-0.3-0.1-0.4C11.8,10,11.6,10,11.5,10
	s-0.3,0.1-0.4,0.1C11,10.2,11,10.4,11,10.5s0,0.3,0.1,0.4c0.1,0.1,0.2,0.1,0.4,0.1s0.3,0,0.4-0.1C12,10.8,12,10.6,12,10.5z M13,8.8
	v2.5c0,0.2-0.1,0.4-0.2,0.5c-0.1,0.1-0.3,0.2-0.5,0.2H0.8c-0.2,0-0.4-0.1-0.5-0.2C0.1,11.6,0,11.5,0,11.2V8.8c0-0.2,0.1-0.4,0.2-0.5
	S0.5,8,0.8,8h3.6l1.1,1.1c0.3,0.3,0.7,0.4,1.1,0.4s0.8-0.1,1.1-0.4L8.6,8h3.6c0.2,0,0.4,0.1,0.5,0.2C12.9,8.4,13,8.5,13,8.8L13,8.8z
	 M10.5,4.3c0.1,0.2,0.1,0.4-0.1,0.5L6.9,8.4C6.8,8.5,6.6,8.5,6.5,8.5s-0.3,0-0.4-0.1L2.6,4.9C2.5,4.7,2.5,4.5,2.5,4.3
	C2.6,4.1,2.8,4,3,4h2V0.5c0-0.1,0-0.3,0.1-0.4S5.4,0,5.5,0h2c0.1,0,0.3,0,0.4,0.1C8,0.2,8,0.4,8,0.5V4h2C10.2,4,10.4,4.1,10.5,4.3z"
	/>
</svg>
