<svg xmlns="http://www.w3.org/2000/svg" viewBox="-6057.844 1934 109.687 97.344"><defs><style>.a{fill:#5b6670;}</style></defs><g transform="translate(-6059.935 1926.74)"><path class="a" d="M35.336,73.749A33.244,33.244,0,1,1,68.581,40.5,33.283,33.283,0,0,1,35.336,73.749Zm0-61.715A28.466,28.466,0,1,0,63.8,40.5,28.5,28.5,0,0,0,35.336,12.034Z"/><path class="a" d="M71.5,73.749A33.244,33.244,0,1,1,104.741,40.5,33.283,33.283,0,0,1,71.5,73.749Zm0-61.715A28.466,28.466,0,1,0,99.962,40.5,28.5,28.5,0,0,0,71.5,12.034Z" transform="translate(7.038)"/><path class="a" d="M53.416,99.577A33.244,33.244,0,1,1,86.661,66.332,33.283,33.283,0,0,1,53.416,99.577Zm0-61.715A28.471,28.471,0,1,0,81.882,66.337,28.5,28.5,0,0,0,53.416,37.862Z" transform="translate(3.519 5.027)"/></g></svg>