<?xml version="1.0" encoding="utf-8"?>
<!-- Generator: Adobe Illustrator 20.0.0, SVG Export Plug-In . SVG Version: 6.00 Build 0)  -->
<svg version="1.1" id="Layer_1" xmlns="http://www.w3.org/2000/svg" xmlns:xlink="http://www.w3.org/1999/xlink" x="0px" y="0px"
	 viewBox="0 0 24 28" style="enable-background:new 0 0 24 28;" xml:space="preserve">
<style type="text/css">
	.st0{fill:#FFFFFF;}
</style>
<path class="st0" d="M22.7,2c0.4,0,0.7,0.1,0.9,0.4S24,3,24,3.3v21.3c0,0.4-0.1,0.7-0.4,0.9S23,26,22.7,26h-6.1v-9.3h3.1l0.5-3.6
	h-3.6v-2.3c0-0.6,0.1-1,0.4-1.3S17.7,9,18.4,9l1.9,0V5.8c-0.7-0.1-1.6-0.1-2.8-0.1c-1.4,0-2.5,0.4-3.4,1.2c-0.8,0.8-1.3,2-1.3,3.5
	v2.7H9.7v3.6h3.1V26H1.3c-0.4,0-0.7-0.1-0.9-0.4C0.1,25.3,0,25,0,24.7V3.3C0,3,0.1,2.7,0.4,2.4S1,2,1.3,2L22.7,2L22.7,2z"/>
</svg>
