<svg xmlns="http://www.w3.org/2000/svg" viewBox="1618.603 -15857.646 120.794 88.821">
  <defs>
    <style>
      .cls-1 {
        fill: #5b6670;
      }

      .cls-2 {
        fill: #00c4b3;
      }
    </style>
  </defs>
  <g id="feature-1" transform="translate(1618.603 -15869.885)">
    <rect id="rectangle" class="cls-1" width="14.213" height="3.553" transform="translate(0 60.2)"/>
    <rect id="rectangle-2" data-name="rectangle" class="cls-1" width="14.213" height="3.551" transform="translate(0 65.531)"/>
    <rect id="rectangle-3" data-name="rectangle" class="cls-1" width="14.213" height="3.551" transform="translate(0 70.862)"/>
    <rect id="rectangle-4" data-name="rectangle" class="cls-1" width="14.213" height="3.554" transform="translate(0 76.189)"/>
    <rect id="rectangle-5" data-name="rectangle" class="cls-1" width="14.213" height="3.551" transform="translate(0 81.519)"/>
    <rect id="rectangle-6" data-name="rectangle" class="cls-1" width="14.213" height="3.551" transform="translate(0 86.849)"/>
    <rect id="rectangle-7" data-name="rectangle" class="cls-1" width="14.213" height="3.553" transform="translate(0 92.178)"/>
    <rect id="rectangle-8" data-name="rectangle" class="cls-1" width="14.213" height="3.556" transform="translate(0 97.504)"/>
    <rect id="rectangle-9" data-name="rectangle" class="cls-1" width="14.213" height="3.553" transform="translate(21.317 60.2)"/>
    <rect id="rectangle-10" data-name="rectangle" class="cls-1" width="14.213" height="3.551" transform="translate(21.317 65.531)"/>
    <rect id="rectangle-11" data-name="rectangle" class="cls-1" width="14.213" height="3.551" transform="translate(21.317 70.862)"/>
    <rect id="rectangle-12" data-name="rectangle" class="cls-1" width="14.213" height="3.554" transform="translate(21.317 76.189)"/>
    <rect id="rectangle-13" data-name="rectangle" class="cls-1" width="14.213" height="3.551" transform="translate(21.317 81.519)"/>
    <rect id="rectangle-14" data-name="rectangle" class="cls-1" width="14.213" height="3.551" transform="translate(21.317 86.849)"/>
    <rect id="rectangle-15" data-name="rectangle" class="cls-1" width="14.213" height="3.553" transform="translate(21.317 92.178)"/>
    <rect id="rectangle-16" data-name="rectangle" class="cls-1" width="14.213" height="3.556" transform="translate(21.317 97.504)"/>
    <rect id="rectangle-17" data-name="rectangle" class="cls-2" width="14.211" height="3.553" transform="translate(42.633 60.2)"/>
    <rect id="rectangle-18" data-name="rectangle" class="cls-2" width="14.211" height="3.551" transform="translate(42.633 65.531)"/>
    <rect id="rectangle-19" data-name="rectangle" class="cls-2" width="14.211" height="3.551" transform="translate(42.633 70.862)"/>
    <rect id="rectangle-20" data-name="rectangle" class="cls-2" width="14.211" height="3.554" transform="translate(42.633 76.189)"/>
    <rect id="rectangle-21" data-name="rectangle" class="cls-2" width="14.211" height="3.551" transform="translate(42.633 81.519)"/>
    <rect id="rectangle-22" data-name="rectangle" class="cls-2" width="14.211" height="3.551" transform="translate(42.633 86.849)"/>
    <rect id="rectangle-23" data-name="rectangle" class="cls-2" width="14.211" height="3.553" transform="translate(42.633 92.178)"/>
    <rect id="rectangle-24" data-name="rectangle" class="cls-2" width="14.211" height="3.556" transform="translate(42.633 97.504)"/>
    <rect id="rectangle-25" data-name="rectangle" class="cls-1" width="14.211" height="3.553" transform="translate(63.95 60.2)"/>
    <rect id="rectangle-26" data-name="rectangle" class="cls-1" width="14.211" height="3.551" transform="translate(63.95 65.531)"/>
    <rect id="rectangle-27" data-name="rectangle" class="cls-1" width="14.211" height="3.551" transform="translate(63.95 70.862)"/>
    <rect id="rectangle-28" data-name="rectangle" class="cls-1" width="14.211" height="3.554" transform="translate(63.95 76.189)"/>
    <rect id="rectangle-29" data-name="rectangle" class="cls-1" width="14.211" height="3.551" transform="translate(63.95 81.519)"/>
    <rect id="rectangle-30" data-name="rectangle" class="cls-1" width="14.211" height="3.551" transform="translate(63.95 86.849)"/>
    <rect id="rectangle-31" data-name="rectangle" class="cls-1" width="14.211" height="3.553" transform="translate(63.95 92.178)"/>
    <rect id="rectangle-32" data-name="rectangle" class="cls-1" width="14.211" height="3.556" transform="translate(63.95 97.504)"/>
    <rect id="rectangle-33" data-name="rectangle" class="cls-2" width="14.211" height="3.551" transform="translate(42.633 33.557)"/>
    <rect id="rectangle-34" data-name="rectangle" class="cls-2" width="14.211" height="3.553" transform="translate(42.633 38.885)"/>
    <rect id="rectangle-35" data-name="rectangle" class="cls-2" width="14.211" height="3.553" transform="translate(42.633 44.214)"/>
    <rect id="rectangle-36" data-name="rectangle" width="14.211" height="0.001" transform="translate(42.633 44.213)"/>
    <rect id="rectangle-37" data-name="rectangle" class="cls-2" width="14.211" height="3.551" transform="translate(42.633 49.544)"/>
    <rect id="rectangle-38" data-name="rectangle" class="cls-2" width="14.211" height="3.549" transform="translate(42.633 54.875)"/>
    <rect id="rectangle-39" data-name="rectangle" class="cls-1" width="14.211" height="3.553" transform="translate(63.95 44.214)"/>
    <rect id="rectangle-40" data-name="rectangle" class="cls-1" width="14.211" height="3.551" transform="translate(63.95 49.544)"/>
    <rect id="rectangle-41" data-name="rectangle" class="cls-1" width="14.211" height="3.549" transform="translate(63.95 54.875)"/>
    <rect id="rectangle-42" data-name="rectangle" class="cls-2" width="14.211" height="3.553" transform="translate(42.633 22.898)"/>
    <rect id="rectangle-43" data-name="rectangle" class="cls-2" width="14.211" height="3.551" transform="translate(42.633 28.227)"/>
    <rect id="rectangle-44" data-name="rectangle" width="14.211" height="0.001" transform="translate(42.633 33.556)"/>
    <rect id="rectangle-45" data-name="rectangle" class="cls-1" width="14.213" height="3.553" transform="translate(0 44.214)"/>
    <rect id="rectangle-46" data-name="rectangle" class="cls-1" width="14.213" height="3.551" transform="translate(0 49.544)"/>
    <rect id="rectangle-47" data-name="rectangle" class="cls-1" width="14.213" height="3.549" transform="translate(0 54.875)"/>
    <rect id="rectangle-48" data-name="rectangle" class="cls-1" width="14.213" height="3.553" transform="translate(106.582 60.2)"/>
    <rect id="rectangle-49" data-name="rectangle" class="cls-1" width="14.213" height="3.549" transform="translate(106.582 54.875)"/>
    <rect id="rectangle-50" data-name="rectangle" class="cls-1" width="14.213" height="3.551" transform="translate(106.582 49.544)"/>
    <rect id="rectangle-51" data-name="rectangle" class="cls-1" width="14.213" height="3.554" transform="translate(85.266 76.189)"/>
    <rect id="rectangle-52" data-name="rectangle" class="cls-1" width="14.213" height="3.551" transform="translate(85.266 81.519)"/>
    <rect id="rectangle-53" data-name="rectangle" class="cls-1" width="14.213" height="3.551" transform="translate(85.266 86.849)"/>
    <rect id="rectangle-54" data-name="rectangle" class="cls-1" width="14.213" height="3.553" transform="translate(85.266 92.178)"/>
    <rect id="rectangle-55" data-name="rectangle" class="cls-1" width="14.213" height="3.556" transform="translate(85.266 97.504)"/>
    <rect id="rectangle-56" data-name="rectangle" class="cls-1" width="14.213" height="3.553" transform="translate(106.582 92.178)"/>
    <rect id="rectangle-57" data-name="rectangle" class="cls-1" width="14.213" height="3.553" transform="translate(106.582 97.508)"/>
    <rect id="rectangle-58" data-name="rectangle" class="cls-1" width="14.213" height="3.551" transform="translate(106.582 65.531)"/>
    <rect id="rectangle-59" data-name="rectangle" class="cls-1" width="14.213" height="3.551" transform="translate(106.582 70.862)"/>
    <rect id="rectangle-60" data-name="rectangle" class="cls-1" width="14.213" height="3.554" transform="translate(106.582 76.189)"/>
    <rect id="rectangle-61" data-name="rectangle" class="cls-1" width="14.213" height="3.551" transform="translate(106.582 81.519)"/>
    <rect id="rectangle-62" data-name="rectangle" class="cls-1" width="14.213" height="3.551" transform="translate(106.582 86.849)"/>
    <rect id="rectangle-63" data-name="rectangle" class="cls-1" width="14.213" height="3.551" transform="translate(85.266 70.862)"/>
    <rect id="rectangle-64" data-name="rectangle" class="cls-1" width="14.213" height="3.551" transform="translate(85.266 65.531)"/>
    <rect id="rectangle-65" data-name="rectangle" class="cls-1" width="14.211" height="3.553" transform="translate(63.95 38.885)"/>
    <rect id="rectangle-66" data-name="rectangle" class="cls-1" width="14.211" height="3.551" transform="translate(63.95 33.557)"/>
    <rect id="rectangle-67" data-name="rectangle" class="cls-2" width="14.211" height="3.553" transform="translate(42.633 17.568)"/>
    <rect id="rectangle-68" data-name="rectangle" class="cls-2" width="14.211" height="3.551" transform="translate(42.633 12.239)"/>
    <rect id="rectangle-69" data-name="rectangle" class="cls-1" width="14.213" height="3.549" transform="translate(21.317 54.875)"/>
    <rect id="rectangle-70" data-name="rectangle" class="cls-1" width="14.213" height="3.551" transform="translate(21.317 49.544)"/>
    <rect id="rectangle-71" data-name="rectangle" class="cls-1" width="14.213" height="3.553" transform="translate(0 38.885)"/>
    <rect id="rectangle-72" data-name="rectangle" class="cls-1" width="14.213" height="3.551" transform="translate(0 33.557)"/>
  </g>
</svg>
