<svg xmlns="http://www.w3.org/2000/svg" viewBox="0 0 124.7 95.8"><defs><style>.cls-1{fill:#00c4b3;}.cls-2{fill:#5c666f;}</style></defs><title>feature-prioritize</title><g id="Layer_2" data-name="Layer 2"><g id="Layer_1-2" data-name="Layer 1"><path class="cls-1" d="M20.62,5V20.62H5V5H20.62m2.16-5H2.84A2.84,2.84,0,0,0,0,2.84V22.77a2.84,2.84,0,0,0,2.84,2.84H22.77a2.84,2.84,0,0,0,2.84-2.84V2.84A2.84,2.84,0,0,0,22.77,0Z"/><path class="cls-1" d="M119.7,8.13v9.37H42.82V8.13H119.7m2.12-5H40.7A2.88,2.88,0,0,0,37.82,6V19.61a2.88,2.88,0,0,0,2.88,2.88h81.13a2.88,2.88,0,0,0,2.88-2.88V6a2.88,2.88,0,0,0-2.88-2.88Z"/><path class="cls-2" d="M16,38.65v6.47H9.57V38.65H16m2.16-5H7.42a2.84,2.84,0,0,0-2.84,2.84V47.27a2.84,2.84,0,0,0,2.84,2.84H18.2A2.84,2.84,0,0,0,21,47.27V36.49a2.84,2.84,0,0,0-2.84-2.84Z"/><path class="cls-2" d="M104.81,38.65v6h-62v-6h62m1.85-5H41a3.15,3.15,0,0,0-3.15,3.15v9.7A3.15,3.15,0,0,0,41,49.65h65.69a3.15,3.15,0,0,0,3.15-3.15V36.8a3.15,3.15,0,0,0-3.15-3.15Z"/><path class="cls-2" d="M16,61.76v6.47H9.57V61.76H16m2.16-5H7.42A2.84,2.84,0,0,0,4.57,59.6V70.38a2.84,2.84,0,0,0,2.84,2.84H18.2A2.84,2.84,0,0,0,21,70.38V59.6a2.84,2.84,0,0,0-2.84-2.84Z"/><path class="cls-2" d="M94.41,61.76v6.47H42.82V61.76H94.41m1.79-5H41A3.21,3.21,0,0,0,37.82,60V70A3.21,3.21,0,0,0,41,73.23H96.2A3.21,3.21,0,0,0,99.41,70V60a3.21,3.21,0,0,0-3.21-3.21Z"/><path class="cls-2" d="M16,84.33V90.8H9.57V84.33H16m2.16-5H7.42a2.84,2.84,0,0,0-2.84,2.84V93A2.84,2.84,0,0,0,7.42,95.8H18.2A2.84,2.84,0,0,0,21,93V82.17a2.84,2.84,0,0,0-2.84-2.84Z"/><path class="cls-2" d="M81.79,83.95v6.8h-39v-6.8h39m1.82-5H41a3.18,3.18,0,0,0-3.18,3.18V92.57A3.18,3.18,0,0,0,41,95.75H83.61a3.18,3.18,0,0,0,3.18-3.18V82.12a3.18,3.18,0,0,0-3.18-3.18Z"/></g></g></svg>