<?xml version="1.0" encoding="utf-8"?>
<!-- Generator: Adobe Illustrator 20.0.0, SVG Export Plug-In . SVG Version: 6.00 Build 0)  -->
<svg version="1.1" id="Layer_1" xmlns="http://www.w3.org/2000/svg" xmlns:xlink="http://www.w3.org/1999/xlink" x="0px" y="0px"
	 viewBox="0 0 24 28" style="enable-background:new 0 0 24 28;" xml:space="preserve">
<style type="text/css">
	.st0{fill:#FFFFFF;}
</style>
<path class="st0" d="M16,14c0-1.1-0.4-2-1.2-2.8C14,10.4,13.1,10,12,10s-2,0.4-2.8,1.2C8.4,12,8,12.9,8,14s0.4,2,1.2,2.8
	C10,17.6,10.9,18,12,18s2-0.4,2.8-1.2C15.6,16,16,15.1,16,14z M18.2,14c0,1.7-0.6,3.2-1.8,4.4s-2.7,1.8-4.4,1.8s-3.2-0.6-4.4-1.8
	S5.8,15.7,5.8,14c0-1.7,0.6-3.2,1.8-4.4s2.7-1.8,4.4-1.8c1.7,0,3.2,0.6,4.4,1.8S18.2,12.3,18.2,14z M19.8,7.6c0,0.4-0.1,0.7-0.4,1
	c-0.3,0.3-0.6,0.4-1,0.4s-0.7-0.1-1-0.4C17.1,8.3,17,8,17,7.6s0.1-0.7,0.4-1c0.3-0.3,0.6-0.4,1-0.4s0.7,0.1,1,0.4
	C19.7,6.9,19.8,7.2,19.8,7.6z M12,4.2c-0.1,0-0.5,0-1.2,0c-0.7,0-1.3,0-1.6,0c-0.4,0-0.9,0-1.5,0S6.5,4.3,6,4.4S5.2,4.5,4.9,4.6
	c-0.5,0.2-1,0.5-1.4,0.9C3.2,5.9,2.9,6.4,2.6,6.9C2.5,7.2,2.4,7.6,2.4,8C2.3,8.5,2.2,9,2.2,9.6c0,0.6,0,1.1,0,1.5c0,0.4,0,0.9,0,1.6
	s0,1.1,0,1.2c0,0.1,0,0.5,0,1.2c0,0.7,0,1.3,0,1.6c0,0.4,0,0.9,0,1.5c0,0.6,0.1,1.2,0.2,1.6c0.1,0.4,0.2,0.8,0.3,1.1
	c0.2,0.5,0.5,1,0.9,1.4c0.4,0.4,0.9,0.7,1.4,0.9c0.3,0.1,0.7,0.2,1.1,0.3s1,0.1,1.6,0.2c0.6,0,1.1,0,1.5,0s0.9,0,1.6,0s1.1,0,1.2,0
	c0.1,0,0.5,0,1.2,0s1.3,0,1.6,0c0.4,0,0.9,0,1.5,0c0.6,0,1.2-0.1,1.6-0.2s0.8-0.2,1.1-0.3c0.5-0.2,1-0.5,1.4-0.9
	c0.4-0.4,0.7-0.9,0.9-1.4c0.1-0.3,0.2-0.7,0.3-1.1c0.1-0.4,0.1-1,0.2-1.6s0-1.1,0-1.5s0-0.9,0-1.6c0-0.7,0-1.1,0-1.2
	c0-0.1,0-0.5,0-1.2c0-0.7,0-1.3,0-1.6c0-0.4,0-0.9,0-1.5S21.7,8.5,21.6,8c-0.1-0.4-0.2-0.8-0.3-1.1c-0.2-0.5-0.5-1-0.9-1.4
	s-0.9-0.7-1.4-0.9c-0.3-0.1-0.7-0.2-1.1-0.3s-1-0.1-1.6-0.2c-0.6,0-1.1,0-1.5,0c-0.4,0-0.9,0-1.6,0S12.1,4.2,12,4.2z M24,14
	c0,2.4,0,4-0.1,5c-0.1,2.2-0.7,3.8-1.9,5c-1.2,1.2-2.9,1.8-5,1.9C16,26,14.4,26,12,26s-4,0-5-0.1c-2.2-0.1-3.8-0.7-5-1.9
	c-1.2-1.2-1.8-2.9-1.9-5C0,18,0,16.4,0,14s0-4,0.1-5C0.2,6.9,0.8,5.2,2,4s2.9-1.8,5-1.9C8,2,9.6,2,12,2s4,0,5,0.1
	c2.2,0.1,3.8,0.7,5,1.9c1.2,1.2,1.8,2.9,1.9,5C24,10,24,11.6,24,14z"/>
</svg>
