<svg xmlns="http://www.w3.org/2000/svg" viewBox="0 0 38.95 81.76"><defs><style>.cls-1{fill:#5c666f;}</style></defs><title>interaction-design</title><g id="Layer_2" data-name="Layer 2"><g id="Layer_1-2" data-name="Layer 1"><path class="cls-1" d="M33.3,10.26h.62a3,3,0,0,1,3,3V76.73a3,3,0,0,1-3,3H5a3,3,0,0,1-3-3V13.24a3,3,0,0,1,3-3v-2a5,5,0,0,0-5,5V76.73a5,5,0,0,0,5,5H33.92a5,5,0,0,0,5-5V13.24a5,5,0,0,0-5-5h-.73Z"/><rect class="cls-1" x="10.15" y="8.86" width="18.65" height="2.67"/><rect class="cls-1" x="14.12" y="14.28" width="10.71" height="1.32"/><rect class="cls-1" x="14.12" y="26.4" width="10.71" height="1.32"/><rect class="cls-1" x="5.94" y="21.46" width="27.08" height="0.81"/><rect class="cls-1" x="11.16" y="69.65" width="14.26" height="0.96"/><circle class="cls-1" cx="19.76" cy="38.69" r="4.92"/><circle class="cls-1" cx="19.76" cy="65.67" r="4.92"/><path class="cls-1" d="M4.48,71h30V0h-30ZM6.28,1.79H32.67V69.19H6.28Z"/><path class="cls-1" d="M19.47,72.26a3.19,3.19,0,1,0,3.19,3.19A3.19,3.19,0,0,0,19.47,72.26Zm0,4.59a1.4,1.4,0,1,1,1.4-1.4A1.4,1.4,0,0,1,19.47,76.85Z"/><rect class="cls-1" x="12.87" y="48.19" width="13.69" height="1.79"/><rect class="cls-1" x="12.87" y="51.43" width="13.69" height="0.96"/><rect class="cls-1" x="12.87" y="52.93" width="13.03" height="0.96"/><rect class="cls-1" x="12.87" y="55.97" width="12.44" height="0.96"/><rect class="cls-1" x="12.87" y="54.41" width="13.78" height="0.96"/></g></g></svg>