<?xml version="1.0" encoding="utf-8"?>
<!-- Generator: Adobe Illustrator 20.0.0, SVG Export Plug-In . SVG Version: 6.00 Build 0)  -->
<svg version="1.1" id="Layer_1" xmlns="http://www.w3.org/2000/svg" xmlns:xlink="http://www.w3.org/1999/xlink" x="0px" y="0px"
	 viewBox="0 0 24 28" style="enable-background:new 0 0 24 28;" xml:space="preserve">
<style type="text/css">
	.st0{fill:#FFFFFF;}
</style>
<path class="st0" d="M3.7,22.1h3.6V11.2H3.7C3.7,11.2,3.7,22.1,3.7,22.1z M7.5,7.9c0-0.5-0.2-1-0.6-1.3C6.6,6.2,6.1,6,5.5,6
	S4.4,6.2,4.1,6.6S3.5,7.4,3.5,7.9c0,0.5,0.2,1,0.6,1.3s0.9,0.5,1.4,0.5h0c0.6,0,1.1-0.2,1.5-0.5S7.5,8.4,7.5,7.9z M16.7,22.1h3.6
	v-6.2c0-1.6-0.4-2.8-1.1-3.6c-0.8-0.8-1.8-1.2-3-1.2c-1.4,0-2.5,0.6-3.3,1.8h0v-1.6H9.3c0,0.7,0,4.3,0,10.8h3.6V16
	c0-0.4,0-0.7,0.1-0.9c0.2-0.4,0.4-0.7,0.7-0.9c0.3-0.3,0.7-0.4,1.2-0.4c1.2,0,1.8,0.8,1.8,2.5L16.7,22.1L16.7,22.1z M24,6.5v15
	c0,1.2-0.4,2.3-1.3,3.2S20.7,26,19.5,26h-15c-1.2,0-2.3-0.4-3.2-1.3S0,22.7,0,21.5v-15c0-1.2,0.4-2.3,1.3-3.2S3.3,2,4.5,2h15
	c1.2,0,2.3,0.4,3.2,1.3S24,5.3,24,6.5z"/>
</svg>
