<?xml version="1.0" encoding="utf-8"?>
<!-- Generator: Adobe Illustrator 20.0.0, SVG Export Plug-In . SVG Version: 6.00 Build 0)  -->
<svg version="1.1" id="Layer_1" xmlns="http://www.w3.org/2000/svg" xmlns:xlink="http://www.w3.org/1999/xlink" x="0px" y="0px"
	 viewBox="0 0 100 100" style="enable-background:new 0 0 100 100;" xml:space="preserve">
<style type="text/css">
	.st0{fill:#FFFFFF;}
</style>
<g>
	<g>
		<path class="st0" d="M50,5C29.6,5,13,21.6,13,42.1c0,9.4,3.5,18.4,10,25.3l17.8,22.8c4.5,6.3,14.1,6.5,18.5-0.2l17.5-22.5
			C83.4,60.6,87,51.6,87,42C87,21.6,70.4,5,50,5z M71.9,63.1C71.8,63.2,54,86,54,86c-0.1,0.1-0.1,0.1-0.2,0.2c-1.7,2.5-5.5,3-7.7,0
			C46.1,86.3,28,63,28,63c-5.3-5.6-8.3-13-8.3-21c0-16.7,13.6-30.3,30.3-30.3c16.7,0,30.3,13.6,30.3,30.5
			C80.3,50,77.3,57.4,71.9,63.1z M50,22c-11,0-20,9-20,20s9,20,20,20c11,0,20-9,20-20S61,22,50,22z M50,55.3
			c-7.4,0-13.3-6-13.3-13.3c0-7.4,6-13.3,13.3-13.3s13.3,6,13.3,13.3S57.3,55.3,50,55.3z"/>
	</g>
</g>
</svg>
