<svg xmlns="http://www.w3.org/2000/svg" viewBox="0 0 1114.8 720.82"><defs><style>.cls-1{fill:#757575;}.cls-2{fill:#212121;}.cls-3{fill:#b71c1c;}.cls-4{fill:#fff;}</style></defs><title>local-harvest-logo</title><g id="Layer_2" data-name="Layer 2"><g id="Layer_1-2" data-name="Layer 1"><rect class="cls-1" x="13.7" y="353.36" width="255.42" height="160.14" transform="translate(91.86 -19.78) rotate(11.83)"/><path class="cls-2" d="M44.69,347l220,46.08L238.14,519.83l-220-46.08L44.69,347M32.83,328.88,0,485.62,250,538l32.83-156.74-250-52.36Z"/><rect class="cls-1" x="845.67" y="353.36" width="255.42" height="160.14" transform="translate(2014.94 658.11) rotate(168.17)"/><path class="cls-2" d="M1070.1,347l26.54,126.72-220,46.08L850.12,393.1l220-46.08M1082,328.88,832,381.24,864.8,538l250-52.36L1082,328.88Z"/><path class="cls-3" d="M162.95,589.42,80.37,391.55a105.58,105.58,0,0,1,41.38-130.14L501,23.78a105.58,105.58,0,0,1,112.12,0L992.41,261.41a105.58,105.58,0,0,1,41.38,130.14L951.21,589.42a105.58,105.58,0,0,1-97.44,64.92H260.39A105.58,105.58,0,0,1,162.95,589.42Z"/><path class="cls-2" d="M853.77,662H260.38a113,113,0,0,1-104.51-69.63L73.29,394.5a112.87,112.87,0,0,1,44.39-139.58L496.94,17.28a113.26,113.26,0,0,1,120.26,0L996.48,254.92a112.88,112.88,0,0,1,44.39,139.58L958.28,592.37A113,113,0,0,1,853.77,662ZM557.08,15.33a97.84,97.84,0,0,0-52,14.94L125.82,267.91A97.59,97.59,0,0,0,87.45,388.6L170,586.46a97.68,97.68,0,0,0,90.37,60.2H853.77a97.66,97.66,0,0,0,90.36-60.2l82.58-197.87a97.59,97.59,0,0,0-38.37-120.69L609.07,30.27A97.81,97.81,0,0,0,557.08,15.33Z"/><path class="cls-4" d="M247.65,514.05a2.64,2.64,0,0,1,.07.67,4.42,4.42,0,0,1-.5,1.72,47.9,47.9,0,0,0-2.14,5.4,1.91,1.91,0,0,1-1.91,1.16,15.89,15.89,0,0,1-1.78-.24c-.49-.06-2-1.1-2-1.84,0-2.33,1.91-3.18,2.15-5,.07-.43.74-1.1.74-1.84s-.12-.92-.55-.92c-1.54,0-4.11,1.41-5.21,2.45-2.4,2.21-2.94,2.94-6.87,8.28-3.43,4.66-6,10.79-7.79,16.61a19.92,19.92,0,0,0-.3,3.56,4.22,4.22,0,0,0,.79,2.15c1,.86,1.66,1.78,2.64,1.78,3.49,0,8.16-3.74,12.14-7.73,1-1,1.23-1.22,2.34-1.22h1a2.23,2.23,0,0,1,2.09,1.16,1.81,1.81,0,0,1,.37,1c0,.3-.31.42-.8.92-4.54,4.35-8.76,9.74-15.32,9.74A14.42,14.42,0,0,1,222,551c-1.85-.86-4.72-3-5-4.72a30.45,30.45,0,0,1-.31-3.74,31.58,31.58,0,0,1,.8-6.13c3.43-9.69,9.32-20.78,18.7-26.24a14.79,14.79,0,0,1,5.09-1,5.83,5.83,0,0,1,2.64.55,2.62,2.62,0,0,1,.86.55C245.39,511.17,247.29,512.34,247.65,514.05Z"/><path class="cls-4" d="M266.06,525.64c2.46,0,3.86-.18,5.27-.18,2,0,3.8.61,3.8,1.6,0,.79-1.53,1-1.72,1.28s-.24.31-.67.37c-1.23.18-3,.8-4.6,1a14.6,14.6,0,0,1-2.39.18c-.5,0-.62.06-.74.49-1.6,6.56-3.8,12.26-7.73,16.43-1.72,1.84-3.37,3.62-5.51,3.62a3.56,3.56,0,0,1-1.48-.3c-2.33-1.1-4-2.46-4.59-3.86a14.13,14.13,0,0,1-.93-5.09c0-5,2.52-9.44,5.34-13.67.86-1.29.86-1,1.47-1.84,2-2.76,4.54-5.63,7.24-5.63a4.82,4.82,0,0,1,3.24,1.16c.49.43.68.55.86,1C263.48,523.8,264.28,525.64,266.06,525.64Zm-6.74-.24c-.19-.61-.37-1-.62-1a1.52,1.52,0,0,0-.92.61c-.24.3-.86.61-1.16,1-1.91,2.39-7.67,10-7.67,17.16a1.93,1.93,0,0,0,.18.85,5.82,5.82,0,0,0,1.48,2,.92.92,0,0,0,.55.12,2.06,2.06,0,0,0,1.17-.49c.43-.18.55-.37,1-1.1,3.55-5.33,6.87-10.11,6.87-16.31a9.75,9.75,0,0,0-.06-1.29.91.91,0,0,0-.37-.67A1.89,1.89,0,0,1,259.32,525.39Z"/><path class="cls-4" d="M276.25,522.88c.49-.73.43-.86,1-1.35a3.2,3.2,0,0,1,2.15-.61c1.41,0,2.21.37,2.45.92a3.49,3.49,0,0,1,.31,1.1,4.43,4.43,0,0,1-1.35,2.88,28.73,28.73,0,0,0-3.92,5.52,96.23,96.23,0,0,0-4.35,9.56,40.35,40.35,0,0,0-1.23,4.29c0,.24,0,.61.19.61.37,0,.61-.18,1-.8,8.28-11.77,12.81-14.22,14.16-17.1,1.1-2.33,1.35-2.52,2.15-2.52s1.22.55,2.21.61a1.67,1.67,0,0,1,1.22,1.65,4.75,4.75,0,0,1-.61,1.6,35.14,35.14,0,0,0-4.29,9.07,28.31,28.31,0,0,0-.74,5.52,10.84,10.84,0,0,0,.5,2.64c.18,1.1,1.72,1.9,2.14,2.21a1.82,1.82,0,0,1,.93,1.41,1.59,1.59,0,0,1-1.6,1.47,6.22,6.22,0,0,1-3.18-.86,13,13,0,0,1-2.4-2.15,6.16,6.16,0,0,1-1-3.8,14.9,14.9,0,0,1,.55-4.84c0-.12-.06-.24-.18-.24s-.19,0-.37.24c-2.52,3.31-4.17,5.39-5.64,7.48-1.29,1.84-1.78,1.78-2.64,2.7a3.5,3.5,0,0,1-2.27.67c-.74,0-3.62-1.84-4.42-2.82a3.49,3.49,0,0,1-.43-1.78c0-1.9.56-2.33.74-3.68.25-1.78,2-5.94,3-8.34A65.92,65.92,0,0,1,276.25,522.88Z"/><path class="cls-4" d="M302,522.88c.49-.73.43-.86,1-1.35a3.22,3.22,0,0,1,2.15-.61c1.42,0,2.21.37,2.46.92a3.77,3.77,0,0,1,.31,1.1,4.43,4.43,0,0,1-1.35,2.88,27.85,27.85,0,0,0-3.92,5.52,93.86,93.86,0,0,0-4.35,9.56,40.35,40.35,0,0,0-1.23,4.29c0,.24,0,.61.18.61.37,0,.62-.18,1-.8,8.28-11.77,12.81-14.22,14.15-17.1,1.11-2.33,1.35-2.52,2.15-2.52s1.23.55,2.21.61a1.67,1.67,0,0,1,1.23,1.65,4.82,4.82,0,0,1-.62,1.6,35.07,35.07,0,0,0-4.28,9.07,28.31,28.31,0,0,0-.74,5.52,11.42,11.42,0,0,0,.49,2.64c.18,1.1,1.72,1.9,2.15,2.21a1.83,1.83,0,0,1,.92,1.41,1.59,1.59,0,0,1-1.6,1.47,6.25,6.25,0,0,1-3.18-.86,12.61,12.61,0,0,1-2.39-2.15,6.16,6.16,0,0,1-1-3.8,14.65,14.65,0,0,1,.56-4.84c0-.12-.07-.24-.19-.24s-.18,0-.37.24c-2.52,3.31-4.16,5.39-5.64,7.48-1.29,1.84-1.78,1.78-2.64,2.7a3.5,3.5,0,0,1-2.27.67c-.74,0-3.61-1.84-4.41-2.82a3.39,3.39,0,0,1-.43-1.78c0-1.9.55-2.33.74-3.68.24-1.78,2-5.94,3-8.34A66.57,66.57,0,0,1,302,522.88Z"/><path class="cls-4" d="M329.55,551.26a6,6,0,0,1-2.34-.43,42.63,42.63,0,0,1-3.92-1.72,7.54,7.54,0,0,1-3.06-4.23,18.36,18.36,0,0,1-.73-4.72,7.19,7.19,0,0,1,.3-2c1.72-6.25,5.89-11.64,10.55-16.61a9.63,9.63,0,0,1,10.29-2.08c.68.24,2,1.35,2,3.8a9.79,9.79,0,0,1-1.42,4.41,11.84,11.84,0,0,1-2,2.88c-4.23,4.78-9,10.11-14.22,13-.3.18-.36.31-.36.49a3.73,3.73,0,0,0,1.47,2.58,3.79,3.79,0,0,0,1.9.49c1,0,2-.25,4.72-1.72,4.23-2.27,6.81-5.58,10.48-7.91a2,2,0,0,1,1.23-.43c.37,0,1.23.61,1.23,1.23a6.82,6.82,0,0,1-.06.8,1,1,0,0,1-.31.86c-2.94,2.51-4.23,5.57-13.55,10.73A3.46,3.46,0,0,1,329.55,551.26Zm7.91-28c0-.49,0-.73-.37-.73a2.45,2.45,0,0,0-1.29.55,5.45,5.45,0,0,0-1.23.8c-4,3.55-8.28,8.58-9.62,14,0,.24.06.31.12.31a.81.81,0,0,0,.43-.18,59,59,0,0,0,9.38-9.44c.92-1.1.68-1.29,1.47-2.52A4.87,4.87,0,0,0,337.45,523.25Z"/><path class="cls-4" d="M362.23,538.75c.86,0,2,1.41,2,1.6s-.24.36-.24.61a.65.65,0,0,1-.49.74,31.67,31.67,0,0,0-6.75,4.66c-3.43,2.76-6.5,4.54-9.07,4.54a8.16,8.16,0,0,1-6.19-3,6.3,6.3,0,0,1-.74-2.88,18.17,18.17,0,0,1,1-4.6,11.94,11.94,0,0,1,.73-2.39c3.19-6.37,7.61-13.86,12.76-16.43a1.64,1.64,0,0,1,1-.18,9.74,9.74,0,0,1,6.37,2.58c.25.24.25.36.25.85a3.85,3.85,0,0,0,.12.92,1.44,1.44,0,0,1-.06.43c-.18.73-2.09,3.61-2.09,5.76,0,.49-.36.92-1.16.92a1.87,1.87,0,0,1-1.23-.43l-1.6-1.16a1.62,1.62,0,0,1-.67-1.35c0-1.23,1.35-2.7,1.35-3.68,0-.24-.19-.61-.49-.61s-.49.12-1,.61a48.88,48.88,0,0,0-7.48,9.87c-2.15,3.8-3.55,7.85-3.55,9.38a1.15,1.15,0,0,0,1,1.29c2.81,0,5.7-1.59,8.69-3.86C357.44,540.9,360.51,538.75,362.23,538.75Z"/><path class="cls-4" d="M376.89,524.53a26.53,26.53,0,0,0-1.41,3.8c0,.12.12.18.24.18a13.83,13.83,0,0,0,1.54-.24,29.41,29.41,0,0,0,8.21-3.06,1.92,1.92,0,0,1,.68-.3c1,0,3,.86,3,1.59a2.86,2.86,0,0,1-2,2.33c-1.66.67-1.66.86-2.76,1.29-3,1.16-8.22,2.33-9.5,2.76a2,2,0,0,0-1.17.92,13.26,13.26,0,0,0-1,2.94c-.18.67-.55,1.29-.67,2-.37,2-2.46,7.23-2.82,10.3a4.1,4.1,0,0,1-1.53,2.58,2.46,2.46,0,0,1-.93.18,4.29,4.29,0,0,1-2.21-.67,1.77,1.77,0,0,1-.67-1.47,6.74,6.74,0,0,1,.24-1.84c1.54-4.54,2.64-9.87,4.6-14.59a1.62,1.62,0,0,0,.12-.43c0-.12-.06-.24-.3-.37-2.22-1.1-2.58-2.7-4-3.86a.85.85,0,0,1-.3-.73c0-.43.24-.55.73-.8a2.43,2.43,0,0,1,1.23-.3c1.35,0,2.88,1,4,1a1,1,0,0,0,1-.86c.18-.67.49-1.59,1-2.88,1.47-3.74,3.12-8.52,5.21-13,.37-.8.43-.8.67-.8,1,0,1.11-.3,1.72-.3a7.15,7.15,0,0,1,2.34.49c.3.12.55.24.55.43a3.75,3.75,0,0,1-.06.67C381.79,516.2,378.85,520.37,376.89,524.53Z"/><path class="cls-4" d="M391.11,548.38c-1.29,1.17-3.55,2.94-6.31,2.94-1.85,0-3.92-2.58-4.6-4.84a9.1,9.1,0,0,1-.31-2.58,13.84,13.84,0,0,1,1-5c.43-1.16.67-2.21,1-3.06,1.9-4.47,3.67-8.89,5.95-13.61a3.15,3.15,0,0,1,3.06-1.66,3.1,3.1,0,0,1,1.84.49,1,1,0,0,1,.49,1c0,3.25-2.52,4.78-3.92,7.78-1,2.27-2.76,6.44-3.61,8.7a20.85,20.85,0,0,0-1.48,6c0,.55.06,2,1.11,2,1.35,0,2-.37,4.47-2.09,1.47-1,1.9-1.35,2.88-1.35a2.64,2.64,0,0,1,1.53.43,1,1,0,0,1,.37.86c0,.67-.37,1-1,1.66Zm8.52-38.25a1.81,1.81,0,0,1-.31,1.1c-1.11,1.35-2.58,3-3.92,3A2.88,2.88,0,0,1,393,513a5,5,0,0,1-.43-2.08,4.29,4.29,0,0,1,.8-2.58,3.82,3.82,0,0,1,3-1,3.9,3.9,0,0,1,2.58.8A2.88,2.88,0,0,1,399.64,510.13Z"/><path class="cls-4" d="M401.61,522.88c.49-.73.43-.86,1-1.35a3.2,3.2,0,0,1,2.15-.61c1.41,0,2.21.37,2.45.92a3.49,3.49,0,0,1,.31,1.1,4.43,4.43,0,0,1-1.35,2.88,28.73,28.73,0,0,0-3.92,5.52,96.23,96.23,0,0,0-4.35,9.56,40.35,40.35,0,0,0-1.23,4.29c0,.24,0,.61.19.61.37,0,.61-.18,1-.8,8.28-11.77,12.81-14.22,14.16-17.1,1.1-2.33,1.35-2.52,2.15-2.52s1.22.55,2.21.61a1.67,1.67,0,0,1,1.22,1.65,4.75,4.75,0,0,1-.61,1.6,35.14,35.14,0,0,0-4.29,9.07,28.31,28.31,0,0,0-.74,5.52,10.84,10.84,0,0,0,.5,2.64c.18,1.1,1.72,1.9,2.14,2.21a1.82,1.82,0,0,1,.93,1.41,1.59,1.59,0,0,1-1.6,1.47,6.22,6.22,0,0,1-3.18-.86,13,13,0,0,1-2.4-2.15,6.16,6.16,0,0,1-1-3.8,14.9,14.9,0,0,1,.55-4.84c0-.12-.06-.24-.18-.24s-.19,0-.37.24c-2.52,3.31-4.17,5.39-5.64,7.48-1.29,1.84-1.78,1.78-2.64,2.7a3.5,3.5,0,0,1-2.27.67c-.74,0-3.62-1.84-4.42-2.82a3.49,3.49,0,0,1-.43-1.78c0-1.9.56-2.33.74-3.68.25-1.78,2-5.94,3-8.34A65.92,65.92,0,0,1,401.61,522.88Z"/><path class="cls-4" d="M435.32,543.9c0,.18.06.24.25.24a71.36,71.36,0,0,1,10.23-7.23c1-.61,1.17-.61,1.48-.61a2.43,2.43,0,0,1,1.59.61,1.33,1.33,0,0,1,.37.92,1.28,1.28,0,0,1-.49,1c-11.34,8.52-17.35,14-20.47,21.45-2.09,5-4.35,10.3-5.09,11.65-1.29,2.39-2.08,2.58-4.41,2.58-1.16,0-2.87-.61-3.18-1.78a5.21,5.21,0,0,1-.18-1.35c0-1.53,1.1-3.55,4.16-8.28,4.66-7.17,5.46-5.52,12.14-21v-.12a.13.13,0,0,0-.12-.12.24.24,0,0,0-.19.06c-2.76,2.64-5.39,5.58-8.45,5.58a4.66,4.66,0,0,1-1.84-.37,13.15,13.15,0,0,1-3.68-2.82c-.31-.3-.43-.49-.43-1.78,0-2.64,1.17-4.35,1.78-5.7.74-1.59,3.86-5.58,6-8,6.44-7.23,11.46-7.78,11.71-7.78a7.77,7.77,0,0,1,6.31,2.64,3.25,3.25,0,0,1,.68,2.14,4.53,4.53,0,0,1-.49,2.39C436.61,539.74,435.32,543.23,435.32,543.9Zm3.92-17.84c0-.12-.12-.24-.12-.37s0-.36-.61-.61a2.86,2.86,0,0,0-1-.18,4.62,4.62,0,0,0-2.81,1.29c-1.23,1-1.72,1-2.58,1.84-3.31,3.06-8.1,8.83-9.38,11.83a9.36,9.36,0,0,0-.73,2.33c0,.24.49.49.73.49a2.12,2.12,0,0,0,1.23-.3c5.52-3.49,11.4-10.24,15.14-15.88A.82.82,0,0,0,439.25,526.07Z"/><path class="cls-4" d="M481,551.14c-2.27-1.1-2.7-2-3.18-3.61-2.21-7.24-3.06-18.7-4.29-23.6-.18-.73-.25-.86-.49-.86s-.31.18-.49.86c-1.23,4.54-5.58,16.55-6.38,24.89-.12,1.29-.18,2.09-.18,2.21,0,.61-1,1.1-2.28,1.1-1.9,0-1.65-.37-2.39-.74-.49-.24-.92-.55-.92-.92,0-2.7,6.31-22.62,6.74-24.34l.56-2.08c1-4,1.72-6.56,2.51-9.93.25-1,1.23-.43,1.23-1.1s-.92-1.41-.92-3.49c0-.24.06-.43.61-.67a12,12,0,0,1,3.68-.55c.31,0,.67.3.86.85,4,11.89,3.06,23.54,6.31,35.56.19.67.31.92.49.92s.19-.12.56-.92c3.3-7.17,5.39-14.84,7.79-22.62.43-1.41.73-1.9,1.1-3.37.55-2.15.43-4.47,1-6.62.3-1.1.36-1.29,1.28-1.29s1.85.37,2.52.37c.86,0,2.21,1.72,2.21,2a4.16,4.16,0,0,1-.67,2.33,17.34,17.34,0,0,0-.86,2.45c-2.94,8.34-5.46,18.08-10.48,30.65-.49,1.22-.56,1.28-.86,1.59-1.23,1.23-1.91,1.59-2.88,1.59A4.46,4.46,0,0,1,481,551.14Z"/><path class="cls-4" d="M507.09,551.26a6,6,0,0,1-2.34-.43,42.63,42.63,0,0,1-3.92-1.72,7.54,7.54,0,0,1-3.06-4.23,18.36,18.36,0,0,1-.73-4.72,7.19,7.19,0,0,1,.3-2c1.72-6.25,5.89-11.64,10.55-16.61a9.63,9.63,0,0,1,10.29-2.08c.68.24,2,1.35,2,3.8a9.79,9.79,0,0,1-1.42,4.41,11.84,11.84,0,0,1-2,2.88c-4.23,4.78-9,10.11-14.22,13-.3.18-.36.31-.36.49a3.73,3.73,0,0,0,1.47,2.58,3.79,3.79,0,0,0,1.9.49c1,0,2-.25,4.72-1.72,4.23-2.27,6.81-5.58,10.48-7.91A2,2,0,0,1,522,537c.37,0,1.23.61,1.23,1.23a6.82,6.82,0,0,1-.06.8,1,1,0,0,1-.31.86c-2.94,2.51-4.23,5.57-13.55,10.73A3.46,3.46,0,0,1,507.09,551.26Zm7.91-28c0-.49,0-.73-.37-.73a2.45,2.45,0,0,0-1.29.55,5.45,5.45,0,0,0-1.23.8c-4,3.55-8.28,8.58-9.62,14,0,.24.06.31.12.31A.81.81,0,0,0,503,538a59,59,0,0,0,9.38-9.44c.92-1.1.68-1.29,1.47-2.52A4.87,4.87,0,0,0,515,523.25Z"/><path class="cls-4" d="M530.75,548.38c-1.29,1.17-3.55,2.94-6.31,2.94-1.85,0-3.92-2.58-4.6-4.84a9.1,9.1,0,0,1-.31-2.58,13.84,13.84,0,0,1,1-5c.43-1.16.67-2.21,1-3.06,1.9-4.47,3.67-8.89,5.95-13.61a3.15,3.15,0,0,1,3.06-1.66,3.1,3.1,0,0,1,1.84.49,1,1,0,0,1,.49,1c0,3.25-2.52,4.78-3.92,7.78-1,2.27-2.76,6.44-3.61,8.7a20.85,20.85,0,0,0-1.48,6c0,.55.06,2,1.11,2,1.35,0,2-.37,4.47-2.09,1.47-1,1.9-1.35,2.88-1.35a2.64,2.64,0,0,1,1.53.43,1,1,0,0,1,.37.86c0,.67-.37,1-1,1.66Zm8.52-38.25a1.81,1.81,0,0,1-.31,1.1c-1.11,1.35-2.58,3-3.92,3a2.88,2.88,0,0,1-2.46-1.23,5,5,0,0,1-.43-2.08,4.29,4.29,0,0,1,.8-2.58,3.82,3.82,0,0,1,3-1,3.9,3.9,0,0,1,2.58.8A2.88,2.88,0,0,1,539.28,510.13Z"/><path class="cls-4" d="M550.13,543.9c0,.18.06.24.25.24a71.36,71.36,0,0,1,10.23-7.23c1-.61,1.17-.61,1.48-.61a2.43,2.43,0,0,1,1.59.61,1.33,1.33,0,0,1,.37.92,1.28,1.28,0,0,1-.49,1c-11.34,8.52-17.35,14-20.47,21.45-2.09,5-4.35,10.3-5.09,11.65-1.29,2.39-2.08,2.58-4.41,2.58-1.16,0-2.87-.61-3.18-1.78a5.21,5.21,0,0,1-.18-1.35c0-1.53,1.1-3.55,4.16-8.28,4.66-7.17,5.46-5.52,12.14-21v-.12a.13.13,0,0,0-.12-.12.24.24,0,0,0-.19.06c-2.76,2.64-5.39,5.58-8.45,5.58a4.66,4.66,0,0,1-1.84-.37,13.15,13.15,0,0,1-3.68-2.82c-.31-.3-.43-.49-.43-1.78,0-2.64,1.17-4.35,1.78-5.7.74-1.59,3.86-5.58,6-8,6.44-7.23,11.46-7.78,11.71-7.78a7.77,7.77,0,0,1,6.31,2.64,3.25,3.25,0,0,1,.68,2.14,4.53,4.53,0,0,1-.49,2.39C551.42,539.74,550.13,543.23,550.13,543.9Zm3.92-17.84c0-.12-.12-.24-.12-.37s0-.36-.61-.61a2.86,2.86,0,0,0-1-.18,4.62,4.62,0,0,0-2.81,1.29c-1.23,1-1.72,1-2.58,1.84-3.31,3.06-8.1,8.83-9.38,11.83a9.36,9.36,0,0,0-.73,2.33c0,.24.49.49.73.49a2.12,2.12,0,0,0,1.23-.3c5.52-3.49,11.4-10.24,15.14-15.88A.82.82,0,0,0,554.05,526.07Z"/><path class="cls-4" d="M578.28,552.55a4.91,4.91,0,0,1-1.78-.43c-2.34-.86-3.31-2.82-3.31-5.82a24.64,24.64,0,0,1,1.17-6.87,59,59,0,0,1,2.27-6.31,2.48,2.48,0,0,0,.25-.73.14.14,0,0,0-.13-.12c-.12,0-.36.18-.79.68-4.17,4.78-8.4,11.89-12,16.12a2.08,2.08,0,0,1-.68.61,4.76,4.76,0,0,1-2.33.8,7.69,7.69,0,0,1-3.18-1.72,1,1,0,0,1-.25-.67c0-.67.31-.61.55-1.66,1.91-8.15,6.38-17,11.59-27.34,2.58-5.15,6-10.79,9-16.79a1.57,1.57,0,0,1,1.59-.86c.62,0,1,.12,1.29.12a2.8,2.8,0,0,1,1.72.92,1.76,1.76,0,0,1,.56,1.53c0,1.59-1.29,2.58-2.88,4.54-.55.67-.68,1-1.17,1.65-5.51,7.6-10.36,20.1-15,29.85a8.37,8.37,0,0,0-.55,1.23c0,.06,0,.12.12.12s.12-.06.43-.49a170.92,170.92,0,0,1,13.91-17c.86-.92,1.17-1.23,1.72-1.41a5.44,5.44,0,0,1,1.41-.3,8.73,8.73,0,0,1,2.27.43,1.59,1.59,0,0,1,.92,1.16c0,1.78-.73,3-1.84,4.91a26.25,26.25,0,0,0-1.6,3.74c-1.65,3.92-3.18,8.95-3.18,13.12,0,2.94.62,3.56,1.54,4a9,9,0,0,0,1.53.36.58.58,0,0,1,.43.49,2.44,2.44,0,0,1-.31.79,1.82,1.82,0,0,1-1.16.86A8.4,8.4,0,0,1,578.28,552.55Z"/><path class="cls-4" d="M605.57,509.4c-3.25,5.27-7.61,11.21-9.38,15.38-2.64,6.19-6.62,12.2-6.62,19.19,0,1.35.06,2.21,1,2.21a3.57,3.57,0,0,0,2.15-1.29,30.06,30.06,0,0,0,6.07-12.32,8.51,8.51,0,0,0,.37-1.59c0-.37-.25-3.13-1.23-3.86a1.61,1.61,0,0,1-.31-1.1c0-1,.93-2.76,2-2.76.8,0,1.53.8,2.15,1.53,1.72,2,1.78,2.15,3.18,2.15.74,0,3.68-.18,9.5-1.78.68-.18,1.29-.37,1.41-.37s.31.12.74.12a2.09,2.09,0,0,1,1.23.36,2.25,2.25,0,0,1,.73,1.35c0,.24-.24,1-.55,1-4.66.67-8,3.19-12.44,3.19-.43,0-1.29-.37-1.79-.37-.18,0-.24.31-.24.55s.12.86.12,1.29a19.17,19.17,0,0,1-.43,2.33c-.43,2.64-1.72,4.48-2.64,6.56a13,13,0,0,1-1.72,3.12c-2,2.76-4.53,6.13-8,6.13a4.36,4.36,0,0,1-1.66-.24c-.74-.24-3.43-1.47-3.86-3.19a14,14,0,0,1-.43-3.06,20.86,20.86,0,0,1,1.29-6.8c.19-.55,1.48-4.35,1.9-5.33,4.11-9.44,8.83-17.16,14.1-26.36.92-1.6,2-2.58,3.67-2.58a5.38,5.38,0,0,1,1.78.36,1.82,1.82,0,0,1,1.17,2C608.81,506.82,606.43,508,605.57,509.4Z"/><path class="cls-4" d="M629.12,525.64c2.45,0,3.86-.18,5.27-.18,2,0,3.8.61,3.8,1.6,0,.79-1.54,1-1.72,1.28s-.25.31-.68.37c-1.23.18-3,.8-4.59,1a14.7,14.7,0,0,1-2.4.18c-.49,0-.61.06-.74.49-1.59,6.56-3.79,12.26-7.72,16.43-1.72,1.84-3.37,3.62-5.52,3.62a3.51,3.51,0,0,1-1.47-.3c-2.34-1.1-4.05-2.46-4.6-3.86a14.33,14.33,0,0,1-.92-5.09c0-5,2.52-9.44,5.33-13.67a22.22,22.22,0,0,1,1.48-1.84c2-2.76,4.53-5.63,7.23-5.63a4.86,4.86,0,0,1,3.25,1.16c.49.43.67.55.86,1C626.54,523.8,627.34,525.64,629.12,525.64Zm-6.75-.24c-.18-.61-.37-1-.61-1a1.5,1.5,0,0,0-.92.61c-.25.3-.86.61-1.17,1-1.9,2.39-7.66,10-7.66,17.16a1.93,1.93,0,0,0,.18.85,5.67,5.67,0,0,0,1.47,2,1,1,0,0,0,.56.12,2,2,0,0,0,1.16-.49c.43-.18.56-.37,1-1.1,3.55-5.33,6.86-10.11,6.86-16.31a9.75,9.75,0,0,0-.06-1.29.88.88,0,0,0-.37-.67A2,2,0,0,1,622.37,525.39Z"/><path class="cls-4" d="M641,527a6.62,6.62,0,0,1-.36,2.08,7.85,7.85,0,0,0-.25,1c0,.18,0,.24.18.24s.31-.06.8-.49a32.63,32.63,0,0,1,8.52-5,3.09,3.09,0,0,1,.74-.12,5.79,5.79,0,0,1,4.47,1.72,1.63,1.63,0,0,1,.43,1,2.69,2.69,0,0,1-2.15,2.7c-.92,0-1.9-.61-2.76-.61a2.14,2.14,0,0,0-1,.24c-6.68,3.13-13.3,8.58-15.44,17.59a4.84,4.84,0,0,1-1.54,2.94,1.69,1.69,0,0,1-1.1.55c-1-.06-1.41-.8-1.84-1.29a4.18,4.18,0,0,1-1.17-2.33c0-2.08,2.58-4.1,3.31-6.43a122.51,122.51,0,0,0,4.22-14.16c.06-.55.13-.86.13-1,0-.36-.5-.86-.56-1.41s1-1.35,2.4-1.35a3,3,0,0,1,2,.67A6.11,6.11,0,0,1,641,527Z"/><path class="cls-4" d="M668,526a8.09,8.09,0,0,1-1.78,5.09c-.49.61-.55.67-.86.67a4.18,4.18,0,0,1-2.15-.79,2.34,2.34,0,0,1-.92-2,.94.94,0,0,1,.19-.49,5.49,5.49,0,0,0,1-2.82,3.83,3.83,0,0,0-.43-1.65,1.83,1.83,0,0,0-1.35-.86c-.43,0-3.25,3.49-3.74,6.31a10.1,10.1,0,0,0-.12,1.59c0,.37.31,3.12.43,3.92.55,4.6,2,11.46,2,14a1.54,1.54,0,0,1-.49,1.1c-1.1,1.1-2.21,2.21-3.85,2.21a4.94,4.94,0,0,1-1.54-.24,19.2,19.2,0,0,1-9-8.21,2.65,2.65,0,0,1-.36-.92,2.42,2.42,0,0,1,2.21-2.27c1.22,0,1.78.12,2.33.86,1.41,1.9,2.15,4.23,4,5.88.62.55.92.67,1.23.67a.56.56,0,0,0,.61-.49,9.55,9.55,0,0,0-.3-1.9c-.86-4-2-13.24-2-14.46a16.72,16.72,0,0,1,2.21-7.48c1.78-2.82,4.29-3.92,5.46-3.92,3.36,0,4.72.86,6,2.21A6.49,6.49,0,0,1,668,526Z"/><path class="cls-4" d="M695.17,524.53a27.87,27.87,0,0,0-1.41,3.8c0,.12.12.18.25.18a13.76,13.76,0,0,0,1.53-.24,29.6,29.6,0,0,0,8.22-3.06,1.85,1.85,0,0,1,.68-.3c1,0,3,.86,3,1.59a2.84,2.84,0,0,1-2,2.33c-1.66.67-1.66.86-2.77,1.29-3,1.16-8.21,2.33-9.49,2.76a2,2,0,0,0-1.17.92,12.78,12.78,0,0,0-1,2.94c-.19.67-.56,1.29-.68,2-.37,2-2.46,7.23-2.81,10.3a4.16,4.16,0,0,1-1.54,2.58,2.41,2.41,0,0,1-.92.18,4.23,4.23,0,0,1-2.21-.67,1.78,1.78,0,0,1-.68-1.47,6.39,6.39,0,0,1,.25-1.84c1.53-4.54,2.64-9.87,4.59-14.59a1.38,1.38,0,0,0,.13-.43c0-.12-.06-.24-.31-.37-2.21-1.1-2.58-2.7-4-3.86a.84.84,0,0,1-.31-.73c0-.43.25-.55.74-.8a2.4,2.4,0,0,1,1.23-.3c1.35,0,2.87,1,4,1a1,1,0,0,0,1-.86c.19-.67.49-1.59,1-2.88,1.48-3.74,3.13-8.52,5.21-13,.37-.8.43-.8.68-.8,1,0,1.1-.3,1.72-.3a7.09,7.09,0,0,1,2.33.49c.31.12.56.24.56.43a3.23,3.23,0,0,1-.07.67C700.08,516.2,697.13,520.37,695.17,524.53Z"/><path class="cls-4" d="M718.77,525.64c2.46,0,3.86-.18,5.27-.18,2,0,3.8.61,3.8,1.6,0,.79-1.53,1-1.72,1.28s-.24.31-.67.37c-1.23.18-3,.8-4.6,1a14.6,14.6,0,0,1-2.39.18c-.5,0-.62.06-.74.49-1.6,6.56-3.8,12.26-7.73,16.43-1.72,1.84-3.37,3.62-5.51,3.62a3.56,3.56,0,0,1-1.48-.3c-2.33-1.1-4-2.46-4.59-3.86a14.13,14.13,0,0,1-.93-5.09c0-5,2.52-9.44,5.34-13.67.86-1.29.86-1,1.47-1.84,2-2.76,4.54-5.63,7.24-5.63a4.82,4.82,0,0,1,3.24,1.16c.49.43.68.55.86,1C716.2,523.8,717,525.64,718.77,525.64Zm-6.74-.24c-.19-.61-.37-1-.62-1a1.52,1.52,0,0,0-.92.61c-.24.3-.86.61-1.16,1-1.91,2.39-7.67,10-7.67,17.16a1.93,1.93,0,0,0,.18.85,5.82,5.82,0,0,0,1.48,2,.92.92,0,0,0,.55.12,2.06,2.06,0,0,0,1.17-.49c.43-.18.55-.37,1-1.1,3.55-5.33,6.87-10.11,6.87-16.31a9.75,9.75,0,0,0-.06-1.29.91.91,0,0,0-.37-.67A1.89,1.89,0,0,1,712,525.39Z"/><path class="cls-4" d="M771.82,515.34a18.28,18.28,0,0,1-1.53,6.74c-.25.79-1.72,2.39-2.64,2.39-.56,0-1-.49-1.36-.55a2.48,2.48,0,0,1-1.72-.92c-.18-.37-.61-.8-.61-1,0-1,1.17-1.41,1.54-2.58.55-1.78,1.35-1,1.35-4.23,0-1-.68-1.53-1.91-1.53a8.33,8.33,0,0,0-1.84.24c-3.8.8-6.5,4-8.76,6.25l-1.66,1.59a42.21,42.21,0,0,0-11.09,20,11.07,11.07,0,0,0-.37,2.7c0,3.49.43,2.45.92,3.74.18.49,1.29.86,2.15.86a12.19,12.19,0,0,0,6.62-3.18c6.56-5.76,7.91-6.38,9.32-7.91,1.84-2,2.57-3,2.57-3.49,0-.24-.12-.3-.43-.3-1,0-4.41,1.41-5.33,1.41a4.07,4.07,0,0,1-2.52-.49c-1.16-.86-1.47-1.1-1.47-1.9,0-1.22.12-1.47,1.17-1.65,1.23-.24,1.9-.12,2.76-.37,1.72-.49,2.52-.67,3.8-1.1a9.86,9.86,0,0,1,3.92-.67c.67,0,3.43,2.27,3.43,3.55,0,.37-.06.86-1,2.76A41.79,41.79,0,0,0,763,552c0,.49-1.66,1.41-2.27,1.41-1.29,0-.8-.42-2-.42-.86,0-1-.31-1-1,0-2.21,1.29-6.68,1.29-6.93a.17.17,0,0,0-.19-.18c-.18,0-.55.31-2.08,1.72-4.6,4.23-6.32,4.91-9.93,5.88a9.56,9.56,0,0,1-2.46.37,7.64,7.64,0,0,1-5.58-2.33c-2-2.08-2.81-3.49-2.81-5.09,0-4.11,1.29-14.71,11.77-26.3,3.18-3.49,9.25-8.39,13.37-9.19a12.89,12.89,0,0,1,2.15-.18A14.67,14.67,0,0,1,770,512,4.56,4.56,0,0,1,771.82,515.34Z"/><path class="cls-4" d="M782,527a6.62,6.62,0,0,1-.36,2.08,7.85,7.85,0,0,0-.25,1c0,.18,0,.24.18.24s.31-.06.8-.49a32.63,32.63,0,0,1,8.52-5,3.09,3.09,0,0,1,.74-.12,5.79,5.79,0,0,1,4.47,1.72,1.63,1.63,0,0,1,.43,1,2.69,2.69,0,0,1-2.15,2.7c-.92,0-1.9-.61-2.76-.61a2.14,2.14,0,0,0-1,.24c-6.68,3.13-13.3,8.58-15.44,17.59a4.84,4.84,0,0,1-1.54,2.94,1.69,1.69,0,0,1-1.1.55c-1-.06-1.41-.8-1.84-1.29a4.18,4.18,0,0,1-1.17-2.33c0-2.08,2.58-4.1,3.31-6.43a122.51,122.51,0,0,0,4.22-14.16c.06-.55.13-.86.13-1,0-.36-.5-.86-.56-1.41s1-1.35,2.4-1.35a3,3,0,0,1,2,.67A6.11,6.11,0,0,1,782,527Z"/><path class="cls-4" d="M811.39,525.64c2.45,0,3.86-.18,5.27-.18,2,0,3.8.61,3.8,1.6,0,.79-1.54,1-1.72,1.28s-.25.31-.68.37c-1.23.18-3,.8-4.59,1a14.7,14.7,0,0,1-2.4.18c-.49,0-.61.06-.74.49-1.59,6.56-3.79,12.26-7.72,16.43-1.72,1.84-3.37,3.62-5.52,3.62a3.51,3.51,0,0,1-1.47-.3c-2.34-1.1-4.05-2.46-4.6-3.86a14.33,14.33,0,0,1-.92-5.09c0-5,2.52-9.44,5.33-13.67a22.22,22.22,0,0,1,1.48-1.84c2-2.76,4.53-5.63,7.23-5.63a4.86,4.86,0,0,1,3.25,1.16c.49.43.67.55.86,1C808.81,523.8,809.61,525.64,811.39,525.64Zm-6.75-.24c-.18-.61-.37-1-.61-1a1.5,1.5,0,0,0-.92.61c-.25.3-.86.61-1.17,1-1.9,2.39-7.66,10-7.66,17.16a1.93,1.93,0,0,0,.18.85,5.67,5.67,0,0,0,1.47,2,1,1,0,0,0,.56.12,2,2,0,0,0,1.16-.49c.43-.18.56-.37,1-1.1,3.55-5.33,6.86-10.11,6.86-16.31a9.75,9.75,0,0,0-.06-1.29.88.88,0,0,0-.37-.67A2,2,0,0,1,804.64,525.39Z"/><path class="cls-4" d="M825,523.37a11.4,11.4,0,0,0-.8,1.84C821.76,531,820,537,818,543.11a3.59,3.59,0,0,0-.24,1,.16.16,0,0,0,.18.18c.19,0,.55-.12,2.33-2.21a56.06,56.06,0,0,0,9.2-14.28,1.48,1.48,0,0,1,1.59-.86c.62,0,1,.12,1.41.12a2.09,2.09,0,0,1,1.91,1.84c0,.92-.43,1.78-2,4.48a17.73,17.73,0,0,0-1.29,3.06,24.77,24.77,0,0,0-2.27,9.93,1.16,1.16,0,0,0,.92,1.17,4,4,0,0,0,2.64-1.78c3.61-4.6,4.23-11.7,4.23-12.32,0-.86.31-1.53.31-2.27,0-1.71-1.23-3.61-1.23-5a1.89,1.89,0,0,1,.67-1.47,8.05,8.05,0,0,1,2.58-.37c1,0,.55.37,2.34,1.53,1.1.73,2.08.92,4.65.92s5-.73,8.22-.73c.55,0,1.41,0,1.41,1.72,0,.79-1,1.47-2.93,1.9-3.86.92-5,1.6-6.87,1.6a17,17,0,0,1-3.92-.49c-.43,0-.55.31-.55.8s0,1.84-.07,2.52A25.33,25.33,0,0,1,834,550.52a3.34,3.34,0,0,1-2.7,1,11.61,11.61,0,0,1-5.21-1.72,3.37,3.37,0,0,1-1.72-2.82c0-1.1.18-1.65.18-2.39,0-.3-.06-.49-.18-.49s-.43.24-1,.8c-1.85,1.84-3.06,4.47-5.7,4.47-1,0-1.11-.43-2.58-1a4.52,4.52,0,0,1-1.91-1.23,5,5,0,0,1-.43-1.78,6,6,0,0,1,.25-1.66c1.84-7.42,5.58-14.59,6.62-21.76a2,2,0,0,1,1.17-1.16,4.34,4.34,0,0,1,1.47-.18c.61,0,1.11.06,1.72.06.43,0,1.47.61,1.47,1.41A2.55,2.55,0,0,1,825,523.37Z"/><path class="cls-4" d="M856.16,551.26a6,6,0,0,1-2.33-.43,42.63,42.63,0,0,1-3.92-1.72,7.45,7.45,0,0,1-3.06-4.23,18.39,18.39,0,0,1-.74-4.72,6.91,6.91,0,0,1,.31-2c1.72-6.25,5.88-11.64,10.54-16.61a9.65,9.65,0,0,1,10.3-2.08c.67.24,2,1.35,2,3.8a9.78,9.78,0,0,1-1.41,4.41,11.88,11.88,0,0,1-2,2.88c-4.22,4.78-9,10.11-14.21,13-.31.18-.37.31-.37.49a3.73,3.73,0,0,0,1.47,2.58,3.83,3.83,0,0,0,1.91.49c1,0,2-.25,4.72-1.72,4.22-2.27,6.8-5.58,10.48-7.91a2,2,0,0,1,1.22-.43c.37,0,1.23.61,1.23,1.23a6.82,6.82,0,0,1-.06.8,1,1,0,0,1-.31.86c-2.93,2.51-4.22,5.57-13.55,10.73A3.44,3.44,0,0,1,856.16,551.26Zm7.91-28c0-.49,0-.73-.36-.73a2.45,2.45,0,0,0-1.29.55c-.68.43-.62.24-1.23.8-4,3.55-8.28,8.58-9.62,14,0,.24.06.31.12.31a.84.84,0,0,0,.43-.18,59.39,59.39,0,0,0,9.37-9.44c.93-1.1.68-1.29,1.48-2.52A4.93,4.93,0,0,0,864.06,523.25Z"/><path class="cls-4" d="M878.48,527a6.62,6.62,0,0,1-.36,2.08,7.85,7.85,0,0,0-.25,1c0,.18,0,.24.18.24s.31-.06.8-.49a32.63,32.63,0,0,1,8.52-5,3.09,3.09,0,0,1,.74-.12,5.79,5.79,0,0,1,4.47,1.72,1.63,1.63,0,0,1,.43,1,2.69,2.69,0,0,1-2.15,2.7c-.92,0-1.9-.61-2.76-.61a2.14,2.14,0,0,0-1,.24c-6.68,3.13-13.3,8.58-15.44,17.59a4.84,4.84,0,0,1-1.54,2.94,1.69,1.69,0,0,1-1.1.55c-1-.06-1.41-.8-1.84-1.29a4.18,4.18,0,0,1-1.17-2.33c0-2.08,2.58-4.1,3.31-6.43a122.51,122.51,0,0,0,4.22-14.16c.06-.55.13-.86.13-1,0-.36-.5-.86-.56-1.41s1-1.35,2.4-1.35a3,3,0,0,1,2,.67A6.11,6.11,0,0,1,878.48,527Z"/><path class="cls-4" d="M905.52,526a8.09,8.09,0,0,1-1.78,5.09c-.49.61-.55.67-.86.67a4.18,4.18,0,0,1-2.15-.79,2.34,2.34,0,0,1-.92-2,.94.94,0,0,1,.19-.49,5.49,5.49,0,0,0,1-2.82,3.83,3.83,0,0,0-.43-1.65,1.83,1.83,0,0,0-1.35-.86c-.43,0-3.25,3.49-3.74,6.31a10.1,10.1,0,0,0-.12,1.59c0,.37.31,3.12.43,3.92.55,4.6,2,11.46,2,14a1.54,1.54,0,0,1-.49,1.1c-1.1,1.1-2.21,2.21-3.85,2.21a4.94,4.94,0,0,1-1.54-.24,19.2,19.2,0,0,1-9-8.21,2.65,2.65,0,0,1-.36-.92,2.42,2.42,0,0,1,2.21-2.27c1.22,0,1.78.12,2.33.86,1.41,1.9,2.15,4.23,4,5.88.62.55.92.67,1.23.67a.56.56,0,0,0,.61-.49,9.55,9.55,0,0,0-.3-1.9c-.86-4-2-13.24-2-14.46a16.72,16.72,0,0,1,2.21-7.48c1.78-2.82,4.29-3.92,5.46-3.92,3.36,0,4.72.86,6,2.21A6.49,6.49,0,0,1,905.52,526Z"/><rect class="cls-4" y="324.5" width="1114.16" height="160.14"/><path class="cls-2" d="M1098.82,339.83V469.3H15.33V339.83H1098.82m15.33-15.33H0V484.63H1114.16V324.5Z"/><path class="cls-2" d="M41,431.25H52V373.94H41V361.53H80.75v12.41H67.67v57.31H94.24V418h14.42v25.62H41Z"/><path class="cls-2" d="M115.12,402.66c0-25.21,17.8-42.74,42.74-42.74s42.74,17.53,42.74,42.74-17.93,42.61-42.74,42.61S115.12,427.87,115.12,402.66Zm69.44,0c0-18.34-11.46-29.66-26.7-29.66s-26.7,11.32-26.7,29.66,11.32,29.53,26.7,29.53S184.56,421.13,184.56,402.66Z"/><path class="cls-2" d="M209.62,403.06c0-27.24,18.2-43.15,43.82-43.15A78.45,78.45,0,0,1,284,366.52v23.6h-15V375a60.67,60.67,0,0,0-14.83-2c-16.85,0-28.45,10.38-28.45,29.26,0,19.42,12.41,29.53,29.4,29.53,11.19,0,21.44-4.32,28.72-8.63v15a65.82,65.82,0,0,1-30.07,7.15C226.87,445.27,209.62,429.49,209.62,403.06Z"/><path class="cls-2" d="M289.15,431.25h9.71L322,373.94H310.86V361.53h33.57l28.18,69.71h9.84v12.4H345.65v-12.4h10.79l-4.31-11.19H318.41l-4.32,11.19h10.79v12.4H289.15Zm58.25-23.6-12.13-31-12,31Z"/><path class="cls-2" d="M386.75,431.25h11.06V373.94H386.75V361.53h39.77v12.41H413.45v57.31H440V418h14.43v25.62H386.75Z"/><path class="cls-2" d="M487.18,431.25h11.06V373.94H487.18V361.53h37.89v12.41H513.88v22.24h39V373.94H541.65V361.53h37.89v12.41H568.49v57.31h11.06v12.4H541.65v-12.4h11.19V409.13h-39v22.12h11.19v12.4H487.18Z"/><path class="cls-2" d="M585.05,431.25h9.71L618,373.94H606.76V361.53h33.57l28.18,69.71h9.85v12.4H641.54v-12.4h10.79L648,420.05H614.31L610,431.25h10.79v12.4H585.05Zm58.25-23.6-12.14-31-12,31Z"/><path class="cls-2" d="M682.65,431.25H693.7V373.94H682.65V361.53h39.64c24.27,0,33.44,13.35,33.44,25.89,0,9.58-5.39,18.34-16.59,22l12.41,21.85h10.11v12.4H740.9L724,413.58h-14.7v17.66H720.4v12.4H682.65Zm39.91-29.8c13.08,0,17.39-6.61,17.39-13.75s-4.45-13.76-17.39-13.76H709.35v27.51Z"/><path class="cls-2" d="M771.75,373.94H762V361.53H799.4v12.41H788.34l18.74,51.24L826,373.94H814.9V361.53h36.68v12.41h-9.71l-27.1,69.71H798.86Z"/><path class="cls-2" d="M856.41,431.25h11.06V373.94H856.41V361.53H924.1v24.14H909.68V373.94H883.11v22.24H914v12.41H883.11v22.65h27V419h14.56v24.68H856.41Z"/><path class="cls-2" d="M935.95,440.82v-20.5h14v10.79a62.06,62.06,0,0,0,14.15,1.75c8.76,0,17-2.16,17-10.25,0-18.75-44.09-8.63-44.09-38.84,0-17.26,14.56-23.87,30.74-23.87a87.5,87.5,0,0,1,26.16,4.45v20.09H979.64V373.4a79,79,0,0,0-11.46-1.08c-8,0-16,2.29-16,9.84,0,17.53,44.09,8.09,44.09,39.37,0,17.94-14.7,23.73-31.15,23.73C954.29,445.27,943.77,442.84,935.95,440.82Z"/><path class="cls-2" d="M1021.29,431.25h12.13V373.94H1018v12.54h-14.15V361.53h74.7v24.95h-14.15V373.94h-15.37v57.31h12.13v12.4h-39.91Z"/><path class="cls-4" d="M623.89,216.56a29.69,29.69,0,1,0,29.69,29.69,29.7,29.7,0,0,0-29.69-29.69ZM468,261.1a11.14,11.14,0,1,0,11.14,11.14A11.14,11.14,0,0,0,468,261.1ZM635,146h11.14v44.54h26v11.14l-11,8.27a52,52,0,1,1-89.18,36.27h-56.6l-6.5,11.14h-19.5A26,26,0,1,1,451.66,252l-12.79-46.23a14.85,14.85,0,0,1,14.27-18.94h81.66l3.71-7.42h29.69L545.94,224h31.55V198a7.43,7.43,0,0,1,7.42-7.42H635V146Z"/><path class="cls-2" d="M623.89,300.77a54.59,54.59,0,0,1-54.46-52H516.79l-6.5,11.13H493.76a28.54,28.54,0,1,1-45-8.79l-12.35-44.66a17.3,17.3,0,0,1-.67-4.78,17.4,17.4,0,0,1,17.4-17.4h80.08l3.71-7.42h35.41l-22.27,44.54h24.86V198a10,10,0,0,1,10-10h47.55V143.48h16.25V188h26v15l-9.79,7.34a54.52,54.52,0,0,1-41,90.44Zm-110-57.07h60.63v2.56a49.41,49.41,0,1,0,84.8-34.49l-2-2.08,12.34-9.25v-7.3h-26V148.59h-6v44.54H584.92A4.87,4.87,0,0,0,580,198v28.54H541.8L564.08,182h-24l-3.71,7.42H453.15a12.29,12.29,0,0,0-12.29,12.29,12.22,12.22,0,0,0,.48,3.39L454.58,253l-1.3,1.05a23.42,23.42,0,1,0,34,4.83l-2.8-4h22.93ZM468,285.93a13.69,13.69,0,1,1,13.69-13.69A13.7,13.7,0,0,1,468,285.93Zm0-22.27a8.58,8.58,0,1,0,8.58,8.58A8.59,8.59,0,0,0,468,263.66ZM623.89,278.5a32.25,32.25,0,1,1,32.25-32.25A32.29,32.29,0,0,1,623.89,278.5Zm0-59.39A27.14,27.14,0,1,0,651,246.25,27.17,27.17,0,0,0,623.89,219.12Z"/><path class="cls-4" d="M597.36,623.51a38.19,38.19,0,0,0-2-4.91c-7.85-18.88-25-25.64-38.87-25.64-18.55,0-39,12.44-41.71,38.08v5.24c0,.22.08,2.18.18,3.16,1.53,12.22,11.17,25.2,18.37,37.42,7.75,13.09,15.79,26,23.75,38.84,4.91-8.4,9.8-16.91,14.6-25.1,1.31-2.4,2.83-4.8,4.14-7.09.87-1.53,2.54-3.05,3.3-4.47,7.75-14.18,20.22-28.48,20.22-42.55v-5.78C599.36,629.19,597.47,623.84,597.36,623.51Zm-40.51,26.3c-5.45,0-11.42-2.73-14.37-10.26a14.22,14.22,0,0,1-.4-3.82v-3.38c0-9.6,8.15-14,15.24-14A15.45,15.45,0,0,1,572.8,634.1,15.85,15.85,0,0,1,556.85,649.81Z"/><path class="cls-2" d="M557.1,720.82a5.12,5.12,0,0,1-4.35-2.42L549.42,713c-6.77-10.93-13.78-22.24-20.47-33.55-1.46-2.47-3-5-4.58-7.49-6.45-10.36-13.12-21.07-14.47-31.91-.14-1.22-.22-3.54-.22-3.8V631a4.92,4.92,0,0,1,0-.54c3.12-29.3,26.44-42.65,46.79-42.65,15.28,0,34.76,7.56,43.59,28.79l.47,1.07a29.43,29.43,0,0,1,1.73,4.5c1.9,5.47,2.17,7.34,2.17,8.51v5.78c0,11.71-7.09,22.84-13.94,33.62-2.39,3.76-4.86,7.65-6.9,11.38a19.23,19.23,0,0,1-2.19,3,11.62,11.62,0,0,0-1.16,1.52c-.54.94-1.11,1.9-1.69,2.87-.81,1.36-1.64,2.75-2.4,4.13-2.61,4.46-5.17,8.87-7.75,13.32l-6.93,11.91a5.11,5.11,0,0,1-4.35,2.53Zm-37.19-89.5v5c0,.26.06,1.8.15,2.6,1.07,8.54,7.13,18.29,13,27.71,1.61,2.59,3.21,5.15,4.7,7.69,6.26,10.58,12.82,21.2,19.21,31.51l2.64-4.53c2.59-4.45,5.16-8.88,7.69-13.21.74-1.37,1.64-2.87,2.52-4.34.54-.91,1.09-1.82,1.6-2.71a21.82,21.82,0,0,1,2.16-3,9.63,9.63,0,0,0,1.07-1.38c2.23-4.08,4.79-8.11,7.27-12,6.07-9.54,12.34-19.4,12.34-28.13v-5.77h0s-.25-1.31-1.66-5.38c0-.12-.13-.41-.17-.53a19.78,19.78,0,0,0-1.16-2.92l-.57-1.29c-8.7-20.91-28.36-22.54-34.17-22.54C540.65,598.07,522.47,608.48,519.91,631.32Zm36.94,23.6c-8.66,0-15.82-5-19.13-13.5a14.76,14.76,0,0,1-.75-5.66v-3.4c0-12.39,10.49-19.08,20.35-19.08a20.49,20.49,0,0,1,20.59,20.83A21,21,0,0,1,556.85,654.92Zm.47-31.42c-3.76,0-10.13,1.86-10.13,8.85v3.38a11.34,11.34,0,0,0,.13,2.2c2.19,5.55,6.4,6.77,9.53,6.77a10.73,10.73,0,0,0,10.84-10.6A10.38,10.38,0,0,0,557.32,623.5Z"/></g></g></svg>