<?xml version="1.0" encoding="utf-8"?>
<!-- Generator: Adobe Illustrator 20.0.0, SVG Export Plug-In . SVG Version: 6.00 Build 0)  -->
<svg version="1.1" id="Layer_1" xmlns="http://www.w3.org/2000/svg" xmlns:xlink="http://www.w3.org/1999/xlink" x="0px" y="0px"
	 viewBox="0 0 100 100" style="enable-background:new 0 0 100 100;" xml:space="preserve">
<style type="text/css">
	.st0{fill:#FFFFFF;}
</style>
<g>
	<g>
		<path class="st0" d="M91.7,13.3H8.3c-1.8,0-3.3,1.5-3.3,3.3v66.7c0,1.8,1.5,3.3,3.3,3.3h83.3c1.8,0,3.3-1.5,3.3-3.3V16.7
			C95,14.8,93.5,13.3,91.7,13.3z M83.6,20L50,53.6L16.4,20H83.6z M11.7,24.7L37,50L11.7,75.3V24.7z M16.4,80l25.3-25.3l6,6
			c1.3,1.3,3.4,1.3,4.7,0l6-6L83.6,80H16.4z M88.3,75.3L63,50l25.3-25.3V75.3z"/>
	</g>
</g>
</svg>
