<?xml version="1.0" encoding="utf-8"?>
<!-- Generator: Adobe Illustrator 20.1.0, SVG Export Plug-In . SVG Version: 6.00 Build 0)  -->
<svg version="1.1" id="Layer_1" xmlns="http://www.w3.org/2000/svg" xmlns:xlink="http://www.w3.org/1999/xlink" x="0px" y="0px"
	 viewBox="0 0 38 32.5" style="enable-background:new 0 0 38 32.5;" xml:space="preserve">
<style type="text/css">
	.st0{fill:#333E48;}
</style>
<title>48_px - Regular - 70 Basic Icons</title>
<g>
	<path class="st0" d="M36,4H2C0.9,4,0,3.1,0,2s0.9-2,2-2h34c1.1,0,2,0.9,2,2S37.1,4,36,4z"/>
	<path class="st0" d="M36,15H2c-1.1,0-2-0.9-2-2s0.9-2,2-2h34c1.1,0,2,0.9,2,2S37.1,15,36,15z"/>
	<path class="st0" d="M36,26H2c-1.1,0-2-0.9-2-2s0.9-2,2-2h34c1.1,0,2,0.9,2,2S37.1,26,36,26z"/>
</g>
</svg>
