<svg xmlns="http://www.w3.org/2000/svg" viewBox="0 0 102.25 103.47"><defs><style>.cls-1{fill:#5c666f;}.cls-2{fill:#00c4b3;}</style></defs><title>observation</title><g id="Layer_2" data-name="Layer 2"><g id="Layer_1-2" data-name="Layer 1"><rect class="cls-1" x="39.22" y="70.84" width="1.54" height="1.7" transform="translate(-30.49 29.61) rotate(-30.01)"/><path class="cls-1" d="M71.87,55.42a2.39,2.39,0,0,0-.25-.67l-10.94-19a2.52,2.52,0,0,0-.35-.46,2.2,2.2,0,0,0-1-.57,2.45,2.45,0,0,0-.43-.07h-.29a2.2,2.2,0,0,0-1,.29l-8.62,5a2.51,2.51,0,0,0-.55.45A2.22,2.22,0,0,0,48,42.3a2.37,2.37,0,0,0,.25.67l1,1.72L10.08,67.31l-.17.11A2.19,2.19,0,0,0,9,69.75a2.36,2.36,0,0,0,.13.38l.09.18.45.78c-2.92,1.66-5.86,3.3-8.72,5a2.35,2.35,0,0,0-.57.53,2.22,2.22,0,0,0-.39,1.8,2.4,2.4,0,0,0,.24.62C1.53,81.22,2.71,83.39,4,85.5a2.35,2.35,0,0,0,.53.57,2.21,2.21,0,0,0,1.79.38,2.33,2.33,0,0,0,.62-.24c2.88-1.66,5.79-3.26,8.65-5L16,82l.11.17a2.2,2.2,0,0,0,2.13.9,2.19,2.19,0,0,0,.58-.18l.18-.09,16-9.26q1,1.73,2,3.43a2.35,2.35,0,0,0,.44.51,2.21,2.21,0,0,0,.74.41L33,99.63a2.17,2.17,0,0,0,0,.29,2.2,2.2,0,0,0,2.9,2.31,2.22,2.22,0,0,0,1.21-1,2.68,2.68,0,0,0,.17-.4l0-.14,3.28-13.42,1.4,9.5a2.52,2.52,0,0,0,.09.39,2.2,2.2,0,0,0,2.66,1.41,2.24,2.24,0,0,0,.61-.27,2.19,2.19,0,0,0,1-1.91,2.29,2.29,0,0,0,0-.27L44.77,86.05l10.11,16.38a2.58,2.58,0,0,0,.27.35,2.2,2.2,0,0,0,3.79-1.69,2.24,2.24,0,0,0-.18-.71,1.9,1.9,0,0,0-.14-.26L43.56,75.71l1.7-1a2.3,2.3,0,0,0,.56-.51,2.21,2.21,0,0,0,.43-1.75,2.38,2.38,0,0,0-.22-.63q-1-1.74-2-3.46L58.2,60.2l1,1.72a2.42,2.42,0,0,0,.45.55,2.22,2.22,0,0,0,1.88.5,2.39,2.39,0,0,0,.67-.25l8.62-5a2.43,2.43,0,0,0,.55-.45A2.22,2.22,0,0,0,71.87,55.42ZM6.65,81.3,5.2,78.79l6.73-3.88,1.45,2.51Zm12.09-3.39-.45-.79c-1.21-2.1-2.38-4.24-3.64-6.32L14.18,70l9-5.21c1.51,2.64,3,5.29,4.53,7.9Zm21.2-12.24q-2.6,1.44-5.14,3l-3.22,1.86c-1.5-2.64-3-5.29-4.53-7.9L38.52,56c1.5,2.64,3,5.29,4.53,7.9Zm7-4c-1.5-2.64-3-5.29-4.53-7.9l9.08-5.24.23.39L56,56.39Zm15-3.83L55.48,46.7l-2.32-4L58,39.9,66.71,55Z"/><path class="cls-2" d="M93.14,59.42q0-1.27,0-2.54a2.34,2.34,0,0,1,.15-.7,2.21,2.21,0,0,1,1.22-1.25,2.32,2.32,0,0,1,.7-.16h.27a2.33,2.33,0,0,1,.7.16,2.22,2.22,0,0,1,1.22,1.25,2.34,2.34,0,0,1,.15.7q0,1.27,0,2.54l2.53,0a2.31,2.31,0,0,1,.95.26,2.2,2.2,0,0,1,.08,3.84,2.26,2.26,0,0,1-1,.3l-2.53,0q0,1.27,0,2.54a2.28,2.28,0,0,1-.3,1,2.17,2.17,0,0,1-.39.49,2.21,2.21,0,0,1-2.25.47,2.15,2.15,0,0,1-.69-.41,2.21,2.21,0,0,1-.5-.63,2.29,2.29,0,0,1-.26-.94q0-1.27,0-2.54l-2.54,0a2.29,2.29,0,0,1-.94-.26,2.2,2.2,0,0,1-.57-3.45,2.18,2.18,0,0,1,.49-.39,2.3,2.3,0,0,1,1-.3Z"/><path class="cls-1" d="M99.37,20.13a13.71,13.71,0,0,0-1.22-3.7A14,14,0,0,0,91.6,10,13.79,13.79,0,0,0,87.86,8.9a14.37,14.37,0,0,0-1.93-.16h-.36a14.37,14.37,0,0,0-1.93.16A13.79,13.79,0,0,0,79.9,10a14,14,0,0,0-6.55,6.39,13.77,13.77,0,0,0-1.23,3.7A14,14,0,0,0,72,24.51a13.84,13.84,0,1,0,27.33-4.38ZM95.08,24a9.38,9.38,0,0,1-.87,2.75,9.45,9.45,0,0,1-17-.21,9.4,9.4,0,0,1-.79-2.66,9.53,9.53,0,0,1,.1-3.22,9.36,9.36,0,0,1,.89-2.49A9.54,9.54,0,0,1,81.77,14a9.28,9.28,0,0,1,2.55-.77,9.9,9.9,0,0,1,1.32-.11h.49a9.77,9.77,0,0,1,1.31.14,9.43,9.43,0,0,1,2.52.83,9.54,9.54,0,0,1,4.27,4.27A9.32,9.32,0,0,1,95,20.91,9.56,9.56,0,0,1,95.08,24Z"/><path class="cls-2" d="M18.73,29.79q0-1.27,0-2.54a2.33,2.33,0,0,1,.15-.7,2.22,2.22,0,0,1,1.22-1.25,2.33,2.33,0,0,1,.7-.16h.27a2.31,2.31,0,0,1,.7.16A2.21,2.21,0,0,1,23,26.55a2.33,2.33,0,0,1,.15.7q0,1.27,0,2.54l2.54,0a2.26,2.26,0,0,1,1,.3,2.17,2.17,0,0,1,.49.39A2.2,2.2,0,0,1,26.67,34a2.29,2.29,0,0,1-.94.26l-2.54,0q0,1.27,0,2.53a2.29,2.29,0,0,1-.26.95,2.21,2.21,0,0,1-1.19,1,2.14,2.14,0,0,1-.61.13,2.21,2.21,0,0,1-2-1.08,2.28,2.28,0,0,1-.3-1q0-1.27,0-2.53l-2.53,0a2.29,2.29,0,0,1-.95-.26,2.21,2.21,0,0,1-1-1.19,2.15,2.15,0,0,1-.13-.61,2.21,2.21,0,0,1,1.08-2,2.26,2.26,0,0,1,1-.3Z"/><path class="cls-2" d="M50.48,4.64q0-1.27,0-2.54a2.32,2.32,0,0,1,.15-.7A2.22,2.22,0,0,1,51.88.16a2.33,2.33,0,0,1,.7-.16h.27a2.31,2.31,0,0,1,.7.16,2.21,2.21,0,0,1,1.22,1.25,2.32,2.32,0,0,1,.15.7q0,1.27,0,2.54l2.54,0a2.26,2.26,0,0,1,1,.3,2.17,2.17,0,0,1,.49.39,2.21,2.21,0,0,1,.47,2.25,2.19,2.19,0,0,1-1,1.19,2.29,2.29,0,0,1-.94.26l-2.54,0q0,1.27,0,2.54a2.28,2.28,0,0,1-.26.94,2.22,2.22,0,0,1-1.19,1,2.2,2.2,0,0,1-2.64-1,2.3,2.3,0,0,1-.3-1q0-1.27,0-2.54l-2.54,0a2.26,2.26,0,0,1-1-.3,2.21,2.21,0,0,1-1.08-2A2.18,2.18,0,0,1,46,6.13a2.23,2.23,0,0,1,.41-.69,2.18,2.18,0,0,1,.63-.5,2.29,2.29,0,0,1,.95-.26Z"/></g></g></svg>