<svg xmlns="http://www.w3.org/2000/svg" viewBox="0 0 59.75 73.24"><defs><style>.cls-1{fill:#5c666f;}.cls-2{fill:none;stroke:#00c4b3;stroke-linecap:round;stroke-miterlimit:10;stroke-width:2px;}.cls-3{fill:#00c4b3;}</style></defs><title>persona-5</title><g id="Layer_2" data-name="Layer 2"><g id="Layer_1-2" data-name="Layer 1"><path class="cls-1" d="M18.58,10.39a3.68,3.68,0,1,1-3.68,3.68,3.69,3.69,0,0,1,3.68-3.68m0-2.3a6,6,0,1,0,6,6,6,6,0,0,0-6-6Z"/><path class="cls-1" d="M18.58,24.22A9.05,9.05,0,0,1,27.34,31H9.81a9.05,9.05,0,0,1,8.76-6.75m0-2.3a11.37,11.37,0,0,0-11,8.54,2.29,2.29,0,0,0,2.24,2.82H27.34a2.29,2.29,0,0,0,2.24-2.82,11.37,11.37,0,0,0-11-8.54Z"/><path class="cls-1" d="M48.15,0H3.5A3.5,3.5,0,0,0,0,3.5V61.85a3.5,3.5,0,0,0,3.5,3.5H48.15a3.5,3.5,0,0,0,3.5-3.5V3.5A3.5,3.5,0,0,0,48.15,0ZM3.5,3H48.15a.5.5,0,0,1,.5.5V31.17H3V3.5A.5.5,0,0,1,3.5,3ZM48.15,62.35H3.5a.5.5,0,0,1-.5-.5V34.17H48.65V61.85A.5.5,0,0,1,48.15,62.35Z"/><line class="cls-2" x1="33.25" y1="10.39" x2="43.17" y2="10.39"/><line class="cls-2" x1="33.25" y1="15.44" x2="43.17" y2="15.44"/><line class="cls-2" x1="33.25" y1="20.48" x2="43.17" y2="20.48"/><path class="cls-1" d="M42.16,39H10.76a2,2,0,0,0-2,2V55.62a2,2,0,0,0,2,2h31.4a2,2,0,0,0,2-2V41A2,2,0,0,0,42.16,39Zm0,8.25H21.37V41H42.16ZM19.37,41v6.25H10.76V41Zm-8.61,8.25h8.61v6.37H10.76Zm10.61,6.37V49.25H42.17v6.37Z"/><path class="cls-3" d="M56.25,6.59H51.65v3h4.59a.5.5,0,0,1,.5.5V38.42H51.65v3h5.09V69.74a.5.5,0,0,1-.5.5H11.81a.5.5,0,0,1-.5-.5v-4.4h-3v4.4a3.5,3.5,0,0,0,3.5,3.5H56.25a3.5,3.5,0,0,0,3.5-3.5V10.09A3.5,3.5,0,0,0,56.25,6.59Z"/></g></g></svg>