<?xml version="1.0" encoding="utf-8"?>
<!-- Generator: Adobe Illustrator 20.0.0, SVG Export Plug-In . SVG Version: 6.00 Build 0)  -->
<svg version="1.1" id="Layer_1" xmlns="http://www.w3.org/2000/svg" xmlns:xlink="http://www.w3.org/1999/xlink" x="0px" y="0px"
	 viewBox="0 0 100 100" style="enable-background:new 0 0 100 100;" xml:space="preserve">
<style type="text/css">
	.st0{fill:#FFFFFF;}
</style>
<g>
	<path class="st0" d="M93.9,79c0,0-0.1,0.1-0.1,0.1C84.3,93.7,70.8,98.9,60.2,92C41.7,79.9,20,58.3,8,39.8
		C1.1,29.2,6.3,15.7,20.9,6.2c0,0,0,0,0.1,0c5.1-3.3,13.2,0.7,18.8,9.3c5,7.8,6.4,17.2,1,20.9l-3.6,3c-0.6,0.5-0.6,1.2-0.1,1.7l0,0
		c0,0,21.9,21.9,22,22c0.5,0.4,1.2,0.2,1.6-0.2l3-3.6c3.9-5.7,13.7-3.6,20.9,1C94.9,67,96.5,74.9,93.9,79z M13.6,36.2
		c11.1,17.1,31.9,38.3,50.2,50.2c7.3,4.7,17.1,0.3,24.4-11c0,0,0.1-0.1,0.1-0.1c0.5-0.8-1.9-5.9-7.5-9.5c-7.5-4.9-11.5-3.3-11.8-2.8
		c-0.1,0.1-3.3,4-3.3,4c-2.9,3.6-8,3.7-11.2,1c-0.4-0.4-22.2-22.1-22.5-22.5c-3-3.4-2.6-8.5,0.9-11.3c0,0,3.9-3.2,4-3.3
		c1.6-1-0.2-7.7-2.8-11.8c-4.3-6.7-8.6-8-9.6-7.4c0,0,0,0-0.1,0C9.9,21.3,10.5,31.4,13.6,36.2z"/>
</g>
</svg>
