<svg xmlns="http://www.w3.org/2000/svg" viewBox="0 0 21 24"><defs><style>.cls-1{fill:#fff;}</style></defs><title>project-brief</title><g id="Layer_2" data-name="Layer 2"><g id="Layer_1-2" data-name="Layer 1"><path class="cls-1" d="M15.5,13A5.5,5.5,0,1,0,21,18.5,5.51,5.51,0,0,0,15.5,13Zm0,10A4.5,4.5,0,1,1,20,18.5,4.51,4.51,0,0,1,15.5,23Z"/><path class="cls-1" d="M15.14,21.15a.5.5,0,0,0-.14.35.5.5,0,1,0,.85-.35A.5.5,0,0,0,15.14,21.15Z"/><path class="cls-1" d="M15.5,15A2.31,2.31,0,0,0,13,16.86a.5.5,0,0,0,.46.54.51.51,0,0,0,.54-.46c0-.52.72-.95,1.5-.95s1.5.46,1.5,1-.47.8-1.49,1l-.11,0a.5.5,0,0,0-.4.49v1a.5.5,0,0,0,1,0v-.59c1.33-.31,2-1,2-1.91A2.3,2.3,0,0,0,15.5,15Z"/><path class="cls-1" d="M11,23H1.5a.5.5,0,0,1-.5-.5V3.5A.5.5,0,0,1,1.5,3H4v.5a.5.5,0,0,0,.5.5h9a.5.5,0,0,0,.5-.5V3h2.5a.5.5,0,0,1,.5.5v8a.5.5,0,0,0,1,0v-8A1.5,1.5,0,0,0,16.5,2H13.91A1.5,1.5,0,0,0,12.5,1H10.73A2,2,0,0,0,7.27,1H5.5A1.5,1.5,0,0,0,4.09,2H1.5A1.5,1.5,0,0,0,0,3.5v19A1.5,1.5,0,0,0,1.5,24H11a.5.5,0,0,0,0-1ZM5.5,2H7.59a.5.5,0,0,0,.47-.33,1,1,0,0,1,1.88,0,.5.5,0,0,0,.47.33H12.5a.5.5,0,0,1,.5.5V3H5V2.5A.5.5,0,0,1,5.5,2Z"/></g></g></svg>