<svg xmlns="http://www.w3.org/2000/svg" viewBox="0 0 85.37 105.41"><defs><style>.cls-1{fill:#5c666f;}.cls-2{fill:none;stroke:#5c666f;stroke-miterlimit:10;stroke-width:2px;}.cls-3{fill:#00c4b3;}.cls-4{fill:#fff;}</style></defs><title>prototype</title><g id="Layer_2" data-name="Layer 2"><g id="Layer_1-2" data-name="Layer 1"><path class="cls-1" d="M8.07,104.91A7.58,7.58,0,0,1,.5,97.34V8.07A7.58,7.58,0,0,1,8.07.5H48.69a7.58,7.58,0,0,1,7.57,7.57V97.34a7.58,7.58,0,0,1-7.57,7.57Zm0-100.54a3.7,3.7,0,0,0-3.7,3.7V97.34a3.7,3.7,0,0,0,3.7,3.7H48.69a3.7,3.7,0,0,0,3.7-3.7V8.07a3.7,3.7,0,0,0-3.7-3.7Z"/><path class="cls-1" d="M48.69,1a7.07,7.07,0,0,1,7.07,7.07V97.34a7.07,7.07,0,0,1-7.07,7.07H8.07A7.07,7.07,0,0,1,1,97.34V8.07A7.07,7.07,0,0,1,8.07,1H48.69M8.07,101.54H48.69a4.2,4.2,0,0,0,4.2-4.2V8.07a4.2,4.2,0,0,0-4.2-4.2H8.07a4.2,4.2,0,0,0-4.2,4.2V97.34a4.2,4.2,0,0,0,4.2,4.2M48.69,0H8.07A8.08,8.08,0,0,0,0,8.07V97.34a8.08,8.08,0,0,0,8.07,8.07H48.69a8.08,8.08,0,0,0,8.07-8.07V8.07A8.08,8.08,0,0,0,48.69,0ZM8.07,100.54a3.2,3.2,0,0,1-3.2-3.2V8.07a3.2,3.2,0,0,1,3.2-3.2H48.69a3.2,3.2,0,0,1,3.2,3.2V97.34a3.2,3.2,0,0,1-3.2,3.2Z"/><rect class="cls-1" x="15.27" y="19.39" width="26.22" height="3.76"/><rect class="cls-1" x="20.85" y="27" width="15.05" height="1.85"/><rect class="cls-1" x="20.85" y="42.16" width="15.05" height="2.63"/><rect class="cls-1" x="9.35" y="35.22" width="38.07" height="1.14"/><rect class="cls-1" x="16.69" y="87.39" width="20.06" height="1.35"/><path class="cls-1" d="M7.3,89.25H49.46V11.68H7.3ZM9.83,14.69H46.94V86.24H9.83Z"/><path class="cls-1" d="M28.38,91.06a4.49,4.49,0,1,0,4.49,4.49A4.49,4.49,0,0,0,28.38,91.06Zm0,6.46a2,2,0,1,1,2-2A2,2,0,0,1,28.38,97.51Z"/><rect class="cls-1" x="25.47" y="51.4" width="17.42" height="2.51"/><rect class="cls-1" x="25.57" y="55.6" width="17.41" height="1.15"/><rect class="cls-1" x="25.57" y="57.4" width="16.57" height="1.15"/><rect class="cls-1" x="25.57" y="59.17" width="17.53" height="1.15"/><rect class="cls-2" x="14.72" y="52.15" width="7.46" height="7.46"/><rect class="cls-1" x="25.47" y="63.57" width="17.42" height="2.51"/><rect class="cls-1" x="25.57" y="67.77" width="17.41" height="1.15"/><rect class="cls-1" x="25.57" y="69.57" width="16.57" height="1.15"/><rect class="cls-1" x="25.57" y="71.34" width="17.53" height="1.15"/><rect class="cls-2" x="14.72" y="64.32" width="7.46" height="7.46"/><rect class="cls-1" x="25.47" y="75.48" width="17.42" height="2.51"/><rect class="cls-1" x="25.57" y="79.68" width="17.41" height="1.15"/><rect class="cls-1" x="25.57" y="81.48" width="16.57" height="1.15"/><rect class="cls-1" x="25.57" y="83.25" width="17.53" height="1.15"/><rect class="cls-2" x="14.72" y="76.23" width="7.46" height="7.46"/><path class="cls-3" d="M84,85c-.81-.81-1.58-3.26-2.25-5.43-1.16-3.72-2.48-7.93-5.45-10.91L70.61,63l-.2-.2-.07,0L67.8,60.17a6,6,0,0,0-8.45,0,6.06,6.06,0,0,0-.73.89,7,7,0,0,0-6.34,2,7,7,0,0,0-1.23,1.65,7,7,0,0,0-6.55,1.89,6.6,6.6,0,0,0-.65.75l-11-11a6.49,6.49,0,1,0-9.18,9.18l8.94,8.94L38.15,80h0a7,7,0,0,0-.07,9.82l9.38,9.38.09.08.12.13c2.41,2.41,6.86,2.73,11.57,3.07,2.12.15,5.64.4,6.5,1l.72.72a1.92,1.92,0,0,0,2.71,0L84.81,88.49a1.92,1.92,0,0,0,0-2.71ZM68.9,100.16a2,2,0,0,1-2.14.44c-3.93-1.69-14.18-.51-17-3.33a.48.48,0,0,1-.09-.11l-.12-.09-9.38-9.38a4,4,0,0,1,.07-5.58l7,7a1.38,1.38,0,0,0,1.91-.22c.59-.59.69-1.29.23-1.76L34.77,72.67h0l-8.93-9.1a3.62,3.62,0,0,1-.06-5.07,3.52,3.52,0,0,1,5,0L46.54,74.27a4,4,0,0,1,5.65-5.65l2.12,2.11A4,4,0,0,1,60,65l1.46,1.46a3,3,0,0,1,4.23-4.22L68.42,65l.07,0,5.72,5.72c3.94,3.94,4.63,11.4,6.79,15.11a2,2,0,0,1-.29,2.43Z"/><path class="cls-4" d="M80.77,88.29,68.86,100.2a1.84,1.84,0,0,1-2,.42c-3.89-1.72-14.22-.52-17-3.35a.48.48,0,0,1-.09-.11l-.12-.09-9.38-9.38a4,4,0,0,1,.07-5.58l7,7a1.38,1.38,0,0,0,1.91-.22c.59-.59.69-1.29.23-1.76L34.77,72.67h0l-8.93-9.1a3.62,3.62,0,0,1-.06-5.07,3.52,3.52,0,0,1,5,0L46.54,74.27a4,4,0,0,1,5.65-5.65l2.12,2.11A4,4,0,0,1,60,65l1.46,1.46a3,3,0,0,1,4.23-4.22L68.42,65l.07,0,5.72,5.72c4,4,4.64,11.49,6.83,15.18A1.89,1.89,0,0,1,80.77,88.29Z"/></g></g></svg>