<svg xmlns="http://www.w3.org/2000/svg" xmlns:xlink="http://www.w3.org/1999/xlink" viewBox="0 0 352.21 309.19"><defs><style>.cls-1,.cls-14,.cls-15,.cls-3,.cls-4,.cls-5,.cls-8,.cls-9{fill:none;}.cls-2{clip-path:url(#clip-path);}.cls-3,.cls-9{stroke:#00c4b3;}.cls-14,.cls-15,.cls-3,.cls-4,.cls-5,.cls-8,.cls-9{stroke-miterlimit:10;}.cls-3{stroke-width:2px;}.cls-4,.cls-8{stroke:#5c666f;}.cls-4{stroke-width:3px;}.cls-5{stroke:#f5f8fa;}.cls-14,.cls-15,.cls-5,.cls-8,.cls-9{stroke-width:5px;}.cls-6{font-size:14px;font-family:ProximaNova-Semibold, Proxima Nova;font-weight:700;}.cls-10,.cls-6{fill:#5c666f;}.cls-7{letter-spacing:-0.01em;}.cls-15,.cls-8,.cls-9{stroke-linecap:round;}.cls-11{fill:#52565a;}.cls-12{fill:#fff;}.cls-13{fill:#00c4b3;}.cls-14,.cls-15{stroke:#52565a;}</style><clipPath id="clip-path"><path class="cls-1" d="M204.55,134a78.65,78.65,0,0,1-29.37,61.37,78.79,78.79,0,0,1,0-122.74A78.65,78.65,0,0,1,204.55,134Z"/></clipPath></defs><title>services-venn-diagram_1</title><g id="Layer_2" data-name="Layer 2"><g id="Layer_1-2" data-name="Layer 1"><path class="cls-1" d="M303.44,134a78.81,78.81,0,0,1-128.26,61.37,78.8,78.8,0,0,0,0-122.74A78.81,78.81,0,0,1,303.44,134Z"/><g class="cls-2"><line class="cls-3" x1="203.26" y1="45.97" x2="141.26" y2="107.97"/><line class="cls-3" x1="203.26" y1="62.01" x2="141.26" y2="124.01"/><line class="cls-3" x1="203.26" y1="78.05" x2="141.26" y2="140.05"/><line class="cls-3" x1="203.26" y1="94.09" x2="141.26" y2="156.09"/><line class="cls-3" x1="203.26" y1="110.12" x2="141.26" y2="172.12"/><line class="cls-3" x1="203.26" y1="126.16" x2="141.26" y2="188.16"/><line class="cls-3" x1="203.26" y1="142.2" x2="141.26" y2="204.2"/><line class="cls-3" x1="203.26" y1="158.23" x2="141.26" y2="220.23"/><line class="cls-3" x1="203.26" y1="174.27" x2="141.26" y2="236.27"/><line class="cls-3" x1="203.26" y1="190.31" x2="141.26" y2="252.31"/><line class="cls-4" x1="203.26" y1="37.97" x2="141.26" y2="99.97"/><line class="cls-4" x1="203.26" y1="54.01" x2="141.26" y2="116.01"/><line class="cls-4" x1="203.26" y1="70.05" x2="141.26" y2="132.05"/><line class="cls-4" x1="203.26" y1="86.09" x2="141.26" y2="148.09"/><line class="cls-4" x1="203.26" y1="102.12" x2="141.26" y2="164.12"/><line class="cls-4" x1="203.26" y1="118.16" x2="141.26" y2="180.16"/><line class="cls-4" x1="203.26" y1="134.2" x2="141.26" y2="196.2"/><line class="cls-4" x1="203.26" y1="150.23" x2="141.26" y2="212.23"/><line class="cls-4" x1="203.26" y1="166.27" x2="141.26" y2="228.27"/><line class="cls-4" x1="203.26" y1="182.31" x2="141.26" y2="244.31"/></g><path class="cls-5" d="M175.18,195.41a78.82,78.82,0,1,1,0-122.74,78.79,78.79,0,0,0,0,122.74Z"/><text class="cls-6" transform="translate(66.17 129.92)">PRODUCT <tspan x="2.45" y="16.8">THINKING</tspan></text><text class="cls-6" transform="translate(131.03 305.26)">MY SE<tspan class="cls-7" x="40.6" y="0">R</tspan><tspan x="49.25" y="0">VICES</tspan></text><text class="cls-6" transform="translate(235.65 129.92)">UX <tspan x="-13.58" y="16.8">DESIGN</tspan></text><path class="cls-8" d="M169.42,190.31A78.82,78.82,0,0,1,170.24,77"/><path class="cls-9" d="M180.87,68.46a78.82,78.82,0,1,1-.78,130.64"/><path class="cls-8" d="M170.21,199.12A78.82,78.82,0,1,1,168.74,68"/><path class="cls-9" d="M180.09,77a78.82,78.82,0,0,1,.83,113.33"/><circle class="cls-10" cx="175.15" cy="72.54" r="2.5"/><circle class="cls-10" cx="175.15" cy="195.1" r="2.5"/><circle class="cls-11" cx="199.57" cy="4.07" r="4.07"/><circle class="cls-11" cx="62.21" cy="42.14" r="4.07"/><circle class="cls-11" cx="348.14" cy="176.04" r="4.07"/><circle class="cls-11" cx="115.71" cy="237.97" r="4.07"/><circle class="cls-12" cx="330.52" cy="38.07" r="4.07"/><circle class="cls-12" cx="199.57" cy="251.61" r="4.07"/><circle class="cls-12" cx="111.64" cy="12.21" r="4.07"/><circle class="cls-12" cx="18.97" cy="158.61" r="4.07"/><path class="cls-13" d="M338.49,86h-3.28V82.58c0-2-2-3.54-4-3.54s-4,1.59-4,3.54V86h-4.66c-2,0-3.54,2-3.54,4s1.59,4,3.54,4h4.66v4.49c0,2,2,3.54,4,3.54s4-1.59,4-3.54V94h3.28c2,0,3.54-2,3.54-4S340.45,86,338.49,86Z"/><path class="cls-13" d="M19.49,96H16.21V92.58c0-2-2-3.54-4-3.54s-4,1.59-4,3.54V96H3.54c-2,0-3.54,2-3.54,4s1.59,4,3.54,4H8.21v4.49c0,2,2,3.54,4,3.54s4-1.59,4-3.54V104h3.28c2,0,3.54-2,3.54-4S21.45,96,19.49,96Z"/><path class="cls-12" d="M74.49,256H71.21v-3.46c0-2-2-3.54-4-3.54s-4,1.59-4,3.54V256H58.54c-2,0-3.54,2-3.54,4s1.59,4,3.54,4h4.66v4.49c0,2,2,3.54,4,3.54s4-1.59,4-3.54V264h3.28c2,0,3.54-2,3.54-4S76.45,256,74.49,256Z"/><path class="cls-13" d="M247.71,240h-2.51v-2.51a2.5,2.5,0,0,0-5,0V240h-3.71c-1.38,0-2.49,1.62-2.49,3s1.12,3,2.49,3h3.71v2.71a2.5,2.5,0,0,0,5,0V246h2.51c1.38,0,2.49-1.62,2.49-3S249.09,240,247.71,240Z"/><path class="cls-12" d="M160.49,29h-3.28V25.58c0-2-2-3.54-4-3.54s-4,1.59-4,3.54V29h-4.66c-2,0-3.54,2-3.54,4s1.59,4,3.54,4h4.66v4.49c0,2,2,3.54,4,3.54s4-1.59,4-3.54V37h3.28c2,0,3.54-2,3.54-4S162.45,29,160.49,29Z"/><path class="cls-11" d="M330.25,217h-4v-3.28a4,4,0,0,0-8,0V217h-4.44c-2,0-3.66,2.48-3.66,4.5s1.64,4.5,3.66,4.5h4.44v4.2a4,4,0,0,0,8,0V226h4c2,0,3.66-2.48,3.66-4.5S332.27,217,330.25,217Z"/><path class="cls-11" d="M264.81,21h-2.61V18.68c0-1.43-1.57-2.58-3-2.58s-3,1.16-3,2.58V21h-3c-1.43,0-2.58,1.57-2.58,3s1.16,3,2.58,3h3v3.25c0,1.43,1.57,2.58,3,2.58s3-1.16,3-2.58V27h2.61c1.43,0,2.58-1.57,2.58-3S266.24,21,264.81,21Z"/><path class="cls-11" d="M37.81,194H35.21v-2.36c0-1.43-1.57-2.58-3-2.58s-3,1.16-3,2.58V194h-3c-1.43,0-2.58,1.57-2.58,3s1.16,3,2.58,3h3v3.25c0,1.43,1.57,2.58,3,2.58s3-1.16,3-2.58V200h2.61c1.43,0,2.58-1.57,2.58-3S39.24,194,37.81,194Z"/><circle class="cls-14" cx="175.15" cy="158.61" r="8.74"/><line class="cls-15" x1="175.15" y1="167.35" x2="175.15" y2="273.97"/></g></g></svg>