<svg xmlns="http://www.w3.org/2000/svg" xmlns:xlink="http://www.w3.org/1999/xlink" viewBox="0 0 971.5 302.26"><defs><style>.cls-1,.cls-10,.cls-11,.cls-12,.cls-15,.cls-6,.cls-7,.cls-8{fill:none;}.cls-2,.cls-9{fill:#5c666f;}.cls-3{fill:#00c4b3;}.cls-4{fill:#fff;}.cls-5{clip-path:url(#clip-path);}.cls-11,.cls-6{stroke:#00c4b3;}.cls-10,.cls-11,.cls-12,.cls-15,.cls-6,.cls-7,.cls-8{stroke-miterlimit:10;}.cls-6{stroke-width:2px;}.cls-10,.cls-12,.cls-15,.cls-7{stroke:#5c666f;}.cls-7{stroke-width:3px;}.cls-8{stroke:#f5f8fa;}.cls-10,.cls-11,.cls-12,.cls-8{stroke-width:5px;}.cls-9{font-size:14px;font-family:ProximaNova-Semibold, Proxima Nova;font-weight:700;}.cls-10,.cls-11,.cls-15{stroke-linecap:round;}.cls-13{fill:#00a99d;}.cls-14{fill:#f5f8fa;}</style><clipPath id="clip-path"><path class="cls-1" d="M515.13,130a78.65,78.65,0,0,1-29.37,61.37,78.79,78.79,0,0,1,0-122.74A78.65,78.65,0,0,1,515.13,130Z"/></clipPath></defs><title>services-venn-diagram</title><g id="Layer_2" data-name="Layer 2"><g id="Layer_1-2" data-name="Layer 1"><circle class="cls-2" cx="492.82" cy="4.07" r="4.07"/><circle class="cls-2" cx="107.67" cy="72.8" r="4.07"/><circle class="cls-2" cx="367.67" cy="38.07" r="4.07"/><circle class="cls-3" cx="931.11" cy="28.8" r="4.07"/><circle class="cls-2" cx="653.6" cy="171.97" r="4.07"/><circle class="cls-2" cx="820.5" cy="139.93" r="6.12"/><circle class="cls-3" cx="164.49" cy="217.57" r="6.93"/><circle class="cls-3" cx="726.26" cy="233.9" r="4.07"/><circle class="cls-3" cx="4.07" cy="100.62" r="4.07"/><circle class="cls-2" cx="421.17" cy="233.9" r="4.07"/><circle class="cls-4" cx="635.98" cy="34" r="4.07"/><circle class="cls-4" cx="505.03" cy="247.54" r="4.07"/><circle class="cls-4" cx="868.74" cy="51.07" r="4.07"/><circle class="cls-4" cx="417.1" cy="8.14" r="4.07"/><circle class="cls-4" cx="67.6" cy="25.3" r="4.07"/><circle class="cls-4" cx="324.43" cy="154.54" r="4.07"/><path class="cls-3" d="M644,82h-3.2V78.52c0-2-2-3.54-4-3.54s-4,1.59-4,3.54V82H628c-2,0-3.54,2-3.54,4S626,90,628,90h4.74v4.49c0,2,2,3.54,4,3.54s4-1.59,4-3.54V90H644c2,0,3.54-2,3.54-4S645.91,82,644,82Z"/><path class="cls-3" d="M968.57,179h-2.82V175.9a3,3,0,0,0-6,0V179h-4.36a3,3,0,0,0,0,6h4.36v4.11a3,3,0,0,0,6,0V185h2.82a3,3,0,0,0,0-6Z"/><path class="cls-3" d="M325,92h-3.2V88.52c0-2-2-3.54-4-3.54s-4,1.59-4,3.54V92H309c-2,0-3.54,2-3.54,4s1.59,4,3.54,4h4.74v4.49c0,2,2,3.54,4,3.54s4-1.59,4-3.54V100H325c2,0,3.54-2,3.54-4S326.91,92,325,92Z"/><path class="cls-4" d="M294,235h-3.2v-3.46c0-2-2-3.54-4-3.54s-4,1.59-4,3.54V235H278c-2,0-3.54,2-3.54,4s1.59,4,3.54,4h4.74v4.49c0,2,2,3.54,4,3.54s4-1.59,4-3.54V243H294c2,0,3.54-2,3.54-4S295.91,235,294,235Z"/><path class="cls-3" d="M553.17,236h-2.43v-2.51a2.5,2.5,0,0,0-5,0V236H542c-1.38,0-2.49,1.62-2.49,3s1.12,3,2.49,3h3.79v2.71a2.5,2.5,0,0,0,5,0V242h2.43c1.38,0,2.49-1.62,2.49-3S554.55,236,553.17,236Z"/><path class="cls-4" d="M472,25h-3.2V21.52c0-2-2-3.54-4-3.54s-4,1.59-4,3.54V25H456c-2,0-3.54,2-3.54,4S454,33,456,33h4.74v4.49c0,2,2,3.54,4,3.54s4-1.59,4-3.54V33H472c2,0,3.54-2,3.54-4S473.91,25,472,25Z"/><path class="cls-4" d="M784,172h-3.2v-3.46c0-2-2-3.54-4-3.54s-4,1.59-4,3.54V172H768c-2,0-3.54,2-3.54,4s1.59,4,3.54,4h4.74v4.49c0,2,2,3.54,4,3.54s4-1.59,4-3.54V180H784c2,0,3.54-2,3.54-4S785.91,172,784,172Z"/><path class="cls-4" d="M66,167h-3.2v-3.46c0-2-2-3.54-4-3.54s-4,1.59-4,3.54V167H50c-2,0-3.54,2-3.54,4S48,175,50,175h4.74v4.49c0,2,2,3.54,4,3.54s4-1.59,4-3.54V175H66c2,0,3.54-2,3.54-4S67.91,167,66,167Z"/><path class="cls-2" d="M635.71,213h-4v-3.28a4,4,0,0,0-8,0V213h-4.52c-2,0-3.66,2.48-3.66,4.5s1.64,4.5,3.66,4.5h4.52v4.2a4,4,0,0,0,8,0V222h4c2,0,3.66-2.48,3.66-4.5S637.73,213,635.71,213Z"/><path class="cls-2" d="M167.88,127h-2.13V124.9a2,2,0,0,0-4,0V127h-2.31a2,2,0,0,0,0,4h2.31v2.37a2,2,0,0,0,4,0V131h2.13a2,2,0,0,0,0-4Z"/><path class="cls-2" d="M570.28,17h-2.53V14.61c0-1.43-1.57-2.58-3-2.58s-3,1.16-3,2.58V17h-3.09c-1.43,0-2.58,1.57-2.58,3s1.16,3,2.58,3h3.09v3.25c0,1.43,1.57,2.58,3,2.58s3-1.16,3-2.58V23h2.53c1.43,0,2.58-1.57,2.58-3S571.7,17,570.28,17Z"/><path class="cls-2" d="M740.28,61h-2.53V58.61c0-1.43-1.57-2.58-3-2.58s-3,1.16-3,2.58V61h-3.09c-1.43,0-2.58,1.57-2.58,3s1.16,3,2.58,3h3.09v3.25c0,1.43,1.57,2.58,3,2.58s3-1.16,3-2.58V67h2.53c1.43,0,2.58-1.57,2.58-3S741.7,61,740.28,61Z"/><path class="cls-2" d="M343.28,190h-2.53v-2.36c0-1.43-1.57-2.58-3-2.58s-3,1.16-3,2.58V190h-3.09c-1.43,0-2.58,1.57-2.58,3s1.16,3,2.58,3h3.09v3.25c0,1.43,1.57,2.58,3,2.58s3-1.16,3-2.58V196h2.53c1.43,0,2.58-1.57,2.58-3S344.7,190,343.28,190Z"/><path class="cls-2" d="M113.28,22h-2.53V19.61c0-1.43-1.57-2.58-3-2.58s-3,1.16-3,2.58V22h-3.09c-1.43,0-2.58,1.57-2.58,3s1.16,3,2.58,3h3.09v3.25c0,1.43,1.57,2.58,3,2.58s3-1.16,3-2.58V28h2.53c1.43,0,2.58-1.57,2.58-3S114.7,22,113.28,22Z"/><path class="cls-1" d="M614,130a78.81,78.81,0,0,1-128.26,61.37,78.8,78.8,0,0,0,0-122.74A78.81,78.81,0,0,1,614,130Z"/><g class="cls-5"><line class="cls-6" x1="513.84" y1="41.9" x2="451.84" y2="103.9"/><line class="cls-6" x1="513.84" y1="57.94" x2="451.84" y2="119.94"/><line class="cls-6" x1="513.84" y1="73.98" x2="451.84" y2="135.98"/><line class="cls-6" x1="513.84" y1="90.02" x2="451.84" y2="152.02"/><line class="cls-6" x1="513.84" y1="106.05" x2="451.84" y2="168.05"/><line class="cls-6" x1="513.84" y1="122.09" x2="451.84" y2="184.09"/><line class="cls-6" x1="513.84" y1="138.13" x2="451.84" y2="200.13"/><line class="cls-6" x1="513.84" y1="154.16" x2="451.84" y2="216.16"/><line class="cls-6" x1="513.84" y1="170.2" x2="451.84" y2="232.2"/><line class="cls-6" x1="513.84" y1="186.24" x2="451.84" y2="248.24"/><line class="cls-7" x1="513.84" y1="33.9" x2="451.84" y2="95.9"/><line class="cls-7" x1="513.84" y1="49.94" x2="451.84" y2="111.94"/><line class="cls-7" x1="513.84" y1="65.98" x2="451.84" y2="127.98"/><line class="cls-7" x1="513.84" y1="82.02" x2="451.84" y2="144.02"/><line class="cls-7" x1="513.84" y1="98.05" x2="451.84" y2="160.05"/><line class="cls-7" x1="513.84" y1="114.09" x2="451.84" y2="176.09"/><line class="cls-7" x1="513.84" y1="130.13" x2="451.84" y2="192.13"/><line class="cls-7" x1="513.84" y1="146.16" x2="451.84" y2="208.16"/><line class="cls-7" x1="513.84" y1="162.2" x2="451.84" y2="224.2"/><line class="cls-7" x1="513.84" y1="178.24" x2="451.84" y2="240.24"/></g><path class="cls-8" d="M485.76,191.34a78.82,78.82,0,1,1,0-122.74,78.79,78.79,0,0,0,0,122.74Z"/><text class="cls-9" transform="translate(376.75 125.85)">PRODUCT <tspan x="2.45" y="16.8">THINKING</tspan></text><text class="cls-9" transform="translate(546.23 125.85)">UX <tspan x="-13.58" y="16.8">DESIGN</tspan></text><path class="cls-10" d="M480,186.24a78.82,78.82,0,0,1,.83-113.33"/><path class="cls-11" d="M491.45,64.39A78.82,78.82,0,1,1,490.68,195"/><path class="cls-10" d="M480.79,195a78.82,78.82,0,1,1-1.47-131.14"/><path class="cls-11" d="M490.67,72.9a78.82,78.82,0,0,1,.83,113.33"/><circle class="cls-2" cx="485.73" cy="68.47" r="2.5"/><circle class="cls-2" cx="485.73" cy="191.03" r="2.5"/><circle class="cls-12" cx="485.73" cy="154.54" r="8.74"/><line class="cls-10" x1="485.73" y1="163.28" x2="485.73" y2="299.76"/><path class="cls-13" d="M266.73,170.55H242.15v-21a3.62,3.62,0,0,1,3.62-3.62h17.35a3.62,3.62,0,0,1,3.62,3.62ZM245,168.85H263.9V149.58a.79.79,0,0,0-.79-.79H245.76a.79.79,0,0,0-.79.79Z"/><path class="cls-13" d="M266.73,154.44h-3.1a5.38,5.38,0,0,1-5.37-5.37V146h4.64a3.84,3.84,0,0,1,3.83,3.83Zm-5.64-5.64v.27a2.54,2.54,0,0,0,2.54,2.54h.27v-1.81a1,1,0,0,0-1-1Z"/><path class="cls-13" d="M245.25,154.44h-3.1v-4.64A3.84,3.84,0,0,1,246,146h4.64v3.1A5.38,5.38,0,0,1,245.25,154.44ZM245,151.6h.27a2.54,2.54,0,0,0,2.54-2.54v-.27H246a1,1,0,0,0-1,1Z"/><path class="cls-13" d="M238.57,157.37l5.13-1.58-.32-2.87-5.6,1.72v0l-4.46,1.3a3.78,3.78,0,0,0-1,.45,3.61,3.61,0,0,0-1.8,4.28l2.69,8.74,2.82-.48-1.4-4.55.33-.1a5.37,5.37,0,0,0,3.65-6.66Zm-2.86,3a2.52,2.52,0,0,1-1.51,1.22l-.26.08-.51-1.74a1,1,0,0,1,.3-1l.05,0,2.08-.64.06.2A2.53,2.53,0,0,1,235.71,160.34Z"/><path class="cls-13" d="M270.11,157.61a5.37,5.37,0,0,0,3.65,6.66l.33.1-1.4,4.55,2.82.48,2.69-8.74a3.61,3.61,0,0,0-1.8-4.28,3.78,3.78,0,0,0-1-.45l-4.46-1.3v0l-5.6-1.72-.32,2.87,5.13,1.58Zm2.72.79.06-.2,2.08.64.05,0a1,1,0,0,1,.3,1l-.51,1.74-.26-.08a2.54,2.54,0,0,1-1.72-3.15Z"/><path class="cls-2" d="M274.77,196H234.25a3.69,3.69,0,0,1-3.68-3.68V171.4a3.69,3.69,0,0,1,3.68-3.68h40.51a3.69,3.69,0,0,1,3.68,3.68v20.9A3.69,3.69,0,0,1,274.77,196Zm-40.51-25.43a.85.85,0,0,0-.85.85v20.9a.85.85,0,0,0,.85.85h40.51a.85.85,0,0,0,.85-.85V171.4a.85.85,0,0,0-.85-.85Z"/><path class="cls-1" d="M831.75,215h8v-7h-8Zm3.73-4.29a.93.93,0,1,1-.92.93A.93.93,0,0,1,835.48,210.68Z"/><polygon class="cls-1" points="859.05 182.73 849.49 192.3 842.08 210.18 864.29 187.97 859.05 182.73"/><polygon class="cls-1" points="831.75 205.97 836.88 205.97 839.75 205.97 839.75 174.97 831.75 174.97 831.75 205.97"/><polygon class="cls-1" points="868.27 194.05 855.58 199.31 841.89 212.99 871.11 200.89 868.27 194.05"/><polygon class="cls-1" points="840.75 207.87 852.91 178.81 846.03 175.97 840.75 188.52 840.75 206.84 840.75 207.87"/><polygon class="cls-1" points="841.14 214.97 872.75 214.97 872.75 207.97 859.02 207.97 841.14 214.97"/><circle class="cls-3" cx="835.48" cy="211.6" r="0.93"/><path class="cls-2" d="M873.44,206h-9.95l9.19-3.77a.9.9,0,0,0,.5-1.19l-3.54-8.54a.92.92,0,0,0-1.21-.49L859,195.88l7.26-7.26a.93.93,0,0,0,0-1.31l-6.55-6.55a.93.93,0,0,0-1.31,0l-7.06,7.06,3.8-9.17a.92.92,0,0,0-.5-1.21l-8.55-3.54a.92.92,0,0,0-.35-.07,1.14,1.14,0,0,0-1,.57l-4,9.27v4.84L846.09,176l6.73,2.83-12.14,29.06-1.89,9.1h34.64c.51,0,1.31-.23,1.31-.74V207C874.75,206.46,873.95,206,873.44,206Zm-24-13.67,9.57-9.57,5.24,5.24-22.21,22.21Zm6.09,7,12.7-5.26,2.83,6.84L841.89,213ZM872.75,215H841.14L859,208h13.73Z"/><rect class="cls-3" x="829.67" y="172.97" width="11" height="44" rx="1.71" ry="1.71"/><rect class="cls-14" x="831.54" y="174.97" width="7.25" height="31"/><rect class="cls-14" x="831.54" y="207.87" width="7.25" height="7.1"/><circle class="cls-3" cx="835.17" cy="211.42" r="0.92"/><path class="cls-2" d="M58.59,90.85a16,16,0,0,0,16-16V73L77,75.45a1.85,1.85,0,0,0,2.5,0A1.74,1.74,0,0,0,80,74.2a2,2,0,0,0-.5-1.25L74,67.45a1.83,1.83,0,0,0-2.45,0l-5.9,5.5a1.63,1.63,0,0,0-.55,1.25,1.92,1.92,0,0,0,.45,1.25,1.8,1.8,0,0,0,2.5.1l3-2.75V74.9a12.5,12.5,0,0,1-12.5,12.5h-6a16,16,0,0,0-16,14.45v.2l-.2,0a6.69,6.69,0,1,0,8.6,6.4,6.76,6.76,0,0,0-4.6-6.35l-.25-.1.05-.25a12.48,12.48,0,0,1,12.35-11h5.95Zm-17,17.7a3.2,3.2,0,1,1-3.2-3.2A3.22,3.22,0,0,1,41.59,108.55Z"/><path class="cls-2" d="M69.24,109l-2.85-2.7,2.85-2.7a1.7,1.7,0,0,0,.55-1.25,1.66,1.66,0,0,0-.5-1.25,1.8,1.8,0,0,0-2.5,0l-3,2.8-3-2.8a1.8,1.8,0,0,0-2.5,0,1.74,1.74,0,0,0-.5,1.25,1.79,1.79,0,0,0,.55,1.25l2.85,2.7L58.44,109a1.75,1.75,0,0,0,0,2.5,1.8,1.8,0,0,0,2.5,0l3-2.8,3,2.8a1.85,1.85,0,0,0,2.5,0A1.8,1.8,0,0,0,69.24,109Z"/><path class="cls-3" d="M51.89,77.9l-2.8-2.7,2.85-2.7A1.75,1.75,0,0,0,52,70a1.8,1.8,0,0,0-2.5,0l-2.95,2.8-2.95-2.8a1.77,1.77,0,1,0-2.45,2.55l2.8,2.7-2.85,2.7a1.7,1.7,0,0,0-.55,1.25A1.74,1.74,0,0,0,41,80.4a1.8,1.8,0,0,0,2.5.05l2.95-2.8,3,2.8a1.85,1.85,0,0,0,2.5-.05,1.74,1.74,0,0,0,.5-1.25A1.7,1.7,0,0,0,51.89,77.9Z"/><path class="cls-2" d="M176.88,62.18l-1.66,2.89a1.33,1.33,0,0,0,.49,1.81h0l8.65,5a1.32,1.32,0,0,0,1.8-.48l3.32-5.76,4.95,3,.08,0a12.41,12.41,0,0,0,3.66,8.84,4.08,4.08,0,0,0-.5,2.55,4.26,4.26,0,0,0,.54,1.6,4,4,0,0,0,4,1.78,4.06,4.06,0,0,0,.32,2.44,4.21,4.21,0,0,0,5.57,1.58,3.93,3.93,0,0,0,.23,1.8,4.26,4.26,0,0,0,5.79,1.56l3.07-1.78,3.06,1.77a4.26,4.26,0,0,0,5.79-1.56,3.93,3.93,0,0,0,.23-1.8,4.21,4.21,0,0,0,5.57-1.58,4.06,4.06,0,0,0,.32-2.44,4,4,0,0,0,4-1.78,3.8,3.8,0,0,0-.21-3.9A12.42,12.42,0,0,0,240,68.7L245,65.78l3.24,5.62a1.32,1.32,0,0,0,1.8.49l8.66-5a1.33,1.33,0,0,0,.48-1.8L245.91,42a1.32,1.32,0,0,0-1.81-.48h0l-8.65,5a1.33,1.33,0,0,0-.49,1.81h0l.43.74L230.3,52c-.25-.14-.48-.3-.73-.43a12.48,12.48,0,0,0-7-1.18,12.28,12.28,0,0,0-2.39.53,12.41,12.41,0,0,0-2.3,1h0l-.34.2-.32.18-.69-.37a13,13,0,0,0-4.7-1.5v0A12.59,12.59,0,0,0,204.18,52l0,0-5-3.06.36-.62a1.33,1.33,0,0,0-.49-1.81h0l-8.65-5a1.32,1.32,0,0,0-1.81.49ZM187.5,49.06l1.66-2.89,1-1.74,6.36,3.68-12,20.82-6.36-3.68Zm68.78,16.19-6.36,3.68-12-20.82,6.36-3.68ZM197.81,51.2l4,2.47a12.39,12.39,0,0,0-2.29,2.87l-3.42,5.93a12.41,12.41,0,0,0-1.28,3.36l-4.06-2.48Zm38.9.13,7,12.15-4.12,2.38a12.47,12.47,0,0,0-1.19-3.15,1.32,1.32,0,0,0-.11-.24l-3.42-5.93a12.54,12.54,0,0,0-2.25-2.85Zm-11.92,1.6a9.72,9.72,0,0,1,4.73,1.68h0l.14.09a9.9,9.9,0,0,1,2.93,3.17L236,63.79a9.85,9.85,0,0,1,1.27,4.14,1.32,1.32,0,0,0,0,.32,9.79,9.79,0,0,1-.19,2.54,4.14,4.14,0,0,0-1-.78l-11.58-6.69a4.6,4.6,0,0,0-.45-2.46,1.32,1.32,0,0,0-.15-.34h0a4.54,4.54,0,0,0-.56-.77,4.68,4.68,0,0,0-3.24-1.51,5,5,0,0,0-.93,0,4.92,4.92,0,0,0-1.79.62l-.05,0L211,62.62a1.32,1.32,0,0,0-.25.17l-.11.07a3,3,0,0,1-1.15.39,4.49,4.49,0,0,1-3.46-1.4l3.85-2.23,8-4.65h0l1.25-.73A9.75,9.75,0,0,1,224.79,52.92ZM209.63,53a10.25,10.25,0,0,1,4.83.91L212.54,55l-.15.09-3.81,2.2-5.41,3.14a1.33,1.33,0,0,0-.53.58l-.05.12h0a1.32,1.32,0,0,0,.06,1l0,.07h0A6.9,6.9,0,0,0,212,65.14l6.31-3.65.05,0,.06,0,.11-.08.18-.11.08,0a2.4,2.4,0,0,1,.84-.3,2,2,0,0,1,1.53.36,2,2,0,0,1,.25.28,1.32,1.32,0,0,0-.93,2.45l.36.21a1.32,1.32,0,0,0,.21.14l1.26.73a1.32,1.32,0,0,0,.29.17l12.24,7.08a1.6,1.6,0,0,1-1.59,2.77l-13.71-7.93-1.44-.83a1.32,1.32,0,0,0-1.32,2.29l1.44.83,13.71,7.93h0l1.44.83a1.57,1.57,0,0,1,.58,2.18h0a1.55,1.55,0,0,1-2.17.58l-1.44-.83L216.62,72.2l-1.44-.83a1.32,1.32,0,0,0-1.32,2.29l1.44.83L229,82.42a1.59,1.59,0,0,1-1.59,2.77l-2.89-1.67-12.26-7.09-2.89-1.67A1.32,1.32,0,0,0,208.06,77l2.88,1.67,3,1.73,9.26,5.36a1.59,1.59,0,1,1-1.59,2.76l-14.26-8.24h0l-.86-.5h0L202,77.25a9.79,9.79,0,0,1-3.56-13.44l3.42-5.93A9.68,9.68,0,0,1,209.63,53Zm-26.41,9.23a1.67,1.67,0,1,0,.8.22h0A1.66,1.66,0,0,0,183.22,62.23Zm68,0a1.67,1.67,0,0,0-1.41,2.5h0a1.67,1.67,0,1,0,1.41-2.5Zm-50.89,17c.12.07.21.17.33.24l2.25,1.31-.24.14a1.55,1.55,0,0,1-2.17-.58,1.43,1.43,0,0,1-.17-1.11Zm5.21,3.08.46.26h0l2.73,1.58-1.72,1a1.6,1.6,0,0,1-1.59-2.77Zm5.84,3.37,3.19,1.85-1.75,1a1.59,1.59,0,1,1-1.59-2.76Z"/><circle class="cls-3" cx="251.26" cy="63.9" r="1.67"/><circle class="cls-3" cx="183.19" cy="63.9" r="1.67"/><path class="cls-2" d="M739.1,175H720.31c-.47,0-.77-.32-.51-.77,0,0,4.79-8.26,4.89-8.35a6.37,6.37,0,0,1,9,.06,9.53,9.53,0,0,0,2,1.58c0-.42-.06-.83-.06-1.26a14,14,0,0,1,.19-2.29l-.08-.07a9.5,9.5,0,0,0-8.64-2.5l3.44-6.17a1.45,1.45,0,0,0,.16-.73V142h8v12.49a1.45,1.45,0,0,0,.15.73l.71,1.3a14.56,14.56,0,0,1,2.35-1.95l-.21-.47V142h.63c.82,0,1.48-1.18,1.48-2s-.66-2-1.48-2H727.11c-.82,0-1.48,1.18-1.48,2s.66,2,1.48,2h.64v12.1l-10.58,19.19c-1.84,3.27.4,5.71,3.14,5.71h22.33A10.58,10.58,0,0,1,739.1,175Z"/><path class="cls-3" d="M749.78,156a10.21,10.21,0,1,1-10.21,10.21A10.22,10.22,0,0,1,749.78,156m0-1.95a12.16,12.16,0,1,0,12.16,12.16,12.16,12.16,0,0,0-12.16-12.16Z"/><path class="cls-3" d="M749.78,166.09a3.37,3.37,0,1,0-3.37-3.37A3.38,3.38,0,0,0,749.78,166.09ZM748,162.71a1.76,1.76,0,1,1,1.76,1.76A1.76,1.76,0,0,1,748,162.71Z"/><path class="cls-3" d="M755.82,171.37a6.23,6.23,0,0,0-12.08,0,1.23,1.23,0,0,0,.25,1.12,1.36,1.36,0,0,0,1.13.48h9.31a1.36,1.36,0,0,0,1.13-.48A1.23,1.23,0,0,0,755.82,171.37Zm-1.64.13h-8.79a4.62,4.62,0,0,1,8.79,0Z"/><line class="cls-15" x1="237.05" y1="174.13" x2="237.05" y2="177.33"/><line class="cls-15" x1="237.05" y1="180.57" x2="237.05" y2="183.47"/><line class="cls-15" x1="237.05" y1="186.51" x2="237.05" y2="189.73"/><path class="cls-2" d="M121.37,192.9l-11.78-15.2a1.24,1.24,0,0,0-.48-.37,38.35,38.35,0,0,0-14.76-3.2,38.35,38.35,0,0,0-14.76,3.2,1.24,1.24,0,0,0-.48.37L67.33,192.9a1.24,1.24,0,0,0,.1,1.63l6.82,7.11a1.24,1.24,0,0,0,1.75,0l.07-.07,3.41-3.8v23.44a1.24,1.24,0,0,0,1.24,1.24H108a1.24,1.24,0,0,0,1.24-1.24V197.8l3.41,3.8a1.24,1.24,0,0,0,1.75.11l.07-.07,6.82-7.11A1.24,1.24,0,0,0,121.37,192.9Zm-27-16.29a31.43,31.43,0,0,1,5.79.6,6.94,6.94,0,0,1-11.58,0A31.43,31.43,0,0,1,94.35,176.61Zm19.25,22.33-4.69-5.19a1.24,1.24,0,0,0-2.17.83V220H82V194.58a1.24,1.24,0,0,0-2.17-.83l-4.69,5.19L70,193.57l10.92-14.08a37.48,37.48,0,0,1,5.17-1.72,9.34,9.34,0,0,0,16.58,0,37.48,37.48,0,0,1,5.17,1.72l10.92,14.08Z"/><path class="cls-3" d="M101.18,187.75H101l-.14,0-12.94,3.08H86.29a1.24,1.24,0,0,0-1.24,1.24v5a1.24,1.24,0,0,0,1.24,1.24H88l.14,0v3.06a1.24,1.24,0,0,0,1.24,1.24H95a1.24,1.24,0,0,0,1.24-1.24v-1.14l4.67,1.1a1.24,1.24,0,0,0,1.53-1.2V189A1.24,1.24,0,0,0,101.18,187.75Zm-7.45,12.41h-3.1v-1.24l3.1.74Zm6.2-1.59-11.49-2.73a1.24,1.24,0,0,0-.29,0h-.62v-2.48h.62a1.24,1.24,0,0,0,.29,0l11.49-2.73Z"/><path class="cls-2" d="M930.73,104.58h-3a1.41,1.41,0,0,1-1.41-1.41v-3a1.41,1.41,0,0,1,1.41-1.41h3a1.41,1.41,0,0,1,1.41,1.41v3A1.41,1.41,0,0,1,930.73,104.58Zm-2.88-1.49h2.79V100.3h-2.79Z"/><path class="cls-2" d="M941.92,100.3h-7.35a.75.75,0,0,1,0-1.49h7.35a.75.75,0,0,1,0,1.49Z"/><path class="cls-2" d="M941.92,102.44h-7.35a.75.75,0,0,1,0-1.49h7.35a.75.75,0,0,1,0,1.49Z"/><path class="cls-2" d="M941.92,104.58h-7.35a.75.75,0,0,1,0-1.49h7.35a.75.75,0,0,1,0,1.49Z"/><path class="cls-2" d="M940.48,122.21H928a1.5,1.5,0,0,1-1.49-1.49v-2.24A1.5,1.5,0,0,1,928,117h12.48a1.5,1.5,0,0,1,1.49,1.49v2.24A1.5,1.5,0,0,1,940.48,122.21ZM928,118.48v2.24h12.48v-2.24Z"/><path class="cls-2" d="M952.66,97h-5.91V91.68c0-1.13-.75-1.71-1.88-1.71h-5.12V85.56c0-1-1.16-1.59-2.15-1.59H916.91c-1,0-2.16.6-2.16,1.59v34.08a2.67,2.67,0,0,0,2.16,2.33h4.84v4.1c0,1.13,1.4,2.9,2.54,2.9h5.46v3.64A2.77,2.77,0,0,0,932,135h20.69a2.62,2.62,0,0,0,2.09-2.36V98.53C954.75,97.54,953.65,97,952.66,97Zm-5.91,9H949c.06,0-.3-.4-.3-.34v4.25A10.31,10.31,0,0,1,949,111h-2.3Zm0,10H949a2.51,2.51,0,0,0-.3-.7v4.25c0,.06.35.45.3.45h-2.3Zm-2,12.75V129h.12c1.13,0,1.88-1.76,1.88-2.9V125H949c.06,0-.3-.56-.3-.5v4.25c0,.06.35.25.3.25H944.8C944.74,129,944.75,128.78,944.75,128.72ZM939.39,93h5.36v1h-20V93h14.64Zm-22.64-7h21v2h-21Zm5,34h-5V90h7.54c-1.13,0-2.54.58-2.54,1.71V95h-1.68c-.68,0-1.32.21-1.32.9V111c0,.68.63,2,1.32,2h1.68Zm0-9h-1V97h1Zm8.43,15h-5.43V96h20v30H930.18Zm9.58,3h-4.25a3,3,0,0,1-.77-.25V129h5v-.25C939.75,128.78,939.83,129,939.77,129Zm13,4h-21v-4h2v-.25c0,1,.79,2.25,1.77,2.25h4.25a2.43,2.43,0,0,0,2-2.25V129h1v-.25a2.49,2.49,0,0,0,2,2.25H949c1,0,1.7-1.27,1.7-2.25v-4.25A1.5,1.5,0,0,0,949,123h-2.3v-1H949c1,0,1.7-1.47,1.7-2.45v-4.25c0-1-.72-1.3-1.7-1.3h-2.3v-2H949c1,0,1.7-1.11,1.7-2.09v-4.25A1.62,1.62,0,0,0,949,104h-2.3v-1h6Zm0-32h-6V99h6Z"/><path class="cls-2" d="M930.73,113.42h-3a1.41,1.41,0,0,1-1.41-1.41v-3a1.41,1.41,0,0,1,1.41-1.41h3a1.41,1.41,0,0,1,1.41,1.41v3A1.41,1.41,0,0,1,930.73,113.42Zm-2.88-1.49h2.79v-2.79h-2.79Z"/><path class="cls-2" d="M941.92,109.14h-7.35a.75.75,0,0,1,0-1.49h7.35a.75.75,0,0,1,0,1.49Z"/><path class="cls-2" d="M941.92,111.28h-7.35a.75.75,0,0,1,0-1.49h7.35a.75.75,0,0,1,0,1.49Z"/><path class="cls-2" d="M941.92,113.42h-7.35a.75.75,0,0,1,0-1.49h7.35a.75.75,0,0,1,0,1.49Z"/><path class="cls-3" d="M951.47,120.77l-2-2a.85.85,0,0,0-1.2,0,1.15,1.15,0,0,0,0,1.43l.5.73h-8.1s0-.22,0-.22a2.63,2.63,0,0,0-2.35-1.74,2.48,2.48,0,0,0-2.52,2.47,2.86,2.86,0,0,0,2.52,2.88,2.26,2.26,0,0,0,2.4-1.38h8.1l-.62.23a.64.64,0,0,0,0,1,.77.77,0,0,0,.6.15.9.9,0,0,0,.6-.3l2-2.07A.88.88,0,0,0,951.47,120.77Zm-13.12,1.68a1,1,0,1,1,1-1A1,1,0,0,1,938.35,122.45Z"/><g id="Layer_2-2" data-name="Layer 2"><g id="Layer_1-2-2" data-name="Layer 1-2"><rect class="cls-2" x="823.65" y="77.25" width="0.78" height="0.86" transform="translate(71.62 422.56) rotate(-30.01)"/><path class="cls-2" d="M840.21,69.43a1.21,1.21,0,0,0-.13-.34l-5.55-9.64a1.28,1.28,0,0,0-.18-.23,1.12,1.12,0,0,0-.51-.29l-.22,0h-.15A1.12,1.12,0,0,0,833,59l-4.37,2.54a1.27,1.27,0,0,0-.28.23,1.13,1.13,0,0,0-.22,1,1.2,1.2,0,0,0,.13.34l.51.87L808.87,75.47l-.09.06a1.11,1.11,0,0,0-.46,1.18,1.2,1.2,0,0,0,.07.19l0,.09.23.4c-1.48.84-3,1.67-4.42,2.54a1.19,1.19,0,0,0-.29.27,1.13,1.13,0,0,0-.2.91,1.22,1.22,0,0,0,.12.31c.66,1.11,1.26,2.21,1.91,3.28a1.19,1.19,0,0,0,.27.29,1.12,1.12,0,0,0,.91.19,1.18,1.18,0,0,0,.31-.12c1.46-.84,2.94-1.65,4.39-2.54l.21.4.06.09a1.1,1.1,0,0,0,1.37.37l.09,0,8.12-4.7,1,1.74a1.19,1.19,0,0,0,.22.26,1.12,1.12,0,0,0,.38.21l-2.63,11a1.1,1.1,0,0,0,0,.15,1.12,1.12,0,0,0,2.08.66,1.36,1.36,0,0,0,.09-.2V92.4l1.66-6.81.71,4.82a1.28,1.28,0,0,0,0,.2,1.12,1.12,0,0,0,1.35.72,1.14,1.14,0,0,0,.31-.14,1.11,1.11,0,0,0,.51-1,1.16,1.16,0,0,0,0-.14L826.47,85l5.13,8.31a1.31,1.31,0,0,0,.14.18,1.12,1.12,0,0,0,1.92-.86,1.14,1.14,0,0,0-.09-.36l-.07-.13-7.64-12.38.86-.51A1.17,1.17,0,0,0,827,79a1.12,1.12,0,0,0,.22-.89,1.21,1.21,0,0,0-.11-.32l-1-1.76,7.19-4.14.51.87A1.23,1.23,0,0,0,834,73a1.13,1.13,0,0,0,1,.25,1.21,1.21,0,0,0,.34-.13l4.37-2.54a1.23,1.23,0,0,0,.28-.23A1.13,1.13,0,0,0,840.21,69.43ZM807.13,82.56l-.74-1.27,3.41-2,.74,1.27Zm6.13-1.72-.23-.4c-.61-1.07-1.21-2.15-1.85-3.21l-.24-.41,4.57-2.64c.77,1.34,1.52,2.68,2.3,4ZM824,74.63q-1.32.73-2.61,1.52l-1.63.94c-.76-1.34-1.52-2.68-2.3-4l5.82-3.36c.76,1.34,1.52,2.68,2.3,4Zm3.55-2c-.76-1.34-1.52-2.68-2.3-4l4.61-2.66.12.2,2.17,3.79Zm7.61-1.94L831.9,65l-1.18-2,2.46-1.42,4.42,7.66Z"/><path class="cls-3" d="M851,71.46q0-.64,0-1.29a1.19,1.19,0,0,1,.08-.36,1.12,1.12,0,0,1,.62-.63,1.18,1.18,0,0,1,.36-.08h.14a1.18,1.18,0,0,1,.36.08,1.13,1.13,0,0,1,.62.63,1.19,1.19,0,0,1,.08.36v1.29h1.28a1.17,1.17,0,0,1,.48.13,1.12,1.12,0,0,1,0,1.95,1.15,1.15,0,0,1-.51.15h-1.28V75a1.16,1.16,0,0,1-.15.51,1.1,1.1,0,0,1-.2.25,1.12,1.12,0,0,1-1.14.24,1.09,1.09,0,0,1-.35-.21,1.12,1.12,0,0,1-.25-.32A1.16,1.16,0,0,1,851,75q0-.64,0-1.29h-1.29a1.16,1.16,0,0,1-.48-.13,1.12,1.12,0,0,1,0-1.95,1.17,1.17,0,0,1,.51-.15Z"/><path class="cls-2" d="M854.16,51.53a7,7,0,0,0-.62-1.88,7.1,7.1,0,0,0-3.32-3.26,7,7,0,0,0-1.9-.56,7.29,7.29,0,0,0-1-.08h-.18a7.29,7.29,0,0,0-1,.08,7,7,0,0,0-1.9.56A7.1,7.1,0,0,0,841,49.64a7,7,0,0,0-.62,1.88,7.1,7.1,0,0,0-.06,2.24,7,7,0,0,0,13.88-2.09l0-.13Zm-2.18,2a4.78,4.78,0,0,1-9.47-.06,4.83,4.83,0,0,1,.05-1.63,4.75,4.75,0,0,1,.45-1.26,4.84,4.84,0,0,1,2.21-2.12,4.71,4.71,0,0,1,1.29-.39,5,5,0,0,1,.67-.06h.25a5,5,0,0,1,.66.07,4.78,4.78,0,0,1,1.28.42,4.84,4.84,0,0,1,2.17,2.17,4.73,4.73,0,0,1,.39,1.29A4.85,4.85,0,0,1,852,53.5Z"/><path class="cls-3" d="M813.26,56.43V55.14a1.18,1.18,0,0,1,.08-.36,1.13,1.13,0,0,1,.62-.63,1.18,1.18,0,0,1,.36-.08h.14a1.17,1.17,0,0,1,.36.08,1.12,1.12,0,0,1,.62.63,1.18,1.18,0,0,1,.08.36v1.29h1.29a1.15,1.15,0,0,1,.51.15,1.1,1.1,0,0,1,.25.2,1.12,1.12,0,0,1-.26,1.79,1.16,1.16,0,0,1-.48.13h-1.29q0,.64,0,1.28a1.16,1.16,0,0,1-.13.48,1.12,1.12,0,0,1-.6.51,1.09,1.09,0,0,1-.31.07,1.12,1.12,0,0,1-1-.55,1.16,1.16,0,0,1-.15-.51V58.7H812a1.16,1.16,0,0,1-.48-.13A1.12,1.12,0,0,1,811,58a1.09,1.09,0,0,1-.07-.31,1.12,1.12,0,0,1,.55-1,1.15,1.15,0,0,1,.51-.15Z"/><path class="cls-3" d="M829.36,43.68V42.39a1.18,1.18,0,0,1,.08-.36,1.13,1.13,0,0,1,.63-.63,1.18,1.18,0,0,1,.36-.08h.14a1.17,1.17,0,0,1,.36.08,1.12,1.12,0,0,1,.62.63,1.18,1.18,0,0,1,.08.36q0,.64,0,1.29h1.29a1.15,1.15,0,0,1,.51.15,1.1,1.1,0,0,1,.25.2,1.12,1.12,0,0,1-.27,1.74,1.16,1.16,0,0,1-.48.13h-1.29q0,.64,0,1.29a1.16,1.16,0,0,1-.13.48,1.11,1.11,0,0,1-1.94,0,1.17,1.17,0,0,1-.15-.51V45.88h-1.29a1.15,1.15,0,0,1-.51-.15,1.12,1.12,0,0,1-.55-1,1.11,1.11,0,0,1,0-.28,1.13,1.13,0,0,1,.21-.35,1.11,1.11,0,0,1,.32-.25,1.16,1.16,0,0,1,.48-.13Z"/></g></g></g></g></svg>