<svg xmlns="http://www.w3.org/2000/svg" xmlns:xlink="http://www.w3.org/1999/xlink" viewBox="0 0 953.5 305.12"><defs><style>.cls-1,.cls-11,.cls-12,.cls-13,.cls-6,.cls-7,.cls-8{fill:none;}.cls-2,.cls-9{fill:#5c666f;}.cls-3{fill:#00c4b3;}.cls-4{fill:#fff;}.cls-5{clip-path:url(#clip-path);}.cls-12,.cls-6{stroke:#00c4b3;}.cls-11,.cls-12,.cls-13,.cls-6,.cls-7,.cls-8{stroke-miterlimit:10;}.cls-6{stroke-width:2px;}.cls-11,.cls-13,.cls-7{stroke:#5c666f;}.cls-7{stroke-width:3px;}.cls-8{stroke:#f5f8fa;}.cls-11,.cls-12,.cls-13,.cls-8{stroke-width:5px;}.cls-9{font-size:14px;font-family:ProximaNova-Semibold, Proxima Nova;font-weight:700;}.cls-10{letter-spacing:-0.01em;}.cls-11,.cls-12{stroke-linecap:round;}.cls-14{fill:#00a99d;}.cls-15{fill:#52565a;}.cls-16{fill:#f5f8fa;}</style><clipPath id="clip-path"><path class="cls-1" d="M485,130a78.65,78.65,0,0,1-29.37,61.37,78.79,78.79,0,0,1,0-122.74A78.65,78.65,0,0,1,485,130Z"/></clipPath></defs><title>services-venn-diagram_2</title><g id="Layer_2" data-name="Layer 2"><g id="Layer_1-2" data-name="Layer 1"><circle class="cls-2" cx="472.82" cy="4.07" r="4.07"/><circle class="cls-2" cx="107.67" cy="72.8" r="4.07"/><circle class="cls-2" cx="347.67" cy="38.07" r="4.07"/><circle class="cls-3" cx="911.11" cy="28.8" r="4.07"/><circle class="cls-2" cx="633.6" cy="171.97" r="4.07"/><circle class="cls-2" cx="800.5" cy="139.93" r="4.07"/><circle class="cls-3" cx="167.35" cy="220.43" r="4.07"/><circle class="cls-3" cx="706.26" cy="233.9" r="4.07"/><circle class="cls-3" cx="4.07" cy="100.62" r="4.07"/><circle class="cls-2" cx="401.17" cy="233.9" r="4.07"/><circle class="cls-4" cx="615.98" cy="34" r="4.07"/><circle class="cls-4" cx="485.03" cy="247.54" r="4.07"/><circle class="cls-4" cx="848.74" cy="51.07" r="4.07"/><circle class="cls-4" cx="397.1" cy="8.14" r="4.07"/><circle class="cls-4" cx="67.6" cy="25.3" r="4.07"/><circle class="cls-4" cx="304.43" cy="154.54" r="4.07"/><path class="cls-3" d="M624,82h-3.28V78.52c0-2-2-3.54-4-3.54s-4,1.59-4,3.54V82H608c-2,0-3.54,2-3.54,4S606,90,608,90h4.66v4.49c0,2,2,3.54,4,3.54s4-1.59,4-3.54V90H624c2,0,3.54-2,3.54-4S625.91,82,624,82Z"/><path class="cls-3" d="M950,178h-3.28v-3.46c0-2-2-3.54-4-3.54s-4,1.59-4,3.54V178H934c-2,0-3.54,2-3.54,4s1.59,4,3.54,4h4.66v4.49c0,2,2,3.54,4,3.54s4-1.59,4-3.54V186H950c2,0,3.54-2,3.54-4S951.91,178,950,178Z"/><path class="cls-3" d="M305,92h-3.28V88.52c0-2-2-3.54-4-3.54s-4,1.59-4,3.54V92H289c-2,0-3.54,2-3.54,4s1.59,4,3.54,4h4.66v4.49c0,2,2,3.54,4,3.54s4-1.59,4-3.54V100H305c2,0,3.54-2,3.54-4S306.91,92,305,92Z"/><path class="cls-4" d="M274,235h-3.28v-3.46c0-2-2-3.54-4-3.54s-4,1.59-4,3.54V235H258c-2,0-3.54,2-3.54,4s1.59,4,3.54,4h4.66v4.49c0,2,2,3.54,4,3.54s4-1.59,4-3.54V243H274c2,0,3.54-2,3.54-4S275.91,235,274,235Z"/><path class="cls-3" d="M533.17,236h-2.51v-2.51a2.5,2.5,0,0,0-5,0V236H522c-1.38,0-2.49,1.62-2.49,3s1.12,3,2.49,3h3.71v2.71a2.5,2.5,0,0,0,5,0V242h2.51c1.38,0,2.49-1.62,2.49-3S534.55,236,533.17,236Z"/><path class="cls-4" d="M452,25h-3.28V21.52c0-2-2-3.54-4-3.54s-4,1.59-4,3.54V25H436c-2,0-3.54,2-3.54,4S434,33,436,33h4.66v4.49c0,2,2,3.54,4,3.54s4-1.59,4-3.54V33H452c2,0,3.54-2,3.54-4S453.91,25,452,25Z"/><path class="cls-4" d="M764,172h-3.28v-3.46c0-2-2-3.54-4-3.54s-4,1.59-4,3.54V172H748c-2,0-3.54,2-3.54,4s1.59,4,3.54,4h4.66v4.49c0,2,2,3.54,4,3.54s4-1.59,4-3.54V180H764c2,0,3.54-2,3.54-4S765.91,172,764,172Z"/><path class="cls-4" d="M46,167H42.67v-3.46c0-2-2-3.54-4-3.54s-4,1.59-4,3.54V167H30c-2,0-3.54,2-3.54,4S28,175,30,175h4.66v4.49c0,2,2,3.54,4,3.54s4-1.59,4-3.54V175H46c2,0,3.54-2,3.54-4S47.91,167,46,167Z"/><path class="cls-2" d="M615.71,213h-4v-3.28a4,4,0,0,0-8,0V213h-4.44c-2,0-3.66,2.48-3.66,4.5s1.64,4.5,3.66,4.5h4.44v4.2a4,4,0,0,0,8,0V222h4c2,0,3.66-2.48,3.66-4.5S617.73,213,615.71,213Z"/><path class="cls-2" d="M153.88,125h-2.21V122.9a2,2,0,0,0-4,0V125h-2.23a2,2,0,0,0,0,4h2.23v2.37a2,2,0,0,0,4,0V129h2.21a2,2,0,0,0,0-4Z"/><path class="cls-2" d="M550.28,17h-2.61V14.61c0-1.43-1.57-2.58-3-2.58s-3,1.16-3,2.58V17h-3c-1.43,0-2.58,1.57-2.58,3s1.16,3,2.58,3h3v3.25c0,1.43,1.57,2.58,3,2.58s3-1.16,3-2.58V23h2.61c1.43,0,2.58-1.57,2.58-3S551.7,17,550.28,17Z"/><path class="cls-2" d="M720.28,61h-2.61V58.61c0-1.43-1.57-2.58-3-2.58s-3,1.16-3,2.58V61h-3c-1.43,0-2.58,1.57-2.58,3s1.16,3,2.58,3h3v3.25c0,1.43,1.57,2.58,3,2.58s3-1.16,3-2.58V67h2.61c1.43,0,2.58-1.57,2.58-3S721.7,61,720.28,61Z"/><path class="cls-2" d="M323.28,190h-2.61v-2.36c0-1.43-1.57-2.58-3-2.58s-3,1.16-3,2.58V190h-3c-1.43,0-2.58,1.57-2.58,3s1.16,3,2.58,3h3v3.25c0,1.43,1.57,2.58,3,2.58s3-1.16,3-2.58V196h2.61c1.43,0,2.58-1.57,2.58-3S324.7,190,323.28,190Z"/><path class="cls-1" d="M583.94,130a78.81,78.81,0,0,1-128.26,61.37,78.8,78.8,0,0,0,0-122.74A78.81,78.81,0,0,1,583.94,130Z"/><g class="cls-5"><line class="cls-6" x1="483.76" y1="41.9" x2="421.76" y2="103.9"/><line class="cls-6" x1="483.76" y1="57.94" x2="421.76" y2="119.94"/><line class="cls-6" x1="483.76" y1="73.98" x2="421.76" y2="135.98"/><line class="cls-6" x1="483.76" y1="90.02" x2="421.76" y2="152.02"/><line class="cls-6" x1="483.76" y1="106.05" x2="421.76" y2="168.05"/><line class="cls-6" x1="483.76" y1="122.09" x2="421.76" y2="184.09"/><line class="cls-6" x1="483.76" y1="138.13" x2="421.76" y2="200.13"/><line class="cls-6" x1="483.76" y1="154.16" x2="421.76" y2="216.16"/><line class="cls-6" x1="483.76" y1="170.2" x2="421.76" y2="232.2"/><line class="cls-6" x1="483.76" y1="186.24" x2="421.76" y2="248.24"/><line class="cls-7" x1="483.76" y1="33.9" x2="421.76" y2="95.9"/><line class="cls-7" x1="483.76" y1="49.94" x2="421.76" y2="111.94"/><line class="cls-7" x1="483.76" y1="65.98" x2="421.76" y2="127.98"/><line class="cls-7" x1="483.76" y1="82.02" x2="421.76" y2="144.02"/><line class="cls-7" x1="483.76" y1="98.05" x2="421.76" y2="160.05"/><line class="cls-7" x1="483.76" y1="114.09" x2="421.76" y2="176.09"/><line class="cls-7" x1="483.76" y1="130.13" x2="421.76" y2="192.13"/><line class="cls-7" x1="483.76" y1="146.16" x2="421.76" y2="208.16"/><line class="cls-7" x1="483.76" y1="162.2" x2="421.76" y2="224.2"/><line class="cls-7" x1="483.76" y1="178.24" x2="421.76" y2="240.24"/></g><path class="cls-8" d="M455.68,191.34a78.82,78.82,0,1,1,0-122.74,78.79,78.79,0,0,0,0,122.74Z"/><text class="cls-9" transform="translate(346.67 125.85)">PRODUCT <tspan x="2.45" y="16.8">THINKING</tspan></text><text class="cls-9" transform="translate(411.53 301.19)">MY SE<tspan class="cls-10" x="40.6" y="0">R</tspan><tspan x="49.25" y="0">VICES</tspan></text><text class="cls-9" transform="translate(516.15 125.85)">UX <tspan x="-13.58" y="16.8">DESIGN</tspan></text><path class="cls-11" d="M449.92,186.24a78.82,78.82,0,0,1,.83-113.33"/><path class="cls-12" d="M461.37,64.39A78.82,78.82,0,1,1,460.6,195"/><path class="cls-11" d="M450.71,195a78.82,78.82,0,1,1-1.47-131.14"/><path class="cls-12" d="M460.59,72.9a78.82,78.82,0,0,1,.83,113.33"/><circle class="cls-2" cx="455.65" cy="68.47" r="2.5"/><circle class="cls-2" cx="455.65" cy="191.03" r="2.5"/><circle class="cls-13" cx="455.65" cy="154.54" r="8.74"/><line class="cls-11" x1="455.65" y1="163.28" x2="455.65" y2="269.9"/><path class="cls-2" d="M910,73.62h.62a3,3,0,0,1,3,3V140.1a3,3,0,0,1-3,3H881.68a3,3,0,0,1-3-3V76.61a3,3,0,0,1,3-3v-2a5,5,0,0,0-5,5V140.1a5,5,0,0,0,5,5h28.89a5,5,0,0,0,5-5V76.61a5,5,0,0,0-5-5h-.73Z"/><rect class="cls-2" x="886.8" y="72.23" width="18.65" height="2.67"/><rect class="cls-2" x="890.77" y="77.64" width="10.71" height="1.32"/><rect class="cls-2" x="890.77" y="89.76" width="10.71" height="1.32"/><rect class="cls-2" x="882.59" y="84.83" width="27.08" height="0.81"/><rect class="cls-2" x="887.81" y="133.02" width="14.26" height="0.96"/><circle class="cls-2" cx="896.41" cy="102.05" r="4.92"/><circle class="cls-2" cx="896.41" cy="129.04" r="4.92"/><path class="cls-2" d="M881.14,134.34h30v-71h-30Zm1.79-69.19h26.39v67.39H882.93Z"/><path class="cls-2" d="M896.13,135.63a3.19,3.19,0,1,0,3.19,3.19A3.19,3.19,0,0,0,896.13,135.63Zm0,4.59a1.4,1.4,0,1,1,1.4-1.4A1.4,1.4,0,0,1,896.13,140.22Z"/><rect class="cls-2" x="889.52" y="111.56" width="13.69" height="1.79"/><rect class="cls-2" x="889.52" y="114.79" width="13.69" height="0.96"/><rect class="cls-2" x="889.52" y="116.3" width="13.03" height="0.96"/><rect class="cls-2" x="889.52" y="119.33" width="12.44" height="0.96"/><rect class="cls-2" x="889.52" y="117.77" width="13.78" height="0.96"/><path class="cls-14" d="M246.73,170.55H222.15v-21a3.62,3.62,0,0,1,3.62-3.62h17.35a3.62,3.62,0,0,1,3.62,3.62ZM225,168.85H243.9V149.58a.79.79,0,0,0-.79-.79H225.76a.79.79,0,0,0-.79.79Z"/><path class="cls-14" d="M246.73,154.44h-3.1a5.38,5.38,0,0,1-5.37-5.37V146h4.64a3.84,3.84,0,0,1,3.83,3.83Zm-5.64-5.64v.27a2.54,2.54,0,0,0,2.54,2.54h.27v-1.81a1,1,0,0,0-1-1Z"/><path class="cls-14" d="M225.25,154.44h-3.1v-4.64A3.84,3.84,0,0,1,226,146h4.64v3.1A5.38,5.38,0,0,1,225.25,154.44ZM225,151.6h.27a2.54,2.54,0,0,0,2.54-2.54v-.27H226a1,1,0,0,0-1,1Z"/><path class="cls-14" d="M218.57,157.37l5.13-1.58-.32-2.87-5.6,1.72v0l-4.46,1.3a3.78,3.78,0,0,0-1,.45,3.61,3.61,0,0,0-1.8,4.28l2.69,8.74,2.82-.48-1.4-4.55.33-.1a5.37,5.37,0,0,0,3.65-6.66Zm-2.86,3a2.52,2.52,0,0,1-1.51,1.22l-.26.08-.51-1.74a1,1,0,0,1,.3-1l.05,0,2.08-.64.06.2A2.53,2.53,0,0,1,215.71,160.34Z"/><path class="cls-14" d="M250.11,157.61a5.37,5.37,0,0,0,3.65,6.66l.33.1-1.4,4.55,2.82.48,2.69-8.74a3.61,3.61,0,0,0-1.8-4.28,3.78,3.78,0,0,0-1-.45l-4.46-1.3v0l-5.6-1.72-.32,2.87,5.13,1.58Zm2.72.79.06-.2,2.08.64.05,0a1,1,0,0,1,.3,1l-.51,1.74-.26-.08a2.54,2.54,0,0,1-1.72-3.15Z"/><path class="cls-15" d="M254.77,196H214.25a3.69,3.69,0,0,1-3.68-3.68V171.4a3.69,3.69,0,0,1,3.68-3.68h40.51a3.69,3.69,0,0,1,3.68,3.68v20.9A3.69,3.69,0,0,1,254.77,196Zm-40.51-25.43a.85.85,0,0,0-.85.85v20.9a.85.85,0,0,0,.85.85h40.51a.85.85,0,0,0,.85-.85V171.4a.85.85,0,0,0-.85-.85Z"/><g id="mag-glass"><path class="cls-2" d="M709.84,163.11,698,151.38a1.66,1.66,0,0,0-2.36,0l-.55.5-1.05-1a16.26,16.26,0,1,0-28.83-10.28,16.29,16.29,0,0,0,16.25,16.3,15.84,15.84,0,0,0,10.23-3.66l1.05,1-.6.6a1.66,1.66,0,0,0,0,2.36L704,168.93a1.66,1.66,0,0,0,2.36,0l3.51-3.46A1.71,1.71,0,0,0,709.84,163.11Zm-28.38-9.58a12.94,12.94,0,1,1,12.94-12.94A13,13,0,0,1,681.45,153.53Zm23.72,11.88L695.7,156l1.1-1.1,9.48,9.38Z"/></g><path class="cls-1" d="M801.67,215h8v-7h-8Zm3.81-4.29a.93.93,0,1,1-.92.93A.93.93,0,0,1,805.48,210.68Z"/><polygon class="cls-1" points="829.05 182.73 819.49 192.3 812.08 210.18 834.29 187.97 829.05 182.73"/><polygon class="cls-1" points="801.67 205.97 806.88 205.97 809.67 205.97 809.67 174.97 801.67 174.97 801.67 205.97"/><polygon class="cls-1" points="838.27 194.05 825.58 199.31 811.89 212.99 841.11 200.89 838.27 194.05"/><polygon class="cls-1" points="810.67 207.87 822.87 178.81 815.97 175.97 810.67 188.52 810.67 206.84 810.67 207.87"/><polygon class="cls-1" points="811.14 214.97 842.67 214.97 842.67 207.97 829.02 207.97 811.14 214.97"/><circle class="cls-3" cx="805.48" cy="211.6" r="0.93"/><path class="cls-2" d="M843.44,206h-9.95l9.19-3.77a.9.9,0,0,0,.5-1.19l-3.54-8.54a.92.92,0,0,0-1.21-.49L829,195.88l7.26-7.26a.93.93,0,0,0,0-1.31l-6.55-6.55a.93.93,0,0,0-1.31,0l-7.06,7.06,3.8-9.17a.92.92,0,0,0-.5-1.21l-8.55-3.54a.92.92,0,0,0-.35-.07,1.2,1.2,0,0,0-1,.57l-4,9.27v4.84L816,176l6.75,2.83-12.13,29.06-1.87,9.1h34.64c.51,0,1.23-.23,1.23-.74V207C844.67,206.46,843.95,206,843.44,206Zm-24-13.67,9.57-9.57,5.24,5.24-22.21,22.21Zm6.09,7,12.7-5.26,2.83,6.84L811.89,213ZM842.67,215H811.14L829,208h13.65Z"/><rect class="cls-3" x="799.67" y="172.97" width="11" height="44" rx="1.71" ry="1.71"/><rect class="cls-16" x="801.54" y="174.97" width="7.25" height="31"/><rect class="cls-16" x="801.54" y="207.87" width="7.25" height="7.1"/><circle class="cls-3" cx="805.17" cy="211.42" r="0.92"/><path class="cls-2" d="M58.59,90.85a16,16,0,0,0,16-16V73L77,75.45a1.85,1.85,0,0,0,2.5,0A1.74,1.74,0,0,0,80,74.2a2,2,0,0,0-.5-1.25L74,67.45a1.83,1.83,0,0,0-2.45,0l-5.9,5.5a1.63,1.63,0,0,0-.55,1.25,1.92,1.92,0,0,0,.45,1.25,1.8,1.8,0,0,0,2.5.1l3-2.75V74.9a12.5,12.5,0,0,1-12.5,12.5h-6a16,16,0,0,0-16,14.45v.2l-.2,0a6.69,6.69,0,1,0,8.6,6.4,6.76,6.76,0,0,0-4.6-6.35l-.25-.1.05-.25a12.48,12.48,0,0,1,12.35-11h5.95Zm-17,17.7a3.2,3.2,0,1,1-3.2-3.2A3.22,3.22,0,0,1,41.59,108.55Z"/><path class="cls-2" d="M69.24,109l-2.85-2.7,2.85-2.7a1.7,1.7,0,0,0,.55-1.25,1.66,1.66,0,0,0-.5-1.25,1.8,1.8,0,0,0-2.5,0l-3,2.8-3-2.8a1.8,1.8,0,0,0-2.5,0,1.74,1.74,0,0,0-.5,1.25,1.79,1.79,0,0,0,.55,1.25l2.85,2.7L58.44,109a1.75,1.75,0,0,0,0,2.5,1.8,1.8,0,0,0,2.5,0l3-2.8,3,2.8a1.85,1.85,0,0,0,2.5,0A1.8,1.8,0,0,0,69.24,109Z"/><path class="cls-3" d="M51.89,77.9l-2.8-2.7,2.85-2.7A1.75,1.75,0,0,0,52,70a1.8,1.8,0,0,0-2.5,0l-2.95,2.8-2.95-2.8a1.77,1.77,0,1,0-2.45,2.55l2.8,2.7-2.85,2.7a1.7,1.7,0,0,0-.55,1.25A1.74,1.74,0,0,0,41,80.4a1.8,1.8,0,0,0,2.5.05l2.95-2.8,3,2.8a1.85,1.85,0,0,0,2.5-.05,1.74,1.74,0,0,0,.5-1.25A1.7,1.7,0,0,0,51.89,77.9Z"/><path class="cls-2" d="M770.47,51.07a3.35,3.35,0,0,0-3.34,3.32v.85h-.86A3.34,3.34,0,0,0,763,58.58V81.1a3.34,3.34,0,0,0,3.31,3.34h.86v.86a3.34,3.34,0,0,0,3.34,3.31H793a3.34,3.34,0,0,0,3.34-3.31v-.86h.86a3.34,3.34,0,0,0,3.31-3.34V58.58a3.34,3.34,0,0,0-3.31-3.34h-.86v-.85A3.58,3.58,0,0,0,793,51.07Zm0,2.5H793c.6.16.8.46.83.82v.85H769.64v-.85A.81.81,0,0,1,770.47,53.57Zm-4.2,4.17h30.91a.79.79,0,0,1,.81.83V81.1a.79.79,0,0,1-.81.83H766.28a.79.79,0,0,1-.81-.83V58.58A.79.79,0,0,1,766.28,57.74Zm15.46.4a5.42,5.42,0,1,0,5.42,5.42A5.44,5.44,0,0,0,781.73,58.15Zm0,2.5a2.92,2.92,0,1,1-2.92,2.92A2.9,2.9,0,0,1,781.73,60.65Zm0,9.16a13.31,13.31,0,0,0-6.56,1.5,5.55,5.55,0,0,0-3,4.74c0,1.83-.15,4.07,1.63,4.93,1.19.54,2.37.42,4.14.48,2.66.08,5.35,0,7.64,0,1.77-.06,3,.06,4.14-.48,1.86-1,1.63-3.32,1.63-4.93a5.55,5.55,0,0,0-3-4.74,14.9,14.9,0,0,0-6.56-1.5Zm0,2.36A11,11,0,0,1,787,73.3a3,3,0,0,1,1.84,2.75,13.56,13.56,0,0,1-.13,2.7,9.55,9.55,0,0,1-3.19.39c-2.58,0-5.26.07-7.49,0-.92-.11-2.64,0-3.23-.39a12.08,12.08,0,0,1-.13-2.7,3,3,0,0,1,1.84-2.75A11,11,0,0,1,781.73,72.17ZM769.64,84.43h24.19c.06.74-.09,1.65-.83,1.67H770.47C769.52,85.81,769.64,85.3,769.64,84.43Z"/><path class="cls-2" d="M94.35,174.13a37.61,37.61,0,0,0-14.47,3.13,1.22,1.22,0,0,0-.47.36L67.86,192.53a1.22,1.22,0,0,0,.09,1.6l6.69,7a1.22,1.22,0,0,0,1.72,0l.07-.07,3.34-3.72v23A1.22,1.22,0,0,0,81,221.53h26.74a1.22,1.22,0,0,0,1.22-1.22v-23l3.34,3.72a1.22,1.22,0,0,0,1.72.1l.07-.07,6.69-7a1.22,1.22,0,0,0,.09-1.6L109.3,177.62a1.22,1.22,0,0,0-.47-.36A37.61,37.61,0,0,0,94.35,174.13Z"/><path class="cls-16" d="M94.35,176.56a30.83,30.83,0,0,1,5.68.59,6.8,6.8,0,0,1-11.36,0A30.83,30.83,0,0,1,94.35,176.56Z"/><path class="cls-16" d="M86.22,177.7a9.16,9.16,0,0,0,16.26,0,36.75,36.75,0,0,1,5.07,1.69l10.71,13.81-5,5.26-4.6-5.09a1.22,1.22,0,0,0-2.13.82V219.1H82.2V194.18a1.22,1.22,0,0,0-2.13-.82l-4.6,5.09-5-5.26,10.71-13.81A36.75,36.75,0,0,1,86.22,177.7Z"/><path class="cls-2" d="M100.88,187.5l-.13,0-12.69,3H86.45a1.22,1.22,0,0,0-1.22,1.22v4.86a1.22,1.22,0,0,0,1.22,1.22h1.69l.13,0v3a1.22,1.22,0,0,0,1.22,1.22H95a1.22,1.22,0,0,0,1.22-1.22v-1.12l4.58,1.08a1.22,1.22,0,0,0,1.5-1.18V188.71a1.22,1.22,0,0,0-1.21-1.23Z"/><path class="cls-16" d="M99.82,190.25v7.84l-11.26-2.68a1.22,1.22,0,0,0-.28,0h-.61V193h.61a1.22,1.22,0,0,0,.28,0Z"/><polygon class="cls-16" points="90.7 198.44 93.74 199.16 93.74 199.65 90.7 199.65 90.7 198.44"/><path class="cls-2" d="M156.88,46.2l-1.66,2.89a1.33,1.33,0,0,0,.49,1.81h0l8.65,5a1.32,1.32,0,0,0,1.8-.48l3.32-5.76,4.95,3,.08,0a12.41,12.41,0,0,0,3.66,8.84,4.08,4.08,0,0,0-.5,2.55,4.26,4.26,0,0,0,.54,1.6,4,4,0,0,0,4,1.78,4.06,4.06,0,0,0,.32,2.44,4.21,4.21,0,0,0,5.57,1.58,3.93,3.93,0,0,0,.23,1.8,4.26,4.26,0,0,0,5.79,1.56l3.07-1.78,3.06,1.77a4.26,4.26,0,0,0,5.79-1.56,3.93,3.93,0,0,0,.23-1.8,4.21,4.21,0,0,0,5.57-1.58,4.06,4.06,0,0,0,.32-2.44,4,4,0,0,0,4-1.78,3.8,3.8,0,0,0-.21-3.9A12.42,12.42,0,0,0,220,52.71L225,49.79l3.24,5.62a1.32,1.32,0,0,0,1.8.49l8.66-5a1.33,1.33,0,0,0,.48-1.8L225.91,26a1.32,1.32,0,0,0-1.81-.48h0l-8.65,5A1.33,1.33,0,0,0,215,32.3h0l.43.74L210.3,36c-.25-.14-.48-.3-.73-.43a12.48,12.48,0,0,0-7-1.18,12.28,12.28,0,0,0-2.39.53,12.41,12.41,0,0,0-2.3,1h0l-.34.2-.32.18-.69-.37a13,13,0,0,0-4.7-1.5v0A12.59,12.59,0,0,0,184.18,36l0,0-5-3.06.36-.62a1.33,1.33,0,0,0-.49-1.81h0l-8.65-5a1.32,1.32,0,0,0-1.81.49ZM167.5,33.07l1.66-2.89,1-1.74,6.36,3.68-12,20.82-6.36-3.68Zm68.78,16.19-6.36,3.68-12-20.82,6.36-3.68ZM177.81,35.21l4,2.47a12.39,12.39,0,0,0-2.29,2.87l-3.42,5.93a12.41,12.41,0,0,0-1.28,3.36l-4.06-2.48Zm38.9.13,7,12.15-4.12,2.38a12.47,12.47,0,0,0-1.19-3.15,1.32,1.32,0,0,0-.11-.24l-3.42-5.93a12.54,12.54,0,0,0-2.25-2.85Zm-11.92,1.6a9.72,9.72,0,0,1,4.73,1.68h0l.14.09a9.9,9.9,0,0,1,2.93,3.17L216,47.8a9.85,9.85,0,0,1,1.27,4.14,1.32,1.32,0,0,0,0,.32,9.79,9.79,0,0,1-.19,2.54,4.14,4.14,0,0,0-1-.78l-11.58-6.69a4.6,4.6,0,0,0-.45-2.46,1.32,1.32,0,0,0-.15-.34h0a4.54,4.54,0,0,0-.56-.77,4.68,4.68,0,0,0-3.24-1.51,5,5,0,0,0-.93,0,4.92,4.92,0,0,0-1.79.62l-.05,0L191,46.63a1.32,1.32,0,0,0-.25.17l-.11.07a3,3,0,0,1-1.15.39,4.49,4.49,0,0,1-3.46-1.4l3.85-2.23,8-4.65h0l1.25-.73A9.75,9.75,0,0,1,204.79,36.94ZM189.63,37a10.25,10.25,0,0,1,4.83.91L192.54,39l-.15.09-3.81,2.2-5.41,3.14a1.33,1.33,0,0,0-.53.58l-.05.12h0a1.32,1.32,0,0,0,.06,1l0,.07h0A6.9,6.9,0,0,0,192,49.16l6.31-3.65.05,0,.06,0,.11-.08.18-.11.08,0a2.4,2.4,0,0,1,.84-.3,2,2,0,0,1,1.53.36,2,2,0,0,1,.25.28,1.32,1.32,0,0,0-.93,2.45l.36.21a1.32,1.32,0,0,0,.21.14l1.26.73a1.32,1.32,0,0,0,.29.17l12.24,7.08a1.6,1.6,0,0,1-1.59,2.77l-13.71-7.93-1.44-.83a1.32,1.32,0,0,0-1.32,2.29l1.44.83,13.71,7.93h0l1.44.83a1.57,1.57,0,0,1,.58,2.18h0a1.55,1.55,0,0,1-2.17.58l-1.44-.83-13.71-7.93-1.44-.83a1.32,1.32,0,0,0-1.32,2.29l1.44.83L209,66.43a1.59,1.59,0,0,1-1.59,2.77l-2.89-1.67-12.26-7.09-2.89-1.67a1.32,1.32,0,0,0-1.32,2.29l2.88,1.67,3,1.73,9.26,5.36a1.59,1.59,0,1,1-1.59,2.76l-14.26-8.24h0l-.86-.5h0L182,61.26a9.79,9.79,0,0,1-3.56-13.44l3.42-5.93A9.68,9.68,0,0,1,189.63,37Zm-26.41,9.23a1.67,1.67,0,1,0,.8.22h0A1.66,1.66,0,0,0,163.22,46.25Zm68,0a1.67,1.67,0,0,0-1.41,2.5h0a1.67,1.67,0,1,0,1.41-2.5Zm-50.89,17c.12.07.21.17.33.24l2.25,1.31-.24.14a1.55,1.55,0,0,1-2.17-.58,1.43,1.43,0,0,1-.17-1.11Zm5.21,3.08.46.26h0l2.73,1.58-1.72,1a1.6,1.6,0,0,1-1.59-2.77Zm5.84,3.37,3.19,1.85-1.75,1a1.59,1.59,0,1,1-1.59-2.76Z"/><circle class="cls-3" cx="231.26" cy="47.91" r="1.67"/><circle class="cls-3" cx="163.19" cy="47.91" r="1.67"/></g></g></svg>