<svg xmlns="http://www.w3.org/2000/svg" viewBox="0 0 379.87 222.59"><defs><style>.cls-1{fill:#5c666f;}.cls-2{fill:#f5f8fa;}.cls-3{fill:#00a99d;}.cls-4{fill:#00c4b3;}</style></defs><title>strategy-illustration</title><g id="Layer_2" data-name="Layer 2"><g id="Layer_1-2" data-name="Layer 1"><path class="cls-1" d="M298.68,60.13A11.39,11.39,0,0,1,310.06,71.5v53.38h-4.94V71.5a6.45,6.45,0,0,0-6.44-6.44m-205.35,0h-2.9A6.45,6.45,0,0,0,84,71.5v45.93H79.06V71.5A11.39,11.39,0,0,1,90.43,60.13h2.9Z"/><path class="cls-1" d="M309.58,222.59H79.14a15.74,15.74,0,0,1-15.72-15.72V196.41H325.31v10.46A15.74,15.74,0,0,1,309.58,222.59ZM68.35,201.35v5.52a10.8,10.8,0,0,0,10.79,10.79H309.58a10.8,10.8,0,0,0,10.79-10.79v-5.52Z"/><path class="cls-1" d="M170.21,198.88h47.63a0,0,0,0,1,0,0v9a2.9,2.9,0,0,1-2.9,2.9H173.11a2.9,2.9,0,0,1-2.9-2.9v-9A0,0,0,0,1,170.21,198.88Z"/><path class="cls-1" d="M355.71,105.55a2.36,2.36,0,0,0-3.23-.86h0l-15.49,9a2.37,2.37,0,0,0-.87,3.24h0l.77,1.33-9.11,5.27c-.44-.25-.86-.55-1.31-.77a22.34,22.34,0,0,0-12.53-2.12,22,22,0,0,0-4.27,1,22.21,22.21,0,0,0-4.11,1.86h0l-.6.35-.56.32-1.23-.67a23.2,23.2,0,0,0-8.41-2.68v0A22.54,22.54,0,0,0,281,123.5l-.06,0L272,118l.64-1.1a2.37,2.37,0,0,0-.87-3.24h0l-15.49-9a2.37,2.37,0,0,0-3.24.87l-3,5.17-3,5.17,4.1,2.37,3-5.17L256,110l11.39,6.59-21.48,37.27-11.39-6.59,1.79-3.12,3-5.17,3-5.18,3-5.17,3-5.16-4.1-2.38-3,5.17-3,5.17-3,5.18-3,5.16-3,5.17a2.37,2.37,0,0,0,.87,3.24h0l15.49,9a2.36,2.36,0,0,0,3.23-.86l5.95-10.32,8.85,5.42.15.08a22.21,22.21,0,0,0,6.55,15.81,7.3,7.3,0,0,0-.9,4.57,7.63,7.63,0,0,0,1,2.86c1.51,2.62,4.38,3.44,7.23,3.19a7.26,7.26,0,0,0,.57,4.37,7.54,7.54,0,0,0,10,2.83c.08,1.1-.17,2.22.42,3.23a7.62,7.62,0,0,0,10.36,2.78l5.5-3.18,5.48,3.17a7.62,7.62,0,0,0,10.36-2.78c.58-1,.34-2.13.42-3.23a7.54,7.54,0,0,0,10-2.83,7.26,7.26,0,0,0,.57-4.37c2.85.25,5.71-.57,7.23-3.19,1.33-2.32.87-4.81-.37-7a22.23,22.23,0,0,0,7.07-16.27l9.07-5.24,5.8,10.07a2.36,2.36,0,0,0,3.23.87l15.5-9a2.37,2.37,0,0,0,.86-3.23Zm18.56,41.69-11.39,6.59-21.47-37.27L352.8,110ZM269.63,122.1l7.22,4.41a22.17,22.17,0,0,0-4.09,5.14l-6.12,10.62a22.2,22.2,0,0,0-2.29,6l-7.26-4.43Zm69.62.23,12.55,21.75-7.36,4.26a22.31,22.31,0,0,0-2.13-5.63,2.37,2.37,0,0,0-.19-.43L336,131.65a22.43,22.43,0,0,0-4-5.11Zm-21.33,2.86a17.39,17.39,0,0,1,8.46,3h0l.26.16a17.72,17.72,0,0,1,5.25,5.68L338,144.63a17.63,17.63,0,0,1,2.27,7.41,2.37,2.37,0,0,0,0,.57,17.53,17.53,0,0,1-.34,4.55,7.41,7.41,0,0,0-1.71-1.4l-20.71-12a8.23,8.23,0,0,0-.81-4.39,2.37,2.37,0,0,0-.27-.6h0a8.13,8.13,0,0,0-1-1.38,8.38,8.38,0,0,0-5.8-2.7,8.9,8.9,0,0,0-1.66.06,8.81,8.81,0,0,0-3.2,1.1l-.09.06-11.41,6.6a2.37,2.37,0,0,0-.44.3l-.2.12a5.32,5.32,0,0,1-2.06.69,8,8,0,0,1-6.19-2.51l6.88-4,14.38-8.32h0l2.24-1.31A17.44,17.44,0,0,1,317.92,125.19Zm-27.14.14a18.35,18.35,0,0,1,8.64,1.63l-3.43,2-.27.17L288.91,133l-9.68,5.62a2.39,2.39,0,0,0-.94,1l-.09.21h0a2.37,2.37,0,0,0,.1,1.84l.07.13h0c3.46,6,10.9,8.49,16.65,5.16l11.3-6.53.09-.06.11-.06.19-.14.31-.19.14-.08a4.3,4.3,0,0,1,1.5-.54,3.66,3.66,0,0,1,2.74.65,3.58,3.58,0,0,1,.44.5,2.37,2.37,0,0,0-1.67,4.38l.64.37a2.37,2.37,0,0,0,.38.26l2.26,1.3a2.37,2.37,0,0,0,.52.3l21.91,12.67a2.86,2.86,0,0,1-2.85,4.95l-24.53-14.18-2.58-1.49a2.37,2.37,0,0,0-2.37,4.1l2.58,1.49,24.53,14.18h0l2.57,1.49a2.81,2.81,0,0,1,1,3.9h0a2.78,2.78,0,0,1-3.89,1l-2.58-1.49L303.3,159.69l-2.58-1.49a2.37,2.37,0,0,0-2.37,4.1l2.58,1.49L325.46,178a2.85,2.85,0,0,1-2.84,4.95l-5.17-3-21.94-12.68-5.17-3a2.37,2.37,0,0,0-2.37,4.1l5.16,3,5.37,3.1L315.08,184a2.85,2.85,0,1,1-2.85,4.94l-25.52-14.75h0l-1.55-.9h0l-8-4.62a17.52,17.52,0,0,1-6.37-24l6.12-10.61A17.31,17.31,0,0,1,290.78,125.33Zm-47.26,16.52a3,3,0,1,0,1.43.4h0A3,3,0,0,0,243.52,141.85Zm121.7,0a3,3,0,0,0-2.52,4.48h0a3,3,0,1,0,2.52-4.48Zm-91.07,30.49c.21.13.38.31.59.43l4,2.34-.43.25a2.78,2.78,0,0,1-3.89-1,2.55,2.55,0,0,1-.31-2Zm9.33,5.5.82.47h0l4.88,2.82-3.08,1.79a2.86,2.86,0,0,1-2.85-4.95Zm10.45,6,5.72,3.31-3.13,1.8a2.85,2.85,0,1,1-2.85-4.94Z"/><rect class="cls-1" x="119.86" y="187.73" width="169.36" height="3.95"/><rect class="cls-1" x="153.43" y="27.51" width="85.64" height="10.76"/><rect class="cls-1" x="171.66" y="43.63" width="49.17" height="5.67"/><rect class="cls-1" x="165.52" y="88.78" width="61.46" height="6.16"/><rect class="cls-1" x="128.84" y="144.13" width="35.93" height="4.17"/><rect class="cls-1" x="128.84" y="153.85" width="31.03" height="2.08"/><rect class="cls-1" x="128.84" y="157.09" width="35.93" height="2.08"/><rect class="cls-1" x="128.84" y="160.36" width="34.19" height="2.08"/><rect class="cls-1" x="128.84" y="163.57" width="36.18" height="2.08"/><rect class="cls-1" x="128.84" y="166.97" width="32.66" height="2.08"/><rect class="cls-1" x="176.85" y="153.85" width="31.03" height="2.08"/><rect class="cls-1" x="176.85" y="157.09" width="35.93" height="2.08"/><rect class="cls-1" x="176.85" y="160.36" width="34.19" height="2.08"/><rect class="cls-1" x="176.85" y="163.57" width="36.18" height="2.08"/><rect class="cls-1" x="176.85" y="166.97" width="32.66" height="2.08"/><rect class="cls-1" x="226.85" y="153.85" width="15.86" height="2.08"/><rect class="cls-1" x="226.85" y="157.09" width="19.99" height="2.08"/><rect class="cls-1" x="226.85" y="160.36" width="34.19" height="2.08"/><rect class="cls-1" x="226.85" y="163.57" width="36.18" height="2.08"/><rect class="cls-1" x="226.85" y="166.97" width="32.66" height="2.08"/><rect class="cls-1" x="176.85" y="144.13" width="35.93" height="4.17"/><rect class="cls-1" x="226.98" y="144.13" width="6.18" height="4.17"/><circle class="cls-1" cx="147.55" cy="124.68" r="10.71"/><circle class="cls-2" cx="33.21" cy="104.37" r="4.07"/><circle class="cls-1" cx="33.21" cy="32.89" r="4.07"/><circle class="cls-1" cx="341.87" cy="79.14" r="4.07"/><circle class="cls-2" cx="369.92" cy="44.54" r="4.07"/><circle class="cls-1" cx="194.94" cy="124.68" r="10.71"/><path class="cls-1" d="M241.6,134.86a10.71,10.71,0,1,1,10.48-18.16Z"/><path class="cls-1" d="M94.44,0a4,4,0,0,0-3.95,3.95V116.49h3.95V73.05H295.83v49.36h3.95V3.95A4,4,0,0,0,295.83,0Zm15.1,3.2a1.68,1.68,0,1,1-1.68,1.68A1.68,1.68,0,0,1,109.54,3.2Zm-5.18,0a1.68,1.68,0,1,1-1.68,1.68A1.68,1.68,0,0,1,104.36,3.2Zm-5.22,0a1.68,1.68,0,1,1-1.68,1.68A1.68,1.68,0,0,1,99.13,3.2ZM295.57,68.93h-201v-59h201Z"/><path class="cls-3" d="M101,156.35H58.18V119.81a6.31,6.31,0,0,1,6.3-6.31H94.72a6.31,6.31,0,0,1,6.3,6.31Zm-37.91-3h33V119.81a1.37,1.37,0,0,0-1.37-1.37H64.48a1.37,1.37,0,0,0-1.37,1.37Z"/><path class="cls-3" d="M101,128.27h-5.4a9.37,9.37,0,0,1-9.36-9.36v-5.4h8.09a6.68,6.68,0,0,1,6.68,6.68Zm-9.83-9.83v.47a4.43,4.43,0,0,0,4.43,4.43h.47v-3.15a1.74,1.74,0,0,0-1.74-1.74Z"/><path class="cls-3" d="M63.58,128.27h-5.4v-8.09a6.68,6.68,0,0,1,6.68-6.68h8.09v5.4A9.37,9.37,0,0,1,63.58,128.27Zm-.47-4.94h.47A4.43,4.43,0,0,0,68,118.91v-.47H64.85a1.74,1.74,0,0,0-1.74,1.74Z"/><path class="cls-3" d="M51.94,133.39l8.93-2.75-.56-5-9.76,3v0l-7.77,2.27a6.58,6.58,0,0,0-1.67.79A6.28,6.28,0,0,0,38,139.12l4.69,15.23,4.91-.83-2.44-7.94.58-.17a9.36,9.36,0,0,0,6.36-11.61Zm-5,5.17a4.39,4.39,0,0,1-2.64,2.12l-.45.13-.89-3a1.74,1.74,0,0,1,.52-1.78l.09-.05,3.63-1.12.1.35A4.4,4.4,0,0,1,47,138.56Z"/><path class="cls-3" d="M106.91,133.8a9.36,9.36,0,0,0,6.36,11.61l.58.17-2.44,7.94,4.91.83L121,139.12a6.28,6.28,0,0,0-3.13-7.45,6.58,6.58,0,0,0-1.67-.79l-7.77-2.27v0l-9.76-3-.56,5,8.93,2.75Zm4.74,1.38.1-.35,3.63,1.12.09.05a1.74,1.74,0,0,1,.52,1.78l-.89,3-.45-.13a4.43,4.43,0,0,1-3-5.49Z"/><path class="cls-1" d="M115,200.67H44.42A6.42,6.42,0,0,1,38,194.25V157.83a6.42,6.42,0,0,1,6.42-6.42H115a6.42,6.42,0,0,1,6.42,6.42v36.42A6.42,6.42,0,0,1,115,200.67Zm-70.6-44.32a1.48,1.48,0,0,0-1.48,1.48v36.42a1.48,1.48,0,0,0,1.48,1.48H115a1.48,1.48,0,0,0,1.48-1.48V157.83a1.48,1.48,0,0,0-1.48-1.48Z"/><rect class="cls-1" x="305.12" y="189.39" width="4.94" height="8.29"/><path class="cls-4" d="M57,62.93H52.57V59.65a3.5,3.5,0,1,0-7,0v3.28H41.06c-2,0-3.54,2-3.54,4s1.59,4,3.54,4h4.51V75.6a3.5,3.5,0,1,0,7,0V70.93H57c2,0,3.54-2,3.54-4S59,62.93,57,62.93Z"/><path class="cls-4" d="M333.42,29.93h-3.85V26.08c0-2-2-3.54-4-3.54s-4,1.59-4,3.54v3.84h-4.1c-2,0-3.54,2-3.54,4s1.59,4,3.54,4h4.1V42c0,2,2,3.54,4,3.54s4-1.59,4-3.54V37.93h3.85c2,0,3.54-2,3.54-4S335.38,29.93,333.42,29.93Z"/><path class="cls-1" d="M372.91,189.93h-4.34V186c0-2-2-3.54-4-3.54s-4,1.59-4,3.54v3.92H357c-2,0-3.54,2-3.54,4s1.59,4,3.54,4h3.61v4c0,2,2,3.54,4,3.54s4-1.59,4-3.54v-4h4.34c2,0,3.54-2,3.54-4S374.87,189.93,372.91,189.93Z"/><path class="cls-1" d="M19.49,143.93H15.57V140.6c0-2-2-3.54-4-3.54s-4,1.59-4,3.54v3.33h-4c-2,0-3.54,2-3.54,4s1.59,4,3.54,4h4v4.62c0,2,2,3.54,4,3.54s4-1.59,4-3.54v-4.62h3.92c2,0,3.54-2,3.54-4S21.45,143.93,19.49,143.93Z"/></g></g></svg>