<svg xmlns="http://www.w3.org/2000/svg" viewBox="0 0 111.76 102.59"><defs><style>.cls-1{fill:#5c666f;}.cls-2{fill:#00c4b3;}</style></defs><title>user-research-1</title><g id="Layer_2" data-name="Layer 2"><g id="Layer_1-2" data-name="Layer 1"><path class="cls-1" d="M51.32,28.27a8,8,0,1,1-8,8,8,8,0,0,1,8-8m0-5a13,13,0,1,0,13,13,13,13,0,0,0-13-13Z"/><path class="cls-1" d="M51.32,58.3A19.65,19.65,0,0,1,70.35,73l-38,0a19.65,19.65,0,0,1,19-14.64m0-5a24.68,24.68,0,0,0-23.9,18.54A5,5,0,0,0,32.3,78H70.35a5,5,0,0,0,4.87-6.12A24.68,24.68,0,0,0,51.32,53.3Z"/><path class="cls-1" d="M51.3,102.59A51.3,51.3,0,1,1,101.55,41a2.5,2.5,0,0,1-4.9,1,46.31,46.31,0,1,0-13.47,42.9,2.5,2.5,0,1,1,3.44,3.63A51.08,51.08,0,0,1,51.3,102.59Z"/><path class="cls-2" d="M111.29,74.6l-7.39-13.14V52.62h.51a1,1,0,0,0,0-2.06H93.79a1,1,0,0,0,0,2.06h.51v8.84L86.91,74.6c-1.28,2.28.24,3.76,2.15,3.76h20.07C111.07,78.36,112.57,76.87,111.29,74.6ZM96.24,62.23a1,1,0,0,0,.13-.51V52.62h5.47v9.11a1,1,0,0,0,.13.51l3.63,6.45a4.44,4.44,0,0,1-5.77-.42,6.6,6.6,0,0,0-6-1.74Zm12.9,14.07H89.07a.45.45,0,0,1-.36-.69s3.33-5.82,3.4-5.89a4.43,4.43,0,0,1,6.27,0,6.5,6.5,0,0,0,8.24.77l2.88,5.12A.45.45,0,0,1,109.14,76.3Z"/></g></g></svg>