<svg xmlns="http://www.w3.org/2000/svg" viewBox="0 0 103.39 101.58"><defs><style>.cls-1{fill:none;}.cls-2{fill:#5c666f;}.cls-3{fill:#00c4b3;}.cls-4{fill:#fff;}</style></defs><title>visual-design-swatch</title><g id="Layer_2" data-name="Layer 2"><g id="Layer_1-2" data-name="Layer 1"><polygon class="cls-1" points="67.79 22.8 45.7 44.89 28.6 86.17 79.88 34.89 67.79 22.8"/><polygon class="cls-1" points="89.08 48.92 59.76 61.06 28.16 92.66 95.62 64.71 89.08 48.92"/><polygon class="cls-1" points="25.39 80.83 53.55 13.74 37.63 7.19 25.39 36.15 25.39 78.46 25.39 80.83"/><polygon class="cls-1" points="26.43 97.58 98.39 97.58 98.39 81.58 67.71 81.58 26.43 97.58"/><path class="cls-2" d="M101,75.58H78l21.21-8.26a1.86,1.86,0,0,0,1.16-2.53L92.21,45.18a2.08,2.08,0,0,0-2-1.26,2.16,2.16,0,0,0-.82.2l-21.76,9L84.42,36.39a2.13,2.13,0,0,0,0-3L69.3,18.26a2.14,2.14,0,0,0-3,0L50,34.57,58.74,13.4a2.13,2.13,0,0,0-1.16-2.79L37.84,2.43A2.12,2.12,0,0,0,37,2.26a2.73,2.73,0,0,0-2.37,1.32L25.39,25V36.15l12.39-29,15.58,6.54-28,67L21,101.58h80c1.18,0,2.4-.26,2.4-1.44V78.77C103.39,77.59,102.18,75.58,101,75.58ZM45.7,44.89,67.79,22.8,79.88,34.89,28.6,86.17ZM59.76,61.06,89.08,48.92l6.54,15.8L28.16,92.66ZM98.39,97.58h-72l41.28-16H98.39Z"/><rect class="cls-3" width="25.39" height="101.58" rx="3.95" ry="3.95"/><rect class="cls-4" x="4.33" y="4.62" width="16.74" height="71.57"/><rect class="cls-4" x="4.33" y="80.57" width="16.74" height="16.39"/><circle class="cls-3" cx="12.7" cy="88.77" r="2.12"/></g></g></svg>