<svg xmlns="http://www.w3.org/2000/svg" viewBox="0 0 103 102"><defs><style>.cls-1{fill:none;}.cls-2{fill:#5c666f;}.cls-3{fill:#00c4b3;}</style></defs><title>visual design-swatch</title><g id="Layer_2" data-name="Layer 2"><g id="Layer_1-2" data-name="Layer 1"><polygon class="cls-1" points="67.4 23.22 45.31 45.31 28.21 86.59 79.49 35.31 67.4 23.22"/><polygon class="cls-1" points="88.68 49.34 59.36 61.48 27.77 93.08 95.23 65.13 88.68 49.34"/><polygon class="cls-1" points="25 81.25 53.15 14.16 37.23 7.61 25 36.57 25 78.88 25 81.25"/><polygon class="cls-1" points="26.03 98 98 98 98 82 67.31 82 26.03 98"/><path class="cls-2" d="M100.6,76h-23l21.21-8.26A1.86,1.86,0,0,0,100,65.21L91.81,45.6a2.08,2.08,0,0,0-2-1.26,2.16,2.16,0,0,0-.82.2l-21.76,9L84,36.81a2.13,2.13,0,0,0,0-3L68.91,18.68a2.14,2.14,0,0,0-3,0L49.58,35l8.77-21.17A2.13,2.13,0,0,0,57.19,11L37.45,2.85a2.12,2.12,0,0,0-.82-.16A2.73,2.73,0,0,0,34.26,4L25,25.4V36.57l12.39-29L53,14.16l-28,67L20.62,102h80c1.18,0,2.4-.26,2.4-1.44V79.19C103,78,101.78,76,100.6,76ZM45.31,45.31,67.4,23.22,79.49,35.31,28.21,86.59ZM59.36,61.48,88.68,49.34l6.54,15.8L27.77,93.08ZM98,98H26L67.31,82H98Z"/><path class="cls-3" d="M25,3.95A4,4,0,0,0,21.05,0H3.95A4,4,0,0,0,0,3.95V98.05A4,4,0,0,0,3.95,102H21.05A4,4,0,0,0,25,98.05ZM21,97H4V81H21Zm0-20H4V5H21Z"/><circle class="cls-3" cx="12.3" cy="89.19" r="2.12"/></g></g></svg>