<?xml version="1.0" encoding="utf-8"?>
<!-- Generator: Adobe Illustrator 20.0.0, SVG Export Plug-In . SVG Version: 6.00 Build 0)  -->
<svg version="1.1" id="Layer_1" xmlns="http://www.w3.org/2000/svg" xmlns:xlink="http://www.w3.org/1999/xlink" x="0px" y="0px"
	 viewBox="0 0 80 90" style="enable-background:new 0 0 80 90;" xml:space="preserve">
<style type="text/css">
	.st0{fill:#5C666F;}
</style>
<g>
	<g>
		<path class="st0" d="M76.7,12.5H70V3.3C70,1.5,68.5,0,66.7,0H3.3C1.5,0,0,1.5,0,3.3v25c0,1.8,1.5,3.3,3.3,3.3h63.3
			c1.8,0,3.3-1.5,3.3-3.3v-9.2h3.3V35H35c-1.8,0-3.3,1.5-3.3,3.3V45H30c-1.8,0-3.3,1.5-3.3,3.3v38.4c0,1.8,1.5,3.3,3.3,3.3h10
			c1.8,0,3.3-1.5,3.3-3.3V48.3c0-1.8-1.5-3.3-3.3-3.3h-1.7v-3.3h38.3c1.8,0,3.3-1.5,3.3-3.3V15.8C80,14,78.5,12.5,76.7,12.5z
			 M63.3,25H6.7V6.7h56.7V25H63.3z M36.7,83.3h-3.3V51.6h3.3V83.3z"/>
	</g>
</g>
</svg>
