<svg xmlns="http://www.w3.org/2000/svg" viewBox="0 0 391.55 257.05"><defs><style>.cls-1{fill:#f5f8fa;}.cls-2{fill:#5c666f;}.cls-3{fill:#00c4b3;}</style></defs><title>web-mobile-design</title><g id="Layer_2" data-name="Layer 2"><g id="Layer_1-2" data-name="Layer 1"><circle class="cls-1" cx="4.07" cy="138.83" r="4.07"/><circle class="cls-1" cx="387.48" cy="178.59" r="4.07"/><circle class="cls-2" cx="49.92" cy="59.21" r="4.07"/><circle class="cls-2" cx="34.28" cy="159.83" r="4.07"/><circle class="cls-2" cx="227.36" cy="16.03" r="4.07"/><circle class="cls-1" cx="358.31" cy="50.03" r="4.07"/><path class="cls-2" d="M64.2,99.52h-2.9A6.45,6.45,0,0,0,54.86,106V231.9H49.92V106A11.39,11.39,0,0,1,61.29,94.59h2.9Z"/><path class="cls-2" d="M215.36,257.05H50a15.74,15.74,0,0,1-15.72-15.72V230.87h168.4v4.94H39.21v5.52A10.8,10.8,0,0,0,50,252.12H206.28Z"/><path class="cls-2" d="M141.07,233.34H188.7a0,0,0,0,1,0,0v9a2.9,2.9,0,0,1-2.9,2.9H144a2.9,2.9,0,0,1-2.9-2.9v-9A0,0,0,0,1,141.07,233.34Z"/><rect class="cls-2" x="62.73" y="222.19" width="140.92" height="3.95"/><rect class="cls-2" x="124.29" y="61.97" width="85.64" height="10.76"/><rect class="cls-2" x="142.53" y="78.09" width="49.17" height="5.67"/><rect class="cls-2" x="136.38" y="123.24" width="61.46" height="6.16"/><rect class="cls-2" x="99.71" y="178.59" width="35.93" height="4.17"/><rect class="cls-2" x="99.71" y="188.31" width="31.03" height="2.08"/><rect class="cls-2" x="99.71" y="191.55" width="35.93" height="2.08"/><rect class="cls-2" x="99.71" y="194.82" width="34.19" height="2.08"/><rect class="cls-2" x="99.71" y="198.03" width="36.18" height="2.08"/><rect class="cls-2" x="99.71" y="201.43" width="32.66" height="2.08"/><rect class="cls-2" x="147.71" y="188.31" width="31.03" height="2.08"/><rect class="cls-2" x="147.71" y="191.55" width="35.93" height="2.08"/><rect class="cls-2" x="147.71" y="194.82" width="34.19" height="2.08"/><rect class="cls-2" x="147.71" y="198.03" width="36.18" height="2.08"/><rect class="cls-2" x="147.71" y="201.43" width="32.66" height="2.08"/><rect class="cls-2" x="147.71" y="178.59" width="35.93" height="4.17"/><rect class="cls-2" x="197.72" y="188.31" width="5.03" height="2.08"/><rect class="cls-2" x="197.72" y="191.55" width="4.93" height="2.08"/><rect class="cls-2" x="197.72" y="194.82" width="4.19" height="2.08"/><rect class="cls-2" x="197.72" y="198.03" width="5.18" height="2.08"/><rect class="cls-2" x="197.72" y="201.43" width="5.66" height="2.08"/><rect class="cls-2" x="197.72" y="178.59" width="4.93" height="4.17"/><circle class="cls-2" cx="118.42" cy="159.14" r="10.71"/><circle class="cls-2" cx="165.8" cy="159.14" r="10.71"/><path class="cls-2" d="M80.4,37.66a1.68,1.68,0,1,1-1.68,1.68A1.68,1.68,0,0,1,80.4,37.66Zm-5.18,0a1.68,1.68,0,1,1-1.68,1.68A1.68,1.68,0,0,1,75.22,37.66Zm-5.22,0a1.68,1.68,0,1,1-1.68,1.68A1.68,1.68,0,0,1,70,37.66Zm200.87,18.8V38.41a4.14,4.14,0,0,0-4.17-3.95H65.31c-2.18,0-4.44,1.77-4.44,3.95V226.46h4v-119H202.93l-.07-4h-137v-59h201v12Z"/><path class="cls-3" d="M27.87,97.46h-4V94.11a3.5,3.5,0,1,0-7,0v3.35H11.92c-2,0-3.54,2-3.54,4s1.59,4,3.54,4h4.94v4.6a3.5,3.5,0,1,0,7,0v-4.6h4c2,0,3.54-2,3.54-4S29.83,97.46,27.87,97.46Z"/><path class="cls-3" d="M366.28,98.46h-3.42V94.54c0-2-2-3.54-4-3.54s-4,1.59-4,3.54v3.92h-4.53c-2,0-3.54,2-3.54,4s1.59,4,3.54,4h4.53v4c0,2,2,3.54,4,3.54s4-1.59,4-3.54v-4h3.42c2,0,3.54-2,3.54-4S368.24,98.46,366.28,98.46Z"/><path class="cls-3" d="M133.28,7.46h-3.42V3.54c0-2-2-3.54-4-3.54s-4,1.59-4,3.54V7.46h-4.53c-2,0-3.54,2-3.54,4s1.59,4,3.54,4h4.53v4c0,2,2,3.54,4,3.54s4-1.59,4-3.54v-4h3.42c2,0,3.54-2,3.54-4S135.24,7.46,133.28,7.46Z"/><path class="cls-2" d="M317.61,31.46h-2.74V28.64c0-1.43-1.57-2.58-3-2.58s-3,1.16-3,2.58v2.82H306c-1.43,0-2.58,1.57-2.58,3s1.16,3,2.58,3h2.87v2.79c0,1.43,1.57,2.58,3,2.58s3-1.16,3-2.58V37.46h2.74c1.43,0,2.58-1.57,2.58-3S319,31.46,317.61,31.46Z"/><path class="cls-2" d="M384.61,227.46h-2.74v-2.82c0-1.43-1.57-2.58-3-2.58s-3,1.16-3,2.58v2.82H373c-1.43,0-2.58,1.57-2.58,3s1.16,3,2.58,3h2.87v2.79c0,1.43,1.57,2.58,3,2.58s3-1.16,3-2.58v-2.79h2.74c1.43,0,2.58-1.57,2.58-3S386,227.46,384.61,227.46Z"/><path class="cls-2" d="M32.36,195.46H28.86v-3.4c0-2-2-3.54-4-3.54s-4,1.59-4,3.54v3.4H16.41c-2,0-3.54,2-3.54,4s1.59,4,3.54,4h4.46V208c0,2,2,3.54,4,3.54s4-1.59,4-3.54v-4.55h3.49c2,0,3.54-2,3.54-4S34.31,195.46,32.36,195.46Z"/><path class="cls-2" d="M311.36,257.05H211.94a10.86,10.86,0,0,1-10.84-10.85v-143a10.86,10.86,0,0,1,10.84-10.85h3.16L215,96.77h-3a6.43,6.43,0,0,0-6.42,6.42v143a6.43,6.43,0,0,0,6.42,6.42h93.83Zm20.43-130.43V103.19a6.43,6.43,0,0,0-6.42-6.42H322V92.34h3.39a10.86,10.86,0,0,1,10.85,10.85v23.44Z"/><rect class="cls-2" x="235.69" y="80.14" width="61.07" height="8.75"/><rect class="cls-2" x="248.7" y="97.87" width="35.06" height="4.31"/><rect class="cls-2" x="248.7" y="137.55" width="35.06" height="4.31"/><rect class="cls-2" x="217.47" y="121.39" width="102.37" height="2.66"/><rect class="cls-2" x="244.59" y="198.31" width="44.82" height="5.85"/><rect class="cls-2" x="244.59" y="208.9" width="44.82" height="3.14"/><rect class="cls-2" x="244.59" y="213.83" width="42.65" height="3.14"/><rect class="cls-2" x="244.59" y="223.77" width="40.75" height="3.14"/><rect class="cls-2" x="244.59" y="218.66" width="45.14" height="3.14"/><circle class="cls-2" cx="267.16" cy="171.79" r="16.13"/><path class="cls-2" d="M268.66,239.92a5.55,5.55,0,1,0,5.55,5.55A5.55,5.55,0,0,0,268.66,239.92Zm0,8a2.43,2.43,0,1,1,2.43-2.43A2.44,2.44,0,0,1,268.66,247.9Z"/><path class="cls-2" d="M324.26,126.63V54.49H213V238.08h90.82l-.17-4.42H217.47V58.92H319.84v67.71Z"/><path class="cls-2" d="M356.18,141.77h1a4.82,4.82,0,0,1,4.81,4.81V248.95a4.82,4.82,0,0,1-4.81,4.81H310.59a4.82,4.82,0,0,1-4.81-4.81V146.58a4.82,4.82,0,0,1,4.81-4.81v-3.29a8.11,8.11,0,0,0-8.11,8.11V248.95a8.11,8.11,0,0,0,8.11,8.11h46.58a8.11,8.11,0,0,0,8.11-8.11V146.58a8.11,8.11,0,0,0-8.11-8.11H356Z"/><rect class="cls-2" x="318.84" y="139.52" width="30.07" height="4.31"/><rect class="cls-2" x="325.25" y="148.25" width="17.26" height="2.12"/><rect class="cls-2" x="325.25" y="167.79" width="17.26" height="2.12"/><rect class="cls-2" x="312.05" y="159.83" width="43.66" height="1.31"/><rect class="cls-2" x="320.47" y="237.53" width="23" height="1.54"/><circle class="cls-2" cx="334.34" cy="187.6" r="7.94"/><circle class="cls-2" cx="334.34" cy="231.12" r="7.94"/><path class="cls-2" d="M309.71,239.67H358V125.23H309.71Zm2.89-111.55h42.55V236.78H312.6Z"/><path class="cls-2" d="M333.88,241.74a5.15,5.15,0,1,0,5.15,5.15A5.15,5.15,0,0,0,333.88,241.74Zm0,7.4a2.25,2.25,0,1,1,2.26-2.25A2.26,2.26,0,0,1,333.88,249.14Z"/><rect class="cls-2" x="323.22" y="202.93" width="22.07" height="2.88"/><rect class="cls-2" x="323.22" y="208.14" width="22.07" height="1.54"/><rect class="cls-2" x="323.22" y="210.57" width="21" height="1.54"/><rect class="cls-2" x="323.22" y="215.47" width="20.06" height="1.54"/><rect class="cls-2" x="323.22" y="212.95" width="22.23" height="1.54"/></g></g></svg>