<?xml version="1.0" encoding="utf-8"?>
<!-- Generator: Adobe Illustrator 20.0.0, SVG Export Plug-In . SVG Version: 6.00 Build 0)  -->
<svg version="1.1" id="Layer_1" xmlns="http://www.w3.org/2000/svg" xmlns:xlink="http://www.w3.org/1999/xlink" x="0px" y="0px"
	 viewBox="0 0 99.6 100" style="enable-background:new 0 0 99.6 100;" xml:space="preserve">
<style type="text/css">
	.st0{fill:#5D6670;}
</style>
<path class="st0" d="M93,6.6v86.9H6.6V6.6H93 M96.4,0H3.2C1.4,0,0,1.4,0,3.2v93.6c0,1.8,1.4,3.2,3.2,3.2h93.2c1.8,0,3.2-1.4,3.2-3.2
	V3.2C99.6,1.4,98.2,0,96.4,0L96.4,0z"/>
<path class="st0" d="M84.2,58.7H53.4c-1.8,0-3.3-1.5-3.3-3.3s1.5-3.3,3.3-3.3h30.9c1.8,0,3.3,1.5,3.3,3.3S86,58.7,84.2,58.7z"/>
<path class="st0" d="M84.2,72H53.4c-1.8,0-3.3-1.5-3.3-3.3s1.5-3.3,3.3-3.3h30.9c1.8,0,3.3,1.5,3.3,3.3S86,72,84.2,72z"/>
<path class="st0" d="M84.4,85H53.5c-1.8,0-3.3-1.5-3.3-3.3s1.5-3.3,3.3-3.3h30.9c1.8,0,3.3,1.5,3.3,3.3S86.2,85,84.4,85z"/>
<path class="st0" d="M84.5,13.7H15.1c-1.8,0-3.2,1.4-3.2,3.2v26.5c0,1.8,1.4,3.2,3.2,3.2h69.4c1.8,0,3.2-1.4,3.2-3.2V16.9
	C87.7,15.1,86.3,13.7,84.5,13.7z M18.5,22.8l21.4,7.9l-21.4,7.8V22.8z M30.7,20.3h37.7l-18.9,6.9L30.7,20.3z M49.5,34.1L65.3,40
	H33.4L49.5,34.1z M59,30.7l22.1-8v16.2L59,30.7z"/>
<path class="st0" d="M40.4,52.2H15.1c-1.8,0-3.2,1.4-3.2,3.2v26.5c0,1.8,1.4,3.2,3.2,3.2h25.3c1.8,0,3.2-1.4,3.2-3.2V55.3
	C43.6,53.6,42.2,52.2,40.4,52.2z M18.5,63.6l4.7,5.2l-4.7,5V63.6z M22.9,58.7h10l-5.1,5.3L22.9,58.7z M27.6,73.7l4.3,4.8h-8.9
	L27.6,73.7z M32.2,68.9l4.8-5v10.3L32.2,68.9z"/>
</svg>
