<svg xmlns="http://www.w3.org/2000/svg" viewBox="0 0 94 121"><defs><style>.cls-1{fill:#5c666f;}.cls-2{fill:#00c4b3;}</style></defs><title>wireframe-color</title><g id="Layer_2" data-name="Layer 2"><g id="Layer_1-2" data-name="Layer 1"><path class="cls-1" d="M36.81,49.23H29.73a3.36,3.36,0,0,1-3.36-3.36V38.79a3.36,3.36,0,0,1,3.36-3.36h7.08a3.36,3.36,0,0,1,3.36,3.36v7.08A3.36,3.36,0,0,1,36.81,49.23Zm-6.87-3.57H36.6V39H29.94Z"/><path class="cls-1" d="M63.55,39H46a1.79,1.79,0,0,1,0-3.57H63.55a1.79,1.79,0,0,1,0,3.57Z"/><path class="cls-1" d="M63.55,44.12H46a1.79,1.79,0,0,1,0-3.57H63.55a1.79,1.79,0,0,1,0,3.57Z"/><path class="cls-1" d="M63.55,49.23H46a1.79,1.79,0,0,1,0-3.57H63.55a1.79,1.79,0,0,1,0,3.57Z"/><path class="cls-1" d="M60.11,91.35H30.28a3.57,3.57,0,0,1-3.57-3.57V82.44a3.57,3.57,0,0,1,3.57-3.57H60.11a3.57,3.57,0,0,1,3.57,3.57v5.35A3.57,3.57,0,0,1,60.11,91.35ZM30.28,82.44v5.35H60.12V82.44Z"/><path class="cls-1" d="M89.22,31H76V18.41C76,15.7,73.31,14,70.59,14H58V3.78C58,1.42,55.58,0,53.22,0H3.79A3.48,3.48,0,0,0,0,3.78V85.22C0,87.58,1.42,90,3.79,90H17v10.59c0,2.71,1.7,5.41,4.41,5.41H36v10.22c0,2.37,1.42,4.78,3.79,4.78H89.22A5.18,5.18,0,0,0,94,116.22V34.78C94,32.42,91.58,31,89.22,31ZM76,52h4.57c.14,0,.43-.4.43-.26V61.89C81,62,80.71,63,80.57,63H76Zm0,23h4.57c.14,0,.43-.37.43-.23V84.92c0,.14-.29,1.08-.43,1.08H76Zm-5,31.9V106h-.41A5.8,5.8,0,0,0,76,100.59V97h4.57c.14,0,.43-.39.43-.25V106.9c0,.14-.29,1.1-.43,1.1H70.42C70.28,108,71,107,71,106.9ZM57.5,20H70v4H23V20H57.5ZM5,5H53V9H5ZM17,85H5V13H53v1H21.41A4.1,4.1,0,0,0,17,18.41V26H11.33C9.7,26,9,26.78,9,28.41V64.6c0,1.63.7,3.4,2.33,3.4H17Zm0-21H13V30h4Zm18.5,36H23V28H70v72H35.5Zm22.9,8H48.26c-.14,0-.26-1-.26-1.1V106H59v.9C59,107,58.55,108,58.4,108ZM90,116H41V106h3v.9c0,2.35,1.91,5.1,4.26,5.1H58.4c2.35,0,4.6-2.75,4.6-5.1V106h4v.9c0,2.35,1.08,5.1,3.42,5.1H80.57c2.35,0,4.43-2.75,4.43-5.1V96.75C85,94.41,82.92,93,80.57,93H76V90h4.57C82.92,90,85,87.27,85,84.92V74.77C85,72.43,82.92,71,80.57,71H76V67h4.57C82.92,67,85,64.23,85,61.89V51.74C85,49.39,82.92,48,80.57,48H76V44H90Zm0-76H76V36H90Z"/><path class="cls-1" d="M36.81,70.35H29.73A3.36,3.36,0,0,1,26.37,67V59.91a3.36,3.36,0,0,1,3.36-3.36h7.08a3.36,3.36,0,0,1,3.36,3.36V67A3.36,3.36,0,0,1,36.81,70.35Zm-6.87-3.57H36.6V60.12H29.94Z"/><path class="cls-1" d="M63.55,60.12H46a1.79,1.79,0,0,1,0-3.57H63.55a1.79,1.79,0,0,1,0,3.57Z"/><path class="cls-1" d="M63.55,65.24H46a1.79,1.79,0,0,1,0-3.57H63.55a1.79,1.79,0,0,1,0,3.57Z"/><path class="cls-1" d="M63.55,70.35H46a1.79,1.79,0,0,1,0-3.57H63.55a1.79,1.79,0,0,1,0,3.57Z"/><path class="cls-2" d="M86.38,87.92l-4.66-4.67a2,2,0,0,0-2.87,0,2.46,2.46,0,0,0,0,3.21L80,88H60.69s0-.33,0-.33A6.18,6.18,0,0,0,55,83.61a6,6,0,0,0-6,5.94,6.29,6.29,0,0,0,6,6.32C57.7,95.87,60,95,60.75,92H80.1l-1.48,1.14a1.83,1.83,0,0,0,0,2.7,2,2,0,0,0,1.44.51,2.07,2.07,0,0,0,1.44-.64l4.89-4.91A2.06,2.06,0,0,0,86.38,87.92ZM55,91.93a2.47,2.47,0,1,1,2.47-2.47A2.47,2.47,0,0,1,55,91.93Z"/></g></g></svg>